<?xml version="1.0" encoding="utf-8"?>
<!-- Generator: Adobe Illustrator 23.0.1, SVG Export Plug-In . SVG Version: 6.00 Build 0)  -->
<svg version="1.1" id="Layer_1" xmlns="http://www.w3.org/2000/svg" xmlns:xlink="http://www.w3.org/1999/xlink" x="0px" y="0px"
	 viewBox="0 0 1152 470" style="enable-background:new 0 0 1152 470;" xml:space="preserve">
<style type="text/css">
	.st0{fill:none;stroke:#E6E6E6;stroke-width:0.25;stroke-miterlimit:10;}
	.st1{fill:none;stroke:#E6E6E6;stroke-width:0.25;stroke-linecap:round;stroke-linejoin:round;stroke-dasharray:4;}
	.st2{fill:none;stroke:#E6E6E6;stroke-width:0.5;stroke-linecap:round;stroke-linejoin:round;}
	.st3{fill:none;stroke:#E6E6E6;stroke-linecap:round;stroke-linejoin:round;}
	.st4{fill:none;stroke:#E6E6E6;stroke-width:2;stroke-linecap:round;stroke-linejoin:round;}
	.st5{fill:none;stroke:#E6E6E6;stroke-width:0.25;stroke-linecap:round;stroke-linejoin:round;}
</style>
<g>
	<path class="st0" d="M159.77,228.4c0.35-0.2,0.69-0.4,1.04-0.6c0.11-3.54,0.62-5.84,2.65-9.71c0-0.24,0-0.47,0-0.71
		c-1.86,1.07-3.71,2.14-5.57,3.22c0,0.33,0,0.66,0,0.99c1.48-0.85,2.96-1.71,4.44-2.56C160.57,222.54,159.91,224.96,159.77,228.4z"
		/>
	<polygon class="st0" points="34.15,151.44 30.18,153.73 30.18,152.97 34.02,145.08 35.09,144.47 35.09,149.98 36.28,149.29 
		36.28,150.21 35.09,150.9 35.09,153.35 34.15,153.89 	"/>
	<path class="st0" d="M145.57,156.96c0,0.92,0,1.84,0,2.76c-0.96,0.55-1.91,1.1-2.87,1.66c0.7-1.41,1.39-2.83,2.09-4.24
		c0.25-0.58,0.54-1.18,0.81-1.76C145.6,155.85,145.58,156.46,145.57,156.96z"/>
	<path class="st0" d="M144.77,218.85c1.76-1.02,2.76-2.64,2.76-3.96c0-1.27-0.66-1.44-1.51-1.47c0.64-0.91,1.17-1.98,1.17-2.82
		c0-1.38-0.88-1.86-2.39-0.99c-1.37,0.79-2.38,2.29-2.38,3.66c0,0.93,0.53,1.31,1.17,1.43c-0.82,0.95-1.65,2.12-1.65,3.35
		C141.95,219.45,143.04,219.85,144.77,218.85z"/>
	<path class="st0" d="M31.37,202.41c0,0.25,0,0.49,0,0.74c0.57-0.33,1.15-0.66,1.72-1c0,2.18,0,4.36,0,6.54
		c-0.74,0.43-1.48,0.85-2.22,1.28c0,0.32,0,0.63,0,0.95c1.74-1,3.48-2.01,5.22-3.01c0-0.32,0-0.63,0-0.95
		c-0.67,0.39-1.34,0.78-2.01,1.16c0-2.65,0-5.29,0-7.94c-0.25,0.14-0.49,0.28-0.74,0.42C32.86,201.2,32.28,201.75,31.37,202.41z"/>
	<path class="st0" d="M65.16,224.25c-0.4,0.23-0.75,0.08-0.75-0.5c0-0.57,0.35-1.12,0.75-1.35s0.75-0.08,0.75,0.49
		C65.91,223.47,65.56,224.02,65.16,224.25z"/>
	<path class="st0" d="M96.83,117.87c1.47-0.85,2.85-2.73,2.85-4.65s-1.17-2.11-2.64-1.26c-0.59,0.34-0.98,0.7-1.42,1.18
		c0.07-0.92,0.14-1.83,0.2-2.75c1.16-0.67,2.32-1.34,3.47-2.01c0-0.33,0-0.66,0-0.99c-1.45,0.84-2.9,1.68-4.35,2.51
		c-0.08,1.47-0.17,2.95-0.25,4.42c0.18,0.03,0.35,0.06,0.53,0.08c0.54-0.66,0.93-1.08,1.57-1.45c1.15-0.66,1.89-0.37,1.89,0.86
		c0,1.24-0.87,2.53-1.95,3.16c-1.04,0.6-1.66,0.47-2.17,0.24c-0.16,0.35-0.33,0.69-0.49,1.04
		C94.64,118.53,95.45,118.67,96.83,117.87z"/>
	<path class="st0" d="M112.02,219.21c0.35-0.2,0.69-0.4,1.04-0.6c0.11-3.54,0.61-5.84,2.65-9.71c0-0.24,0-0.47,0-0.71
		c-1.86,1.07-3.71,2.14-5.57,3.22c0,0.33,0,0.66,0,0.99c1.48-0.85,2.96-1.71,4.44-2.56C112.82,213.35,112.15,215.77,112.02,219.21z"
		/>
	<path class="st0" d="M62.42,283.93c0,0.23,0,0.45,0,0.68c1.8-1.04,3.61-2.08,5.41-3.13c0-0.33,0-0.66,0-0.99
		c-0.84,0.49-1.69,0.97-2.53,1.46c-0.46,0.26-0.95,0.59-1.43,0.91c2.1-3.41,3.55-5.9,3.55-7.57c0-1.57-0.96-2.06-2.51-1.17
		c-1.09,0.63-1.84,1.61-2.53,2.81c0.19,0.11,0.38,0.22,0.57,0.33c0.49-0.88,1.12-1.72,1.84-2.14c1.13-0.65,1.68-0.24,1.68,0.77
		C66.46,277.37,65.03,279.76,62.42,283.93z"/>
	<path class="st0" d="M144.52,196.13c0.6-0.35,1.34-1.12,1.97-2.32c-0.16-1.64-0.84-2.16-1.98-1.5c-0.92,0.53-1.63,1.72-1.63,2.89
		C142.88,196.41,143.45,196.75,144.52,196.13z"/>
	<path class="st0" d="M160.92,98.34c0.92-0.53,1.63-1.72,1.63-2.89c0-1.21-0.58-1.55-1.64-0.93c-0.62,0.36-1.35,1.13-1.97,2.33
		C159.09,98.48,159.8,98.99,160.92,98.34z"/>
	<path class="st0" d="M97.02,246.42c1.76-1.02,2.76-2.64,2.76-3.96c0-1.27-0.66-1.44-1.51-1.47c0.64-0.91,1.17-1.98,1.17-2.82
		c0-1.38-0.88-1.86-2.39-0.99c-1.37,0.79-2.38,2.29-2.38,3.66c0,0.93,0.53,1.31,1.17,1.43c-0.82,0.95-1.65,2.12-1.65,3.35
		C94.2,247.02,95.28,247.42,97.02,246.42z"/>
	<path class="st0" d="M81.13,126.09c1.15-0.66,1.78-1.67,1.78-2.59c0-1.24-1.06-0.93-2.41-0.68c-0.75,0.91-1.31,1.8-1.31,2.69
		C79.18,126.5,79.94,126.77,81.13,126.09z"/>
	<path class="st0" d="M34.15,147.77c0,0.92,0,1.84,0,2.76c-0.96,0.55-1.91,1.1-2.87,1.66c0.7-1.41,1.39-2.83,2.09-4.24
		c0.25-0.58,0.54-1.18,0.81-1.76C34.18,146.66,34.16,147.27,34.15,147.77z"/>
	<path class="st0" d="M126.88,147.27c0,0.25,0,0.49,0,0.74c0.57-0.33,1.15-0.66,1.72-1c0,2.18,0,4.36,0,6.54
		c-0.74,0.43-1.48,0.85-2.22,1.28c0,0.32,0,0.63,0,0.95c1.74-1,3.48-2.01,5.22-3.01c0-0.32,0-0.63,0-0.95
		c-0.67,0.39-1.34,0.78-2.01,1.16c0-2.65,0-5.29,0-7.94c-0.25,0.14-0.49,0.28-0.74,0.42C128.36,146.06,127.78,146.61,126.88,147.27z
		"/>
	<path class="st0" d="M81.1,126.95c1.76-1.02,2.76-2.64,2.76-3.96c0-1.27-0.66-1.44-1.51-1.47c0.64-0.91,1.17-1.98,1.17-2.82
		c0-1.38-0.88-1.86-2.39-0.99c-1.37,0.79-2.38,2.29-2.38,3.66c0,0.93,0.53,1.31,1.17,1.43c-0.82,0.95-1.65,2.12-1.65,3.35
		C78.28,127.55,79.37,127.95,81.1,126.95z"/>
	<path class="st0" d="M112.68,251.27c0.6-0.35,1.34-1.12,1.97-2.32c-0.16-1.64-0.84-2.16-1.98-1.5c-0.92,0.53-1.63,1.72-1.63,2.89
		C111.04,251.55,111.61,251.89,112.68,251.27z"/>
	<path class="st0" d="M112.39,255.92c1.66-0.96,3.22-3.24,3.22-6.8c0-2.85-1.28-3.54-2.95-2.57c-1.36,0.79-2.56,2.63-2.56,4.33
		c0,1.82,0.96,2.19,2.39,1.36c0.78-0.45,1.56-1.33,2.18-2.4c-0.05,2.87-1.12,4.46-2.34,5.17c-0.59,0.34-1.15,0.38-1.53,0.17
		c-0.18,0.35-0.37,0.7-0.55,1.04C110.75,256.47,111.45,256.47,112.39,255.92z"/>
	<path class="st0" d="M127.94,136.5c0.35-0.2,0.69-0.4,1.04-0.6c0.11-3.54,0.61-5.84,2.65-9.71c0-0.24,0-0.47,0-0.71
		c-1.86,1.07-3.71,2.14-5.57,3.22c0,0.33,0,0.66,0,0.99c1.48-0.85,2.96-1.71,4.44-2.56C128.73,130.64,128.07,133.06,127.94,136.5z"
		/>
	<path class="st0" d="M31.37,275.93c0,0.25,0,0.49,0,0.74c0.57-0.33,1.15-0.66,1.72-1c0,2.18,0,4.36,0,6.54
		c-0.74,0.43-1.48,0.85-2.22,1.28c0,0.32,0,0.63,0,0.95c1.74-1,3.48-2.01,5.22-3.01c0-0.32,0-0.63,0-0.95
		c-0.67,0.39-1.34,0.78-2.01,1.16c0-2.65,0-5.29,0-7.94c-0.25,0.14-0.49,0.28-0.74,0.42C32.86,274.72,32.28,275.26,31.37,275.93z"/>
	<path class="st0" d="M144.8,144.47c1.15-0.66,1.78-1.67,1.78-2.59c0-1.24-1.06-0.93-2.41-0.68c-0.75,0.91-1.31,1.8-1.31,2.69
		C142.85,144.88,143.61,145.15,144.8,144.47z"/>
	<path class="st0" d="M63.21,184.03c0,0.25,0,0.49,0,0.74c0.57-0.33,1.15-0.66,1.72-1c0,2.18,0,4.36,0,6.54
		c-0.74,0.43-1.48,0.85-2.22,1.28c0,0.32,0,0.63,0,0.95c1.74-1,3.48-2.01,5.22-3.01c0-0.32,0-0.63,0-0.95
		c-0.67,0.39-1.34,0.78-2.01,1.16c0-2.65,0-5.29,0-7.94c-0.25,0.14-0.49,0.28-0.74,0.42C64.69,182.82,64.11,183.37,63.21,184.03z"/>
	<path class="st0" d="M32.81,191.59c1.66-0.96,3.22-3.24,3.22-6.8c0-2.85-1.28-3.54-2.95-2.57c-1.36,0.79-2.56,2.63-2.56,4.33
		c0,1.82,0.96,2.19,2.39,1.36c0.78-0.45,1.56-1.33,2.18-2.4c-0.05,2.87-1.12,4.46-2.34,5.17c-0.59,0.34-1.15,0.38-1.53,0.17
		c-0.18,0.35-0.37,0.7-0.55,1.04C31.17,192.14,31.87,192.14,32.81,191.59z"/>
	<path class="st0" d="M33.37,227.18c1.15-0.66,1.78-1.67,1.78-2.59c0-1.24-1.06-0.93-2.41-0.68c-0.75,0.91-1.31,1.8-1.31,2.69
		C31.43,227.59,32.19,227.86,33.37,227.18z"/>
	<path class="st0" d="M160.71,116.9c1.15-0.66,1.78-1.67,1.78-2.59c0-1.24-1.06-0.93-2.41-0.68c-0.75,0.91-1.31,1.8-1.31,2.69
		C158.77,117.31,159.53,117.58,160.71,116.9z"/>
	<path class="st0" d="M221.6,283.93c0,0.23,0,0.45,0,0.68c1.8-1.04,3.61-2.08,5.41-3.13c0-0.33,0-0.66,0-0.99
		c-0.84,0.49-1.69,0.97-2.53,1.46c-0.46,0.26-0.95,0.59-1.43,0.91c2.1-3.41,3.55-5.9,3.55-7.57c0-1.57-0.96-2.06-2.51-1.17
		c-1.09,0.63-1.84,1.61-2.53,2.81c0.19,0.11,0.38,0.22,0.57,0.33c0.49-0.88,1.12-1.72,1.84-2.14c1.13-0.65,1.68-0.24,1.68,0.77
		C225.64,277.37,224.2,279.76,221.6,283.93z"/>
	<path class="st0" d="M81.08,162.81c1.07-0.62,1.83-2.23,1.83-4.78c0-2.56-0.76-3.22-1.83-2.6c-1.07,0.62-1.83,2.16-1.83,4.72
		C79.25,162.69,80,163.43,81.08,162.81z"/>
	<path class="st0" d="M97,150.73c-0.4,0.23-0.75,0.08-0.75-0.5c0-0.57,0.35-1.12,0.75-1.35c0.4-0.23,0.75-0.08,0.75,0.49
		C97.74,149.95,97.39,150.5,97,150.73z"/>
	<path class="st0" d="M49.24,291.47c1.07-0.62,1.83-2.23,1.83-4.78c0-2.56-0.76-3.22-1.83-2.6c-1.07,0.62-1.83,2.16-1.83,4.72
		C47.41,291.35,48.17,292.09,49.24,291.47z"/>
	<path class="st0" d="M17.41,251.82c-0.4,0.23-0.75,0.08-0.75-0.5c0-0.57,0.35-1.12,0.75-1.35c0.4-0.23,0.75-0.08,0.75,0.49
		C18.16,251.04,17.81,251.59,17.41,251.82z"/>
	<path class="st0" d="M17.41,255.62c-1.71,0.99-2.76-0.09-2.76-3.04c0-2.98,1.05-5.19,2.76-6.18c1.71-0.99,2.76,0.01,2.76,2.99
		C20.17,252.35,19.12,254.64,17.41,255.62z"/>
	<path class="st0" d="M17.41,288.58c-0.4,0.23-0.75,0.08-0.75-0.5c0-0.57,0.35-1.12,0.75-1.35c0.4-0.23,0.75-0.08,0.75,0.49
		C18.16,287.8,17.81,288.35,17.41,288.58z"/>
	<path class="st0" d="M17.41,291.47c1.07-0.62,1.83-2.23,1.83-4.78c0-2.56-0.76-3.22-1.83-2.6c-1.07,0.62-1.83,2.16-1.83,4.72
		C15.57,291.35,16.33,292.09,17.41,291.47z"/>
	<path class="st0" d="M128.67,117.87c1.53-0.88,2.79-2.57,2.79-4.14c0-1.23-0.88-1.5-1.91-1.18c0.95-0.94,1.64-2.02,1.64-3.09
		c0-1.43-1.1-1.62-2.54-0.79c-0.99,0.57-1.82,1.52-2.46,2.53c0.18,0.14,0.35,0.28,0.53,0.42c0.51-0.82,1.17-1.58,1.89-2
		c0.94-0.54,1.57-0.36,1.57,0.5c0,0.93-0.7,2.06-2.52,3.11c0,0.29,0,0.58,0,0.88c2.03-1.17,2.8-0.91,2.8,0.15
		c0,0.99-0.8,2.09-1.84,2.69c-0.99,0.57-1.7,0.48-2.21,0.22c-0.17,0.35-0.34,0.7-0.51,1.04
		C126.47,118.54,127.35,118.63,128.67,117.87z"/>
	<path class="st0" d="M144.77,145.33c1.76-1.02,2.76-2.64,2.76-3.96c0-1.27-0.66-1.44-1.51-1.47c0.64-0.91,1.17-1.98,1.17-2.82
		c0-1.38-0.88-1.86-2.39-0.99c-1.37,0.79-2.38,2.29-2.38,3.66c0,0.93,0.53,1.31,1.17,1.43c-0.82,0.95-1.65,2.12-1.65,3.35
		C141.95,145.93,143.04,146.33,144.77,145.33z"/>
	<path class="st0" d="M17.25,200.58c1.53-0.88,2.79-2.57,2.79-4.14c0-1.23-0.88-1.5-1.91-1.18c0.95-0.94,1.64-2.02,1.64-3.09
		c0-1.43-1.1-1.62-2.54-0.79c-0.99,0.57-1.82,1.52-2.46,2.53c0.18,0.14,0.35,0.28,0.53,0.42c0.51-0.82,1.17-1.58,1.89-2
		c0.94-0.54,1.57-0.36,1.57,0.5c0,0.93-0.7,2.06-2.52,3.11c0,0.29,0,0.58,0,0.88c2.03-1.17,2.8-0.91,2.8,0.15
		c0,0.99-0.8,2.09-1.84,2.69c-0.99,0.57-1.7,0.48-2.21,0.22c-0.17,0.35-0.34,0.7-0.51,1.04C15.04,201.25,15.92,201.34,17.25,200.58z
		"/>
	<path class="st0" d="M110.18,164.46c0,0.23,0,0.45,0,0.68c1.8-1.04,3.61-2.08,5.41-3.13c0-0.33,0-0.66,0-0.99
		c-0.84,0.49-1.69,0.97-2.53,1.46c-0.46,0.26-0.95,0.59-1.43,0.91c2.1-3.41,3.55-5.9,3.55-7.57c0-1.57-0.96-2.06-2.51-1.17
		c-1.09,0.63-1.84,1.61-2.53,2.81c0.19,0.11,0.38,0.22,0.57,0.33c0.49-0.88,1.12-1.72,1.84-2.14c1.13-0.65,1.68-0.24,1.68,0.77
		C114.22,157.9,112.78,160.29,110.18,164.46z"/>
	<path class="st0" d="M128.85,191.28c1.76-1.02,2.76-2.64,2.76-3.96c0-1.27-0.66-1.44-1.51-1.47c0.64-0.91,1.17-1.98,1.17-2.82
		c0-1.38-0.88-1.86-2.39-0.99c-1.37,0.79-2.38,2.29-2.38,3.66c0,0.93,0.53,1.31,1.17,1.43c-0.82,0.95-1.65,2.12-1.65,3.35
		C126.03,191.88,127.12,192.28,128.85,191.28z"/>
	<path class="st0" d="M142.79,119.7c0,0.25,0,0.49,0,0.74c0.57-0.33,1.15-0.66,1.72-1c0,2.18,0,4.36,0,6.54
		c-0.74,0.43-1.48,0.85-2.22,1.28c0,0.32,0,0.63,0,0.95c1.74-1,3.48-2.01,5.22-3.01c0-0.32,0-0.63,0-0.95
		c-0.67,0.39-1.34,0.78-2.01,1.16c0-2.65,0-5.29,0-7.94c-0.25,0.14-0.49,0.28-0.74,0.42C144.28,118.49,143.7,119.04,142.79,119.7z"
		/>
	<path class="st0" d="M144.23,200.78c1.66-0.96,3.22-3.24,3.22-6.8c0-2.85-1.28-3.54-2.95-2.57c-1.36,0.79-2.56,2.63-2.56,4.33
		c0,1.82,0.96,2.19,2.39,1.36c0.78-0.45,1.56-1.33,2.18-2.4c-0.05,2.87-1.12,4.46-2.34,5.17c-0.59,0.34-1.15,0.38-1.53,0.17
		c-0.18,0.35-0.37,0.7-0.55,1.04C142.59,201.33,143.29,201.33,144.23,200.78z"/>
	<path class="st0" d="M65.79,149.16c0.63-0.89,0.96-1.68,0.96-2.34c0-0.88-0.54-1.26-1.56-0.68c-0.86,0.49-1.45,1.41-1.45,2.27
		C63.75,149.47,64.64,149.4,65.79,149.16z"/>
	<path class="st0" d="M129.46,185.92c0.63-0.89,0.96-1.68,0.96-2.34c0-0.88-0.54-1.26-1.56-0.68c-0.86,0.49-1.45,1.41-1.45,2.27
		C127.42,186.23,128.31,186.16,129.46,185.92z"/>
	<path class="st0" d="M160.67,172c1.07-0.62,1.83-2.23,1.83-4.78c0-2.56-0.76-3.22-1.83-2.6c-1.07,0.62-1.83,2.16-1.83,4.72
		C158.83,171.88,159.59,172.62,160.67,172z"/>
	<polygon class="st0" points="145.57,160.63 141.6,162.92 141.6,162.16 145.45,154.27 146.51,153.66 146.51,159.17 147.7,158.48 
		147.7,159.4 146.51,160.09 146.51,162.54 145.57,163.08 	"/>
	<path class="st0" d="M144.8,217.99c1.15-0.66,1.78-1.67,1.78-2.59c0-1.24-1.06-0.93-2.41-0.68c-0.75,0.91-1.31,1.8-1.31,2.69
		C142.85,218.4,143.61,218.67,144.8,217.99z"/>
	<path class="st0" d="M112.91,199.57c1.07-0.62,1.83-2.23,1.83-4.78c0-2.56-0.76-3.22-1.83-2.6c-1.07,0.62-1.83,2.16-1.83,4.72
		C111.08,199.45,111.84,200.19,112.91,199.57z"/>
	<path class="st0" d="M97.04,245.56c1.15-0.66,1.78-1.67,1.78-2.59c0-1.24-1.06-0.93-2.41-0.68c-0.75,0.91-1.31,1.8-1.31,2.69
		C95.1,245.97,95.86,246.24,97.04,245.56z"/>
	<path class="st0" d="M112.91,196.68c-0.4,0.23-0.75,0.08-0.75-0.5c0-0.57,0.35-1.12,0.75-1.35c0.4-0.23,0.75-0.08,0.75,0.49
		C113.66,195.9,113.31,196.45,112.91,196.68z"/>
	<path class="st0" d="M222.38,257.55c0,0.25,0,0.49,0,0.74c0.57-0.33,1.15-0.66,1.72-1c0,2.18,0,4.36,0,6.54
		c-0.74,0.43-1.48,0.85-2.22,1.28c0,0.32,0,0.63,0,0.95c1.74-1,3.48-2.01,5.22-3.01c0-0.32,0-0.63,0-0.95
		c-0.67,0.39-1.34,0.78-2.01,1.16c0-2.65,0-5.29,0-7.94c-0.25,0.14-0.49,0.28-0.74,0.42C223.87,256.34,223.29,256.88,222.38,257.55z
		"/>
	<path class="st0" d="M65.79,241.06c0.63-0.89,0.96-1.68,0.96-2.34c0-0.88-0.54-1.26-1.56-0.68c-0.86,0.49-1.45,1.41-1.45,2.27
		C63.75,241.37,64.64,241.3,65.79,241.06z"/>
	<path class="st0" d="M161.29,112.4c0.63-0.89,0.96-1.68,0.96-2.34c0-0.88-0.54-1.26-1.56-0.68c-0.86,0.49-1.45,1.41-1.45,2.27
		C159.25,112.71,160.15,112.64,161.29,112.4z"/>
	<path class="st0" d="M17.41,306.96c-0.4,0.23-0.75,0.08-0.75-0.5c0-0.57,0.35-1.12,0.75-1.35c0.4-0.23,0.75-0.08,0.75,0.49
		C18.16,306.18,17.81,306.73,17.41,306.96z"/>
	<path class="st0" d="M33.33,169.11c-0.4,0.23-0.75,0.08-0.75-0.5c0-0.57,0.35-1.12,0.75-1.35c0.4-0.23,0.75-0.08,0.75,0.49
		C34.07,168.33,33.72,168.88,33.33,169.11z"/>
	<path class="st0" d="M112.91,144.43c1.07-0.62,1.83-2.23,1.83-4.78c0-2.56-0.76-3.22-1.83-2.6c-1.07,0.62-1.83,2.16-1.83,4.72
		C111.08,144.31,111.84,145.05,112.91,144.43z"/>
	<path class="st0" d="M339.62,325.44c0.69-0.4,1.28-1.32,1.28-2.17c0-0.91-0.49-1.09-1.2-0.68c-0.39,0.22-0.78,0.67-1.09,1.21
		c0.02-1.44,0.56-2.23,1.18-2.59c0.29-0.17,0.57-0.19,0.77-0.09c0.09-0.17,0.18-0.34,0.28-0.52c-0.25-0.13-0.6-0.13-1.07,0.15
		c-0.84,0.48-1.61,1.62-1.61,3.4C338.15,325.58,338.78,325.92,339.62,325.44z"/>
	<path class="st0" d="M144.8,70.95c1.15-0.66,1.78-1.67,1.78-2.59c0-1.24-1.06-0.93-2.41-0.68c-0.75,0.91-1.31,1.8-1.31,2.69
		C142.85,71.36,143.61,71.63,144.8,70.95z"/>
	<path class="st0" d="M254.22,275.93c0,0.25,0,0.49,0,0.74c0.57-0.33,1.15-0.66,1.72-1c0,2.18,0,4.36,0,6.54
		c-0.74,0.43-1.48,0.85-2.22,1.28c0,0.32,0,0.63,0,0.95c1.74-1,3.48-2.01,5.22-3.01c0-0.32,0-0.63,0-0.95
		c-0.67,0.39-1.34,0.78-2.01,1.16c0-2.65,0-5.29,0-7.94c-0.25,0.14-0.49,0.28-0.74,0.42C255.7,274.72,255.12,275.26,254.22,275.93z"
		/>
	<path class="st0" d="M64.93,113.42c0.6-0.35,1.34-1.12,1.97-2.32c-0.16-1.64-0.84-2.16-1.98-1.5c-0.92,0.53-1.63,1.72-1.63,2.89
		C63.29,113.7,63.86,114.04,64.93,113.42z"/>
	<path class="st0" d="M32.43,136.5c0.35-0.2,0.69-0.4,1.04-0.6c0.11-3.54,0.62-5.84,2.65-9.71c0-0.24,0-0.47,0-0.71
		c-1.86,1.07-3.71,2.14-5.57,3.22c0,0.33,0,0.66,0,0.99c1.48-0.85,2.96-1.71,4.44-2.56C33.23,130.64,32.57,133.06,32.43,136.5z"/>
	<path class="st0" d="M49.07,218.96c1.47-0.85,2.85-2.73,2.85-4.65c0-1.92-1.17-2.11-2.64-1.26c-0.59,0.34-0.98,0.7-1.42,1.18
		c0.07-0.92,0.14-1.83,0.21-2.75c1.16-0.67,2.32-1.34,3.47-2.01c0-0.33,0-0.66,0-0.99c-1.45,0.84-2.9,1.68-4.35,2.51
		c-0.08,1.47-0.17,2.95-0.25,4.42c0.18,0.03,0.35,0.06,0.53,0.08c0.54-0.66,0.93-1.08,1.57-1.45c1.15-0.66,1.89-0.37,1.89,0.86
		c0,1.24-0.87,2.53-1.95,3.16c-1.04,0.6-1.66,0.47-2.17,0.24c-0.16,0.35-0.33,0.69-0.49,1.04C46.89,219.62,47.7,219.76,49.07,218.96
		z"/>
	<path class="st0" d="M65.16,227.14c1.07-0.62,1.83-2.23,1.83-4.78c0-2.56-0.76-3.22-1.83-2.6c-1.07,0.62-1.83,2.16-1.83,4.72
		C63.33,227.02,64.09,227.76,65.16,227.14z"/>
	<path class="st0" d="M65.16,228.05c-1.71,0.99-2.76-0.09-2.76-3.04c0-2.98,1.05-5.19,2.76-6.18c1.71-0.99,2.76,0.01,2.76,2.99
		C67.92,224.78,66.87,227.07,65.16,228.05z"/>
	<path class="st0" d="M81.1,182.09c1.76-1.02,2.76-2.64,2.76-3.96c0-1.27-0.66-1.44-1.51-1.47c0.64-0.91,1.17-1.98,1.17-2.82
		c0-1.38-0.88-1.86-2.39-0.99c-1.37,0.79-2.38,2.29-2.38,3.66c0,0.93,0.53,1.31,1.17,1.43c-0.82,0.95-1.65,2.12-1.65,3.35
		C78.28,182.69,79.37,183.09,81.1,182.09z"/>
	<path class="st0" d="M112.91,200.48c-1.71,0.99-2.76-0.09-2.76-3.04c0-2.98,1.05-5.19,2.76-6.18c1.71-0.99,2.76,0.01,2.76,2.99
		C115.67,197.21,114.63,199.5,112.91,200.48z"/>
	<path class="st0" d="M144.52,104.23c0.6-0.35,1.34-1.12,1.97-2.32c-0.16-1.64-0.84-2.16-1.98-1.5c-0.92,0.53-1.63,1.72-1.63,2.89
		C142.88,104.51,143.45,104.85,144.52,104.23z"/>
	<path class="st0" d="M78.34,256.36c0,0.23,0,0.45,0,0.68c1.8-1.04,3.61-2.08,5.41-3.13c0-0.33,0-0.66,0-0.99
		c-0.84,0.49-1.69,0.97-2.53,1.46c-0.46,0.26-0.95,0.59-1.44,0.91c2.1-3.41,3.55-5.9,3.55-7.57c0-1.57-0.96-2.06-2.51-1.17
		c-1.09,0.63-1.84,1.61-2.53,2.81c0.19,0.11,0.38,0.22,0.57,0.33c0.49-0.88,1.12-1.72,1.84-2.14c1.13-0.65,1.68-0.24,1.68,0.77
		C82.38,249.8,80.95,252.19,78.34,256.36z"/>
	<path class="st0" d="M80.91,145.44c1.47-0.85,2.85-2.73,2.85-4.65c0-1.92-1.17-2.11-2.64-1.26c-0.59,0.34-0.98,0.7-1.42,1.18
		c0.07-0.92,0.14-1.83,0.21-2.75c1.16-0.67,2.32-1.34,3.47-2.01c0-0.33,0-0.66,0-0.99c-1.45,0.84-2.9,1.68-4.35,2.51
		c-0.08,1.47-0.17,2.95-0.25,4.42c0.18,0.03,0.35,0.06,0.53,0.08c0.54-0.66,0.93-1.08,1.57-1.45c1.15-0.66,1.89-0.37,1.89,0.86
		c0,1.24-0.87,2.53-1.95,3.16c-1.04,0.6-1.66,0.47-2.17,0.24c-0.16,0.35-0.33,0.69-0.49,1.04C78.73,146.1,79.53,146.24,80.91,145.44
		z"/>
	<path class="st0" d="M96.83,173.01c1.47-0.85,2.85-2.73,2.85-4.65c0-1.92-1.17-2.11-2.64-1.26c-0.59,0.34-0.98,0.7-1.42,1.18
		c0.07-0.92,0.14-1.83,0.2-2.75c1.16-0.67,2.32-1.34,3.47-2.01c0-0.33,0-0.66,0-0.99c-1.45,0.84-2.9,1.68-4.35,2.51
		c-0.08,1.47-0.17,2.95-0.25,4.42c0.18,0.03,0.35,0.06,0.53,0.08c0.54-0.66,0.93-1.08,1.57-1.45c1.15-0.66,1.89-0.37,1.89,0.86
		c0,1.24-0.87,2.53-1.95,3.16c-1.04,0.6-1.66,0.47-2.17,0.24c-0.16,0.35-0.33,0.69-0.49,1.04
		C94.64,173.67,95.45,173.81,96.83,173.01z"/>
	<path class="st0" d="M65.16,172c1.07-0.62,1.83-2.23,1.83-4.78c0-2.56-0.76-3.22-1.83-2.6c-1.07,0.62-1.83,2.16-1.83,4.72
		C63.33,171.88,64.09,172.62,65.16,172z"/>
	<path class="st0" d="M65.16,172.91c-1.71,0.99-2.76-0.09-2.76-3.04c0-2.98,1.05-5.19,2.76-6.18c1.71-0.99,2.76,0.01,2.76,2.99
		C67.92,169.64,66.87,171.93,65.16,172.91z"/>
	<path class="st0" d="M65.16,169.11c-0.4,0.23-0.75,0.08-0.75-0.5c0-0.57,0.35-1.12,0.75-1.35c0.4-0.23,0.75-0.08,0.75,0.49
		C65.91,168.33,65.56,168.88,65.16,169.11z"/>
	<path class="st0" d="M112.91,145.34c-1.71,0.99-2.76-0.09-2.76-3.04c0-2.98,1.05-5.19,2.76-6.18c1.71-0.99,2.76,0.01,2.76,2.99
		C115.67,142.07,114.63,144.36,112.91,145.34z"/>
	<path class="st0" d="M112.91,141.54c-0.4,0.23-0.75,0.08-0.75-0.5c0-0.57,0.35-1.12,0.75-1.35c0.4-0.23,0.75-0.08,0.75,0.49
		C113.66,140.76,113.31,141.31,112.91,141.54z"/>
	<path class="st0" d="M97,136.15c-1.71,0.99-2.76-0.09-2.76-3.04c0-2.98,1.05-5.19,2.76-6.18c1.71-0.99,2.76,0.01,2.76,2.99
		C99.76,132.88,98.71,135.17,97,136.15z"/>
	<path class="st0" d="M97.62,241.06c0.63-0.89,0.96-1.68,0.96-2.34c0-0.88-0.54-1.26-1.56-0.68c-0.86,0.49-1.45,1.41-1.45,2.27
		C95.58,241.37,96.48,241.3,97.62,241.06z"/>
	<path class="st0" d="M160.5,136.25c1.47-0.85,2.85-2.73,2.85-4.65c0-1.92-1.17-2.11-2.64-1.26c-0.59,0.34-0.98,0.7-1.42,1.18
		c0.07-0.92,0.14-1.83,0.21-2.75c1.16-0.67,2.32-1.34,3.47-2.01c0-0.33,0-0.66,0-0.99c-1.45,0.84-2.9,1.68-4.35,2.51
		c-0.08,1.47-0.17,2.95-0.25,4.42c0.18,0.03,0.35,0.06,0.53,0.08c0.54-0.66,0.93-1.08,1.57-1.45c1.15-0.66,1.89-0.37,1.89,0.86
		c0,1.24-0.87,2.53-1.95,3.16c-1.04,0.6-1.66,0.47-2.17,0.24c-0.16,0.35-0.33,0.69-0.49,1.04
		C158.31,136.91,159.12,137.05,160.5,136.25z"/>
	<path class="st0" d="M97,132.35c-0.4,0.23-0.75,0.08-0.75-0.5c0-0.57,0.35-1.12,0.75-1.35c0.4-0.23,0.75-0.08,0.75,0.49
		C97.74,131.57,97.39,132.12,97,132.35z"/>
	<path class="st0" d="M97,135.24c1.07-0.62,1.83-2.23,1.83-4.78c0-2.56-0.76-3.22-1.83-2.6c-1.07,0.62-1.83,2.16-1.83,4.72
		C95.16,135.12,95.92,135.86,97,135.24z"/>
	<path class="st0" d="M160.67,172.91c-1.71,0.99-2.76-0.09-2.76-3.04c0-2.98,1.05-5.19,2.76-6.18c1.71-0.99,2.76,0.01,2.76,2.99
		C163.43,169.64,162.38,171.93,160.67,172.91z"/>
	<path class="st0" d="M96.84,191.39c1.53-0.88,2.79-2.57,2.79-4.14c0-1.23-0.88-1.5-1.91-1.18c0.95-0.94,1.64-2.02,1.64-3.09
		c0-1.43-1.1-1.62-2.54-0.79c-0.99,0.57-1.82,1.52-2.46,2.53c0.18,0.14,0.35,0.28,0.53,0.42c0.51-0.82,1.17-1.58,1.89-2
		c0.94-0.54,1.57-0.36,1.57,0.5c0,0.93-0.7,2.06-2.52,3.11c0,0.29,0,0.58,0,0.88c2.03-1.17,2.8-0.91,2.8,0.15
		c0,0.99-0.8,2.09-1.84,2.69c-0.99,0.57-1.7,0.48-2.21,0.22c-0.17,0.35-0.34,0.7-0.51,1.04C94.63,192.06,95.51,192.15,96.84,191.39z
		"/>
	<path class="st0" d="M47.29,156.46c0,0.25,0,0.49,0,0.74c0.57-0.33,1.15-0.66,1.72-1c0,2.18,0,4.36,0,6.54
		c-0.74,0.43-1.48,0.85-2.22,1.28c0,0.32,0,0.63,0,0.95c1.74-1,3.48-2.01,5.22-3.01c0-0.32,0-0.63,0-0.95
		c-0.67,0.39-1.34,0.78-2.01,1.16c0-2.65,0-5.29,0-7.94c-0.25,0.14-0.49,0.28-0.74,0.42C48.77,155.25,48.19,155.8,47.29,156.46z"/>
	<path class="st0" d="M160.67,169.11c-0.4,0.23-0.75,0.08-0.75-0.5c0-0.57,0.35-1.12,0.75-1.35c0.4-0.23,0.75-0.08,0.75,0.49
		C161.41,168.33,161.06,168.88,160.67,169.11z"/>
	<path class="st0" d="M15.45,229.98c0,0.25,0,0.49,0,0.74c0.57-0.33,1.15-0.66,1.72-1c0,2.18,0,4.36,0,6.54
		c-0.74,0.43-1.48,0.85-2.22,1.28c0,0.32,0,0.63,0,0.95c1.74-1,3.48-2.01,5.22-3.01c0-0.32,0-0.63,0-0.95
		c-0.67,0.39-1.34,0.78-2.01,1.16c0-2.65,0-5.29,0-7.94c-0.25,0.14-0.49,0.28-0.74,0.42C16.94,228.77,16.36,229.31,15.45,229.98z"/>
	<path class="st0" d="M160.69,117.76c1.76-1.02,2.76-2.64,2.76-3.96c0-1.27-0.66-1.44-1.51-1.47c0.64-0.91,1.17-1.98,1.17-2.82
		c0-1.38-0.88-1.86-2.39-0.99c-1.37,0.79-2.38,2.29-2.38,3.66c0,0.93,0.53,1.31,1.17,1.43c-0.82,0.95-1.65,2.12-1.65,3.35
		C157.87,118.36,158.95,118.76,160.69,117.76z"/>
	<path class="st0" d="M144.58,182.2c1.47-0.85,2.85-2.73,2.85-4.65c0-1.92-1.17-2.11-2.64-1.26c-0.59,0.34-0.98,0.7-1.42,1.18
		c0.07-0.92,0.14-1.83,0.21-2.75c1.16-0.67,2.32-1.34,3.47-2.01c0-0.33,0-0.66,0-0.99c-1.45,0.84-2.9,1.68-4.35,2.51
		c-0.08,1.47-0.17,2.95-0.25,4.42c0.18,0.03,0.35,0.06,0.53,0.08c0.54-0.66,0.93-1.08,1.57-1.45c1.15-0.66,1.89-0.37,1.89,0.86
		c0,1.24-0.87,2.53-1.95,3.16c-1.04,0.6-1.66,0.47-2.17,0.24c-0.16,0.35-0.33,0.69-0.49,1.04C142.4,182.86,143.2,183,144.58,182.2z"
		/>
	<path class="st0" d="M112.94,237.23c1.76-1.02,2.76-2.64,2.76-3.96c0-1.27-0.66-1.44-1.51-1.47c0.64-0.91,1.17-1.98,1.17-2.82
		c0-1.38-0.88-1.86-2.39-0.99c-1.37,0.79-2.38,2.29-2.38,3.66c0,0.93,0.53,1.31,1.17,1.43c-0.82,0.95-1.65,2.12-1.65,3.35
		C110.12,237.83,111.2,238.23,112.94,237.23z"/>
	<path class="st0" d="M112.96,236.37c1.15-0.66,1.78-1.67,1.78-2.59c0-1.24-1.06-0.93-2.41-0.68c-0.75,0.91-1.31,1.8-1.31,2.69
		C111.02,236.78,111.78,237.05,112.96,236.37z"/>
	<path class="st0" d="M253.43,265.55c0,0.23,0,0.45,0,0.68c1.8-1.04,3.61-2.08,5.41-3.13c0-0.33,0-0.66,0-0.99
		c-0.84,0.49-1.69,0.97-2.53,1.46c-0.46,0.26-0.95,0.59-1.44,0.91c2.1-3.41,3.55-5.9,3.55-7.57c0-1.57-0.96-2.06-2.51-1.17
		c-1.09,0.63-1.85,1.61-2.53,2.81c0.19,0.11,0.38,0.22,0.57,0.33c0.49-0.88,1.12-1.72,1.84-2.14c1.13-0.65,1.68-0.24,1.68,0.77
		C257.47,258.99,256.04,261.38,253.43,265.55z"/>
	<path class="st0" d="M49.27,200.47c1.76-1.02,2.76-2.64,2.76-3.96c0-1.27-0.66-1.44-1.51-1.47c0.64-0.91,1.17-1.98,1.17-2.82
		c0-1.38-0.88-1.86-2.39-0.99c-1.37,0.79-2.38,2.29-2.38,3.66c0,0.93,0.53,1.31,1.17,1.43c-0.82,0.95-1.65,2.12-1.65,3.35
		C46.45,201.07,47.53,201.47,49.27,200.47z"/>
	<path class="st0" d="M335.88,327.6c-0.27,0.16-0.49,0.05-0.49-0.3c0-0.36,0.22-0.72,0.49-0.87c0.27-0.16,0.49-0.05,0.49,0.31
		C336.37,327.08,336.15,327.44,335.88,327.6z"/>
	<path class="st0" d="M64.99,264.91c1.47-0.85,2.85-2.73,2.85-4.65s-1.17-2.11-2.64-1.26c-0.59,0.34-0.98,0.7-1.42,1.18
		c0.07-0.92,0.14-1.83,0.21-2.75c1.16-0.67,2.32-1.34,3.47-2.01c0-0.33,0-0.66,0-0.99c-1.45,0.84-2.9,1.68-4.35,2.51
		c-0.08,1.47-0.17,2.95-0.25,4.42c0.18,0.03,0.35,0.06,0.53,0.08c0.54-0.66,0.93-1.08,1.57-1.45c1.15-0.66,1.89-0.37,1.89,0.86
		c0,1.24-0.87,2.53-1.95,3.16c-1.04,0.6-1.66,0.47-2.17,0.24c-0.16,0.35-0.33,0.69-0.49,1.04
		C62.81,265.57,63.62,265.71,64.99,264.91z"/>
	<path class="st0" d="M240.08,274.1c1.47-0.85,2.85-2.73,2.85-4.65c0-1.92-1.17-2.11-2.64-1.26c-0.59,0.34-0.98,0.7-1.42,1.18
		c0.07-0.92,0.14-1.83,0.2-2.75c1.16-0.67,2.32-1.34,3.47-2.01c0-0.33,0-0.66,0-0.99c-1.45,0.84-2.9,1.68-4.35,2.51
		c-0.08,1.47-0.17,2.95-0.25,4.42c0.18,0.03,0.35,0.06,0.53,0.08c0.54-0.66,0.93-1.08,1.57-1.45c1.15-0.66,1.89-0.37,1.89,0.86
		c0,1.24-0.87,2.53-1.95,3.16c-1.04,0.6-1.66,0.47-2.17,0.24c-0.16,0.35-0.33,0.69-0.49,1.04
		C237.9,274.76,238.71,274.9,240.08,274.1z"/>
	<path class="st0" d="M237.52,293.12c0,0.23,0,0.45,0,0.68c1.8-1.04,3.61-2.08,5.41-3.13c0-0.33,0-0.66,0-0.99
		c-0.84,0.49-1.69,0.97-2.53,1.46c-0.46,0.26-0.95,0.59-1.43,0.91c2.1-3.41,3.55-5.9,3.55-7.57c0-1.57-0.96-2.06-2.51-1.17
		c-1.09,0.63-1.84,1.61-2.53,2.81c0.19,0.11,0.38,0.22,0.57,0.33c0.49-0.88,1.12-1.72,1.84-2.14c1.13-0.65,1.68-0.24,1.68,0.77
		C241.56,286.56,240.12,288.95,237.52,293.12z"/>
	<path class="st0" d="M33.33,297.77c-0.4,0.23-0.75,0.08-0.75-0.5c0-0.57,0.35-1.12,0.75-1.35c0.4-0.23,0.75-0.08,0.75,0.49
		C34.07,296.99,33.72,297.54,33.33,297.77z"/>
	<path class="st0" d="M254.22,239.17c0,0.25,0,0.49,0,0.74c0.57-0.33,1.15-0.66,1.72-1c0,2.18,0,4.36,0,6.54
		c-0.74,0.43-1.48,0.85-2.22,1.28c0,0.32,0,0.63,0,0.95c1.74-1,3.48-2.01,5.22-3.01c0-0.32,0-0.63,0-0.95
		c-0.67,0.39-1.34,0.78-2.01,1.16c0-2.65,0-5.29,0-7.94c-0.25,0.14-0.49,0.28-0.74,0.42C255.7,237.96,255.12,238.5,254.22,239.17z"
		/>
	<path class="st0" d="M128.67,209.77c1.53-0.88,2.79-2.57,2.79-4.14c0-1.23-0.88-1.5-1.91-1.18c0.95-0.94,1.64-2.02,1.64-3.09
		c0-1.43-1.1-1.62-2.54-0.79c-0.99,0.57-1.82,1.52-2.46,2.53c0.18,0.14,0.35,0.28,0.53,0.42c0.51-0.82,1.17-1.58,1.89-2
		c0.94-0.54,1.57-0.36,1.57,0.5c0,0.93-0.7,2.06-2.52,3.11c0,0.29,0,0.58,0,0.88c2.03-1.17,2.8-0.91,2.8,0.15
		c0,0.99-0.8,2.09-1.84,2.69c-0.99,0.57-1.7,0.48-2.21,0.22c-0.17,0.35-0.34,0.7-0.51,1.04
		C126.47,210.44,127.35,210.53,128.67,209.77z"/>
	<path class="st0" d="M81.13,181.23c1.15-0.66,1.78-1.67,1.78-2.59c0-1.24-1.06-0.93-2.41-0.68c-0.75,0.91-1.31,1.8-1.31,2.69
		C79.18,181.64,79.94,181.91,81.13,181.23z"/>
	<path class="st0" d="M80.91,237.34c1.47-0.85,2.85-2.73,2.85-4.65c0-1.92-1.17-2.11-2.64-1.26c-0.59,0.34-0.98,0.7-1.42,1.18
		c0.07-0.92,0.14-1.83,0.21-2.75c1.16-0.67,2.32-1.34,3.47-2.01c0-0.33,0-0.66,0-0.99c-1.45,0.84-2.9,1.68-4.35,2.51
		c-0.08,1.47-0.17,2.95-0.25,4.42c0.18,0.03,0.35,0.06,0.53,0.08c0.54-0.66,0.93-1.08,1.57-1.45c1.15-0.66,1.89-0.37,1.89,0.86
		c0,1.24-0.87,2.53-1.95,3.16c-1.04,0.6-1.66,0.47-2.17,0.24c-0.16,0.35-0.33,0.69-0.49,1.04C78.73,238,79.53,238.14,80.91,237.34z"
		/>
	<path class="st0" d="M339.62,324.98c0.46-0.26,0.81-0.86,0.81-1.44c0-0.61-0.29-0.77-0.82-0.47c-0.31,0.18-0.68,0.56-0.98,1.17
		C338.71,325.05,339.06,325.31,339.62,324.98z"/>
	<path class="st0" d="M49.29,273.13c1.15-0.66,1.78-1.67,1.78-2.59c0-1.24-1.06-0.93-2.41-0.68c-0.75,0.91-1.31,1.8-1.31,2.69
		C47.35,273.54,48.11,273.81,49.29,273.13z"/>
	<path class="st0" d="M49.87,268.63c0.63-0.89,0.96-1.68,0.96-2.34c0-0.88-0.54-1.26-1.56-0.68c-0.86,0.49-1.45,1.41-1.45,2.27
		C47.83,268.94,48.72,268.87,49.87,268.63z"/>
	<path class="st0" d="M113.54,231.87c0.63-0.89,0.96-1.68,0.96-2.34c0-0.88-0.54-1.26-1.56-0.68c-0.86,0.49-1.45,1.41-1.45,2.27
		C111.5,232.18,112.39,232.11,113.54,231.87z"/>
	<path class="st0" d="M49.27,273.99c1.76-1.02,2.76-2.64,2.76-3.96c0-1.27-0.66-1.44-1.51-1.47c0.64-0.91,1.17-1.98,1.17-2.82
		c0-1.38-0.88-1.86-2.39-0.99c-1.37,0.79-2.38,2.29-2.38,3.66c0,0.93,0.53,1.31,1.17,1.43c-0.82,0.95-1.65,2.12-1.65,3.35
		C46.45,274.59,47.53,274.99,49.27,273.99z"/>
	<path class="st0" d="M94.26,228.79c0,0.23,0,0.45,0,0.68c1.8-1.04,3.61-2.08,5.41-3.13c0-0.33,0-0.66,0-0.99
		c-0.84,0.49-1.69,0.97-2.53,1.46c-0.46,0.26-0.95,0.59-1.43,0.91c2.1-3.41,3.55-5.9,3.55-7.57c0-1.57-0.96-2.06-2.51-1.17
		c-1.09,0.63-1.84,1.61-2.53,2.81c0.19,0.11,0.38,0.22,0.57,0.33c0.49-0.88,1.12-1.72,1.84-2.14c1.13-0.65,1.68-0.24,1.68,0.77
		C98.3,222.23,96.86,224.62,94.26,228.79z"/>
	<path class="st0" d="M160.92,191.15c1.37-0.79,2.57-2.64,2.57-4.34c0-1.82-0.98-2.18-2.4-1.36c-0.77,0.45-1.56,1.34-2.18,2.42
		c0.05-2.88,1.12-4.46,2.35-5.17c0.58-0.33,1.13-0.39,1.53-0.19c0.18-0.34,0.37-0.69,0.55-1.03c-0.51-0.25-1.21-0.25-2.15,0.29
		c-1.68,0.97-3.22,3.24-3.22,6.8C157.98,191.43,159.24,192.12,160.92,191.15z"/>
	<path class="st0" d="M144.23,108.88c1.66-0.96,3.22-3.24,3.22-6.8c0-2.85-1.28-3.54-2.95-2.57c-1.36,0.79-2.56,2.63-2.56,4.33
		c0,1.82,0.96,2.19,2.39,1.36c0.78-0.45,1.56-1.33,2.18-2.4c-0.05,2.87-1.12,4.46-2.34,5.17c-0.59,0.34-1.15,0.38-1.53,0.17
		c-0.18,0.35-0.37,0.7-0.55,1.04C142.59,109.43,143.29,109.43,144.23,108.88z"/>
	<path class="st0" d="M145.38,139.97c0.63-0.89,0.96-1.68,0.96-2.34c0-0.88-0.54-1.26-1.56-0.68c-0.86,0.49-1.45,1.41-1.45,2.27
		C143.34,140.28,144.23,140.21,145.38,139.97z"/>
	<path class="st0" d="M49.09,127.06c1.53-0.88,2.79-2.57,2.79-4.14c0-1.23-0.88-1.5-1.91-1.18c0.95-0.94,1.64-2.02,1.64-3.09
		c0-1.43-1.1-1.62-2.54-0.79c-0.99,0.57-1.82,1.52-2.46,2.53c0.18,0.14,0.35,0.28,0.53,0.42c0.51-0.82,1.17-1.58,1.89-2
		c0.94-0.54,1.57-0.36,1.57,0.5c0,0.93-0.7,2.06-2.52,3.11c0,0.29,0,0.58,0,0.88c2.03-1.17,2.8-0.91,2.8,0.15
		c0,0.99-0.8,2.09-1.85,2.69c-0.99,0.57-1.7,0.48-2.21,0.22c-0.17,0.35-0.34,0.7-0.51,1.04C46.88,127.73,47.76,127.82,49.09,127.06z
		"/>
	<path class="st0" d="M144.77,71.81c1.76-1.02,2.76-2.64,2.76-3.96c0-1.27-0.66-1.44-1.51-1.47c0.64-0.91,1.17-1.98,1.17-2.82
		c0-1.38-0.88-1.86-2.39-0.99c-1.37,0.79-2.38,2.29-2.38,3.66c0,0.93,0.53,1.31,1.17,1.43c-0.82,0.95-1.65,2.12-1.65,3.35
		C141.95,72.41,143.04,72.81,144.77,71.81z"/>
	<path class="st0" d="M63.21,128.89c0,0.25,0,0.49,0,0.74c0.57-0.33,1.15-0.66,1.72-1c0,2.18,0,4.36,0,6.54
		c-0.74,0.43-1.48,0.85-2.22,1.28c0,0.32,0,0.63,0,0.95c1.74-1,3.48-2.01,5.22-3.01c0-0.32,0-0.63,0-0.95
		c-0.67,0.39-1.34,0.78-2.01,1.16c0-2.65,0-5.29,0-7.94c-0.25,0.14-0.49,0.28-0.74,0.42C64.69,127.68,64.11,128.23,63.21,128.89z"/>
	<path class="st0" d="M81.33,108.44c1.37-0.79,2.57-2.64,2.57-4.34c0-1.82-0.98-2.18-2.4-1.36c-0.77,0.45-1.56,1.34-2.18,2.42
		c0.05-2.88,1.12-4.46,2.35-5.17c0.58-0.33,1.13-0.39,1.53-0.19c0.18-0.34,0.37-0.69,0.55-1.03c-0.51-0.25-1.21-0.25-2.15,0.29
		c-1.68,0.97-3.22,3.24-3.22,6.8C78.39,108.72,79.66,109.41,81.33,108.44z"/>
	<path class="st0" d="M49.87,195.11c0.63-0.89,0.96-1.68,0.96-2.34c0-0.88-0.54-1.26-1.56-0.68c-0.86,0.49-1.45,1.41-1.45,2.27
		C47.83,195.42,48.72,195.35,49.87,195.11z"/>
	<path class="st0" d="M49.29,199.61c1.15-0.66,1.78-1.67,1.78-2.59c0-1.24-1.06-0.93-2.41-0.68c-0.75,0.91-1.31,1.8-1.31,2.69
		C47.35,200.02,48.11,200.29,49.29,199.61z"/>
	<path class="st0" d="M144.59,90.3c1.53-0.88,2.79-2.57,2.79-4.14c0-1.23-0.88-1.5-1.91-1.18c0.95-0.94,1.64-2.02,1.64-3.09
		c0-1.43-1.1-1.62-2.54-0.79c-0.99,0.57-1.82,1.52-2.46,2.53c0.18,0.14,0.35,0.28,0.53,0.42c0.51-0.82,1.17-1.58,1.89-2
		c0.94-0.54,1.57-0.36,1.57,0.5c0,0.93-0.7,2.06-2.52,3.11c0,0.29,0,0.58,0,0.88c2.03-1.17,2.8-0.91,2.8,0.15
		c0,0.99-0.8,2.09-1.84,2.69c-0.99,0.57-1.7,0.48-2.21,0.22c-0.17,0.35-0.34,0.7-0.51,1.04C142.38,90.97,143.26,91.06,144.59,90.3z"
		/>
	<path class="st0" d="M47.29,229.98c0,0.25,0,0.49,0,0.74c0.57-0.33,1.15-0.66,1.72-1c0,2.18,0,4.36,0,6.54
		c-0.74,0.43-1.48,0.85-2.22,1.28c0,0.32,0,0.63,0,0.95c1.74-1,3.48-2.01,5.22-3.01c0-0.32,0-0.63,0-0.95
		c-0.67,0.39-1.34,0.78-2.01,1.16c0-2.65,0-5.29,0-7.94c-0.25,0.14-0.49,0.28-0.74,0.42C48.77,228.77,48.19,229.31,47.29,229.98z"/>
	<polygon class="st0" points="18.23,270.91 14.26,273.2 14.26,272.44 18.11,264.55 19.17,263.94 19.17,269.45 20.36,268.76 
		20.36,269.68 19.17,270.37 19.17,272.82 18.23,273.36 	"/>
	<path class="st0" d="M159.77,154.88c0.35-0.2,0.69-0.4,1.04-0.6c0.11-3.54,0.62-5.84,2.65-9.71c0-0.24,0-0.47,0-0.71
		c-1.86,1.07-3.71,2.14-5.57,3.22c0,0.33,0,0.66,0,0.99c1.48-0.85,2.96-1.71,4.44-2.56C160.57,149.02,159.91,151.44,159.77,154.88z"
		/>
	<path class="st0" d="M127.94,99.74c0.35-0.2,0.69-0.4,1.04-0.6c0.11-3.54,0.61-5.84,2.65-9.71c0-0.24,0-0.47,0-0.71
		c-1.86,1.07-3.71,2.14-5.57,3.22c0,0.33,0,0.66,0,0.99c1.48-0.85,2.96-1.71,4.44-2.56C128.73,93.88,128.07,96.3,127.94,99.74z"/>
	<path class="st0" d="M112.68,177.75c0.6-0.35,1.34-1.12,1.97-2.32c-0.16-1.64-0.84-2.16-1.98-1.5c-0.92,0.53-1.63,1.72-1.63,2.89
		C111.04,178.03,111.61,178.37,112.68,177.75z"/>
	<path class="st0" d="M17.66,163.58c1.37-0.79,2.57-2.64,2.57-4.34c0-1.82-0.98-2.18-2.4-1.36c-0.77,0.45-1.56,1.34-2.18,2.42
		c0.05-2.88,1.12-4.46,2.35-5.17c0.58-0.33,1.13-0.39,1.53-0.19c0.18-0.34,0.37-0.69,0.55-1.03c-0.51-0.25-1.21-0.25-2.15,0.29
		c-1.68,0.97-3.22,3.24-3.22,6.8C14.72,163.86,15.98,164.55,17.66,163.58z"/>
	<path class="st0" d="M97,208.76c1.07-0.62,1.83-2.23,1.83-4.78c0-2.56-0.76-3.22-1.83-2.6c-1.07,0.62-1.83,2.16-1.83,4.72
		C95.16,208.64,95.92,209.38,97,208.76z"/>
	<path class="st0" d="M16.52,219.21c0.35-0.2,0.69-0.4,1.04-0.6c0.11-3.54,0.62-5.84,2.65-9.71c0-0.24,0-0.47,0-0.71
		c-1.86,1.07-3.71,2.14-5.57,3.22c0,0.33,0,0.66,0,0.99c1.48-0.85,2.96-1.71,4.44-2.56C17.31,213.35,16.65,215.77,16.52,219.21z"/>
	<path class="st0" d="M126.88,220.79c0,0.25,0,0.49,0,0.74c0.57-0.33,1.15-0.66,1.72-1c0,2.18,0,4.36,0,6.54
		c-0.74,0.43-1.48,0.85-2.22,1.28c0,0.32,0,0.63,0,0.95c1.74-1,3.48-2.01,5.22-3.01c0-0.32,0-0.63,0-0.95
		c-0.67,0.39-1.34,0.78-2.01,1.16c0-2.65,0-5.29,0-7.94c-0.25,0.14-0.49,0.28-0.74,0.42C128.36,219.58,127.78,220.12,126.88,220.79z
		"/>
	<path class="st0" d="M112.91,126.05c1.07-0.62,1.83-2.23,1.83-4.78c0-2.56-0.76-3.22-1.83-2.6c-1.07,0.62-1.83,2.16-1.83,4.72
		C111.08,125.93,111.84,126.67,112.91,126.05z"/>
	<path class="st0" d="M112.91,126.96c-1.71,0.99-2.76-0.09-2.76-3.04c0-2.98,1.05-5.19,2.76-6.18c1.71-0.99,2.76,0.01,2.76,2.99
		C115.67,123.69,114.63,125.98,112.91,126.96z"/>
	<path class="st0" d="M222.38,294.31c0,0.25,0,0.49,0,0.74c0.57-0.33,1.15-0.66,1.72-1c0,2.18,0,4.36,0,6.54
		c-0.74,0.43-1.48,0.85-2.22,1.28c0,0.32,0,0.63,0,0.95c1.74-1,3.48-2.01,5.22-3.01c0-0.32,0-0.63,0-0.95
		c-0.67,0.39-1.34,0.78-2.01,1.16c0-2.65,0-5.29,0-7.94c-0.25,0.14-0.49,0.28-0.74,0.42C223.87,293.1,223.29,293.64,222.38,294.31z"
		/>
	<path class="st0" d="M160.5,209.77c1.47-0.85,2.85-2.73,2.85-4.65c0-1.92-1.17-2.11-2.64-1.26c-0.59,0.34-0.98,0.7-1.42,1.18
		c0.07-0.92,0.14-1.83,0.21-2.75c1.16-0.67,2.32-1.34,3.47-2.01c0-0.33,0-0.66,0-0.99c-1.45,0.84-2.9,1.68-4.35,2.51
		c-0.08,1.47-0.17,2.95-0.25,4.42c0.18,0.03,0.35,0.06,0.53,0.08c0.54-0.66,0.93-1.08,1.57-1.45c1.15-0.66,1.89-0.37,1.89,0.86
		c0,1.24-0.87,2.53-1.95,3.16c-1.04,0.6-1.66,0.47-2.17,0.24c-0.16,0.35-0.33,0.69-0.49,1.04
		C158.31,210.43,159.12,210.57,160.5,209.77z"/>
	<path class="st0" d="M237.52,256.36c0,0.23,0,0.45,0,0.68c1.8-1.04,3.61-2.08,5.41-3.13c0-0.33,0-0.66,0-0.99
		c-0.84,0.49-1.69,0.97-2.53,1.46c-0.46,0.26-0.95,0.59-1.43,0.91c2.1-3.41,3.55-5.9,3.55-7.57c0-1.57-0.96-2.06-2.51-1.17
		c-1.09,0.63-1.84,1.61-2.53,2.81c0.19,0.11,0.38,0.22,0.57,0.33c0.49-0.88,1.12-1.72,1.84-2.14c1.13-0.65,1.68-0.24,1.68,0.77
		C241.56,249.8,240.12,252.19,237.52,256.36z"/>
	<path class="st0" d="M145.38,66.45c0.63-0.89,0.96-1.68,0.96-2.34c0-0.88-0.54-1.26-1.56-0.68c-0.86,0.49-1.45,1.41-1.45,2.27
		C143.34,66.76,144.23,66.69,145.38,66.45z"/>
	<path class="st0" d="M97.82,92.63c0,0.92,0,1.84,0,2.76c-0.96,0.55-1.91,1.1-2.87,1.66c0.7-1.41,1.39-2.83,2.09-4.24
		c0.25-0.58,0.54-1.18,0.81-1.76C97.85,91.52,97.83,92.13,97.82,92.63z"/>
	<path class="st0" d="M80.19,200.83c0.35-0.2,0.69-0.4,1.04-0.6c0.11-3.54,0.61-5.84,2.65-9.71c0-0.24,0-0.47,0-0.71
		c-1.86,1.07-3.71,2.14-5.57,3.22c0,0.33,0,0.66,0,0.99c1.48-0.85,2.96-1.71,4.44-2.56C80.98,194.97,80.32,197.39,80.19,200.83z"/>
	<path class="st0" d="M129.08,245.38c0.92-0.53,1.63-1.72,1.63-2.89c0-1.21-0.58-1.55-1.64-0.93c-0.61,0.36-1.35,1.13-1.97,2.33
		C127.25,245.52,127.96,246.03,129.08,245.38z"/>
	<path class="st0" d="M49.5,181.96c1.37-0.79,2.57-2.64,2.57-4.34c0-1.82-0.98-2.18-2.4-1.36c-0.77,0.45-1.56,1.34-2.18,2.42
		c0.05-2.88,1.12-4.46,2.35-5.17c0.58-0.33,1.13-0.39,1.53-0.19c0.18-0.34,0.37-0.69,0.55-1.03c-0.51-0.25-1.21-0.25-2.15,0.29
		c-1.68,0.97-3.22,3.24-3.22,6.8C46.55,182.24,47.82,182.93,49.5,181.96z"/>
	<path class="st0" d="M33.95,222.68c0.63-0.89,0.96-1.68,0.96-2.34c0-0.88-0.54-1.26-1.56-0.68c-0.86,0.49-1.45,1.41-1.45,2.27
		C31.91,222.99,32.81,222.92,33.95,222.68z"/>
	<path class="st0" d="M17.66,162.67c0.92-0.53,1.63-1.72,1.63-2.89c0-1.21-0.58-1.55-1.64-0.93c-0.61,0.36-1.35,1.13-1.97,2.33
		C15.83,162.81,16.54,163.32,17.66,162.67z"/>
	<path class="st0" d="M112.02,90.55c0.35-0.2,0.69-0.4,1.04-0.6c0.11-3.54,0.61-5.84,2.65-9.71c0-0.24,0-0.47,0-0.71
		c-1.86,1.07-3.71,2.14-5.57,3.22c0,0.33,0,0.66,0,0.99c1.48-0.85,2.96-1.71,4.44-2.56C112.82,84.69,112.15,87.11,112.02,90.55z"/>
	<polygon class="st0" points="97.82,96.3 93.85,98.59 93.85,97.83 97.69,89.94 98.76,89.33 98.76,94.84 99.95,94.15 99.95,95.07 
		98.76,95.76 98.76,98.21 97.82,98.75 	"/>
	<path class="st0" d="M81.33,107.53c0.92-0.53,1.63-1.72,1.63-2.89c0-1.21-0.58-1.55-1.64-0.93c-0.62,0.36-1.35,1.13-1.97,2.33
		C79.5,107.67,80.21,108.18,81.33,107.53z"/>
	<path class="st0" d="M49.24,292.38c-1.71,0.99-2.76-0.09-2.76-3.04c0-2.98,1.05-5.19,2.76-6.18c1.71-0.99,2.76,0.01,2.76,2.99
		C52,289.11,50.96,291.4,49.24,292.38z"/>
	<path class="st0" d="M33.33,172c1.07-0.62,1.83-2.23,1.83-4.78c0-2.56-0.76-3.22-1.83-2.6c-1.07,0.62-1.83,2.16-1.83,4.72
		C31.49,171.88,32.25,172.62,33.33,172z"/>
	<path class="st0" d="M33.33,301.57c-1.71,0.99-2.76-0.09-2.76-3.04c0-2.98,1.05-5.19,2.76-6.18c1.71-0.99,2.76,0.01,2.76,2.99
		C36.09,298.3,35.04,300.59,33.33,301.57z"/>
	<path class="st0" d="M64.64,118.07c1.66-0.96,3.22-3.24,3.22-6.8c0-2.85-1.28-3.54-2.95-2.57c-1.36,0.79-2.56,2.63-2.56,4.33
		c0,1.82,0.96,2.19,2.39,1.36c0.78-0.45,1.56-1.33,2.18-2.4c-0.05,2.87-1.12,4.46-2.34,5.17c-0.59,0.34-1.15,0.38-1.53,0.17
		c-0.18,0.35-0.37,0.7-0.55,1.04C63,118.62,63.7,118.62,64.64,118.07z"/>
	<path class="st0" d="M145.57,230.48c0,0.92,0,1.84,0,2.76c-0.96,0.55-1.91,1.1-2.87,1.66c0.7-1.41,1.39-2.83,2.09-4.24
		c0.25-0.58,0.54-1.18,0.81-1.76C145.6,229.37,145.58,229.98,145.57,230.48z"/>
	<path class="st0" d="M48.35,145.69c0.35-0.2,0.69-0.4,1.04-0.6c0.11-3.54,0.62-5.84,2.65-9.71c0-0.24,0-0.47,0-0.71
		c-1.86,1.07-3.71,2.14-5.57,3.22c0,0.33,0,0.66,0,0.99c1.48-0.85,2.96-1.71,4.44-2.56C49.15,139.83,48.48,142.25,48.35,145.69z"/>
	<path class="st0" d="M65.18,246.42c1.76-1.02,2.76-2.64,2.76-3.96c0-1.27-0.66-1.44-1.51-1.47c0.64-0.91,1.17-1.98,1.17-2.82
		c0-1.38-0.88-1.86-2.39-0.99c-1.37,0.79-2.38,2.29-2.38,3.66c0,0.93,0.53,1.31,1.17,1.43c-0.82,0.95-1.65,2.12-1.65,3.35
		C62.36,247.02,63.45,247.42,65.18,246.42z"/>
	<path class="st0" d="M160.44,76.66c0.6-0.35,1.34-1.12,1.97-2.32c-0.16-1.64-0.84-2.16-1.98-1.5c-0.92,0.53-1.63,1.72-1.63,2.89
		C158.8,76.94,159.36,77.28,160.44,76.66z"/>
	<path class="st0" d="M97,153.62c1.07-0.62,1.83-2.23,1.83-4.78c0-2.56-0.76-3.22-1.83-2.6c-1.07,0.62-1.83,2.16-1.83,4.72
		C95.16,153.5,95.92,154.24,97,153.62z"/>
	<path class="st0" d="M81.08,163.72c-1.71,0.99-2.76-0.09-2.76-3.04c0-2.98,1.05-5.19,2.76-6.18c1.71-0.99,2.76,0.01,2.76,2.99
		C83.84,160.45,82.79,162.74,81.08,163.72z"/>
	<path class="st0" d="M160.15,81.31c1.66-0.96,3.22-3.24,3.22-6.8c0-2.85-1.28-3.54-2.95-2.57c-1.36,0.79-2.56,2.63-2.56,4.33
		c0,1.82,0.96,2.19,2.39,1.36c0.78-0.45,1.56-1.33,2.18-2.4c-0.05,2.87-1.12,4.46-2.34,5.17c-0.59,0.34-1.15,0.38-1.53,0.17
		c-0.18,0.35-0.37,0.7-0.55,1.04C158.51,81.86,159.21,81.86,160.15,81.31z"/>
	<path class="st0" d="M65.21,153.66c1.15-0.66,1.78-1.67,1.78-2.59c0-1.24-1.06-0.93-2.41-0.68c-0.75,0.91-1.31,1.8-1.31,2.69
		C63.27,154.07,64.03,154.34,65.21,153.66z"/>
	<path class="st0" d="M160.92,190.24c0.92-0.53,1.63-1.72,1.63-2.89c0-1.21-0.58-1.55-1.64-0.93c-0.62,0.36-1.35,1.13-1.97,2.33
		C159.09,190.38,159.8,190.89,160.92,190.24z"/>
	<path class="st0" d="M110.18,109.32c0,0.23,0,0.45,0,0.68c1.8-1.04,3.61-2.08,5.41-3.13c0-0.33,0-0.66,0-0.99
		c-0.84,0.49-1.69,0.97-2.53,1.46c-0.46,0.26-0.95,0.59-1.43,0.91c2.1-3.41,3.55-5.9,3.55-7.57c0-1.57-0.96-2.06-2.51-1.17
		c-1.09,0.63-1.84,1.61-2.53,2.81c0.19,0.11,0.38,0.22,0.57,0.33c0.49-0.88,1.12-1.72,1.84-2.14c1.13-0.65,1.68-0.24,1.68,0.77
		C114.22,102.76,112.78,105.15,110.18,109.32z"/>
	<path class="st0" d="M65.18,154.52c1.76-1.02,2.76-2.64,2.76-3.96c0-1.27-0.66-1.44-1.51-1.47c0.64-0.91,1.17-1.98,1.17-2.82
		c0-1.38-0.88-1.86-2.39-0.99c-1.37,0.79-2.38,2.29-2.38,3.66c0,0.93,0.53,1.31,1.17,1.43c-0.82,0.95-1.65,2.12-1.65,3.35
		C62.36,155.12,63.45,155.52,65.18,154.52z"/>
	<path class="st0" d="M129.08,246.29c1.37-0.79,2.57-2.64,2.57-4.34c0-1.82-0.98-2.18-2.4-1.36c-0.77,0.45-1.56,1.34-2.18,2.42
		c0.05-2.88,1.12-4.46,2.35-5.17c0.58-0.33,1.13-0.39,1.53-0.19c0.18-0.34,0.37-0.69,0.55-1.03c-0.51-0.25-1.21-0.25-2.15,0.29
		c-1.68,0.97-3.22,3.24-3.22,6.8C126.14,246.57,127.41,247.26,129.08,246.29z"/>
	<path class="st0" d="M33.1,186.94c0.6-0.35,1.34-1.12,1.97-2.32c-0.16-1.64-0.84-2.16-1.98-1.5c-0.92,0.53-1.63,1.72-1.63,2.89
		C31.46,187.22,32.02,187.56,33.1,186.94z"/>
	<path class="st0" d="M49.5,181.05c0.92-0.53,1.63-1.72,1.63-2.89c0-1.21-0.58-1.55-1.64-0.93c-0.62,0.36-1.35,1.13-1.97,2.33
		C47.66,181.19,48.37,181.7,49.5,181.05z"/>
	<path class="st0" d="M112.91,123.16c-0.4,0.23-0.75,0.08-0.75-0.5c0-0.57,0.35-1.12,0.75-1.35c0.4-0.23,0.75-0.08,0.75,0.49
		C113.66,122.38,113.31,122.93,112.91,123.16z"/>
	<path class="st0" d="M97,154.53c-1.71,0.99-2.76-0.09-2.76-3.04c0-2.98,1.05-5.19,2.76-6.18c1.71-0.99,2.76,0.01,2.76,2.99
		C99.76,151.26,98.71,153.55,97,154.53z"/>
	<path class="st0" d="M33.35,228.04c1.76-1.02,2.76-2.64,2.76-3.96c0-1.27-0.66-1.44-1.51-1.47c0.64-0.91,1.17-1.98,1.17-2.82
		c0-1.38-0.88-1.86-2.39-0.99c-1.37,0.79-2.38,2.29-2.38,3.66c0,0.93,0.53,1.31,1.17,1.43c-0.82,0.95-1.65,2.12-1.65,3.35
		C30.53,228.64,31.61,229.04,33.35,228.04z"/>
	<path class="st0" d="M81.71,176.73c0.63-0.89,0.96-1.68,0.96-2.34c0-0.88-0.54-1.26-1.56-0.68c-0.86,0.49-1.45,1.41-1.45,2.27
		C79.67,177.04,80.56,176.97,81.71,176.73z"/>
	<path class="st0" d="M128.88,190.42c1.15-0.66,1.78-1.67,1.78-2.59c0-1.24-1.06-0.93-2.41-0.68c-0.75,0.91-1.31,1.8-1.31,2.69
		C126.94,190.83,127.7,191.1,128.88,190.42z"/>
	<path class="st0" d="M96.84,264.91c1.53-0.88,2.79-2.57,2.79-4.14c0-1.23-0.88-1.5-1.91-1.18c0.95-0.94,1.64-2.02,1.64-3.09
		c0-1.43-1.1-1.62-2.54-0.79c-0.99,0.57-1.82,1.52-2.46,2.53c0.18,0.14,0.35,0.28,0.53,0.42c0.51-0.82,1.17-1.58,1.89-2
		c0.94-0.54,1.57-0.36,1.57,0.5c0,0.93-0.7,2.06-2.52,3.11c0,0.29,0,0.58,0,0.88c2.03-1.17,2.8-0.91,2.8,0.15
		c0,0.99-0.8,2.09-1.84,2.69c-0.99,0.57-1.7,0.48-2.21,0.22c-0.17,0.35-0.34,0.7-0.51,1.04C94.63,265.58,95.51,265.67,96.84,264.91z
		"/>
	<path class="st0" d="M160.92,99.25c1.37-0.79,2.57-2.64,2.57-4.34c0-1.82-0.98-2.18-2.4-1.36c-0.77,0.45-1.56,1.34-2.18,2.42
		c0.05-2.88,1.12-4.46,2.35-5.17c0.58-0.33,1.13-0.39,1.53-0.19c0.18-0.34,0.37-0.69,0.55-1.03c-0.51-0.25-1.21-0.25-2.15,0.29
		c-1.68,0.97-3.22,3.24-3.22,6.8C157.98,99.53,159.24,100.22,160.92,99.25z"/>
	<path class="st0" d="M145.38,213.49c0.63-0.89,0.96-1.68,0.96-2.34c0-0.88-0.54-1.26-1.56-0.68c-0.86,0.49-1.45,1.41-1.45,2.27
		C143.34,213.8,144.23,213.73,145.38,213.49z"/>
	<path class="st0" d="M97,205.87c-0.4,0.23-0.75,0.08-0.75-0.5c0-0.57,0.35-1.12,0.75-1.35c0.4-0.23,0.75-0.08,0.75,0.49
		C97.74,205.09,97.39,205.64,97,205.87z"/>
	<path class="st0" d="M97,209.67c-1.71,0.99-2.76-0.09-2.76-3.04c0-2.98,1.05-5.19,2.76-6.18c1.71-0.99,2.76,0.01,2.76,2.99
		C99.76,206.4,98.71,208.69,97,209.67z"/>
	<path class="st0" d="M17.41,178.3c-0.4,0.23-0.75,0.08-0.75-0.5c0-0.57,0.35-1.12,0.75-1.35c0.4-0.23,0.75-0.08,0.75,0.49
		C18.16,177.52,17.81,178.07,17.41,178.3z"/>
	<path class="st0" d="M17.41,181.19c1.07-0.62,1.83-2.23,1.83-4.78c0-2.56-0.76-3.22-1.83-2.6c-1.07,0.62-1.83,2.16-1.83,4.72
		C15.57,181.07,16.33,181.81,17.41,181.19z"/>
	<path class="st0" d="M112.39,182.4c1.66-0.96,3.22-3.24,3.22-6.8c0-2.85-1.28-3.54-2.95-2.57c-1.36,0.79-2.56,2.63-2.56,4.33
		c0,1.82,0.96,2.19,2.39,1.36c0.78-0.45,1.56-1.33,2.18-2.4c-0.05,2.87-1.12,4.46-2.34,5.17c-0.59,0.34-1.15,0.38-1.53,0.17
		c-0.18,0.35-0.37,0.7-0.55,1.04C110.75,182.95,111.45,182.95,112.39,182.4z"/>
	<path class="st0" d="M160.5,62.73c1.47-0.85,2.85-2.73,2.85-4.65s-1.17-2.11-2.64-1.26c-0.59,0.34-0.98,0.7-1.42,1.18
		c0.07-0.92,0.14-1.83,0.21-2.75c1.16-0.67,2.32-1.34,3.47-2.01c0-0.33,0-0.66,0-0.99c-1.45,0.84-2.9,1.68-4.35,2.51
		c-0.08,1.47-0.17,2.95-0.25,4.42c0.18,0.03,0.35,0.06,0.53,0.08c0.54-0.66,0.93-1.08,1.57-1.45c1.15-0.66,1.89-0.37,1.89,0.86
		c0,1.24-0.87,2.53-1.95,3.16c-1.04,0.6-1.66,0.47-2.17,0.24c-0.16,0.35-0.33,0.69-0.49,1.04C158.31,63.39,159.12,63.53,160.5,62.73
		z"/>
	<path class="st0" d="M81.71,121.59c0.63-0.89,0.96-1.68,0.96-2.34c0-0.88-0.54-1.26-1.56-0.68c-0.86,0.49-1.45,1.41-1.45,2.27
		C79.67,121.9,80.56,121.83,81.71,121.59z"/>
	<path class="st0" d="M80.91,218.96c1.47-0.85,2.85-2.73,2.85-4.65c0-1.92-1.17-2.11-2.64-1.26c-0.59,0.34-0.98,0.7-1.42,1.18
		c0.07-0.92,0.14-1.83,0.21-2.75c1.16-0.67,2.32-1.34,3.47-2.01c0-0.33,0-0.66,0-0.99c-1.45,0.84-2.9,1.68-4.35,2.51
		c-0.08,1.47-0.17,2.95-0.25,4.42c0.18,0.03,0.35,0.06,0.53,0.08c0.54-0.66,0.93-1.08,1.57-1.45c1.15-0.66,1.89-0.37,1.89,0.86
		c0,1.24-0.87,2.53-1.95,3.16c-1.04,0.6-1.66,0.47-2.17,0.24c-0.16,0.35-0.33,0.69-0.49,1.04
		C78.73,219.62,79.53,219.76,80.91,218.96z"/>
	<path class="st0" d="M17.41,309.85c1.07-0.62,1.83-2.23,1.83-4.78c0-2.56-0.76-3.22-1.83-2.6c-1.07,0.62-1.83,2.16-1.83,4.72
		C15.57,309.73,16.33,310.47,17.41,309.85z"/>
	<path class="st0" d="M126.88,73.75c0,0.25,0,0.49,0,0.74c0.57-0.33,1.15-0.66,1.72-1c0,2.18,0,4.36,0,6.54
		c-0.74,0.43-1.48,0.85-2.22,1.28c0,0.32,0,0.63,0,0.95c1.74-1,3.48-2.01,5.22-3.01c0-0.32,0-0.63,0-0.95
		c-0.67,0.39-1.34,0.78-2.01,1.16c0-2.65,0-5.29,0-7.94c-0.25,0.14-0.49,0.28-0.74,0.42C128.36,72.54,127.78,73.09,126.88,73.75z"/>
	<path class="st0" d="M17.41,182.1c-1.71,0.99-2.76-0.09-2.76-3.04c0-2.98,1.05-5.19,2.76-6.18c1.71-0.99,2.76,0.01,2.76,2.99
		C20.17,178.83,19.12,181.12,17.41,182.1z"/>
	<path class="st0" d="M33.33,172.91c-1.71,0.99-2.76-0.09-2.76-3.04c0-2.98,1.05-5.19,2.76-6.18c1.71-0.99,2.76,0.01,2.76,2.99
		C36.09,169.64,35.04,171.93,33.33,172.91z"/>
	<path class="st0" d="M17.41,292.38c-1.71,0.99-2.76-0.09-2.76-3.04c0-2.98,1.05-5.19,2.76-6.18c1.71-0.99,2.76,0.01,2.76,2.99
		C20.17,289.11,19.12,291.4,17.41,292.38z"/>
	<path class="st0" d="M33.33,300.66c1.07-0.62,1.83-2.23,1.83-4.78c0-2.56-0.76-3.22-1.83-2.6s-1.83,2.16-1.83,4.72
		C31.49,300.54,32.25,301.28,33.33,300.66z"/>
	<path class="st0" d="M49.24,288.58c-0.4,0.23-0.75,0.08-0.75-0.5c0-0.57,0.35-1.12,0.75-1.35c0.4-0.23,0.75-0.08,0.75,0.49
		C49.99,287.8,49.64,288.35,49.24,288.58z"/>
	<path class="st0" d="M33.33,245.52c1.07-0.62,1.83-2.23,1.83-4.78c0-2.56-0.76-3.22-1.83-2.6c-1.07,0.62-1.83,2.16-1.83,4.72
		C31.49,245.4,32.25,246.14,33.33,245.52z"/>
	<path class="st0" d="M33.33,246.43c-1.71,0.99-2.76-0.09-2.76-3.04c0-2.98,1.05-5.19,2.76-6.18c1.71-0.99,2.76,0.01,2.76,2.99
		C36.09,243.16,35.04,245.45,33.33,246.43z"/>
	<path class="st0" d="M17.41,254.71c1.07-0.62,1.83-2.23,1.83-4.78c0-2.56-0.76-3.22-1.83-2.6c-1.07,0.62-1.83,2.16-1.83,4.72
		C15.57,254.59,16.33,255.33,17.41,254.71z"/>
	<path class="st0" d="M33.33,242.63c-0.4,0.23-0.75,0.08-0.75-0.5c0-0.57,0.35-1.12,0.75-1.35c0.4-0.23,0.75-0.08,0.75,0.49
		C34.07,241.85,33.72,242.4,33.33,242.63z"/>
	<path class="st0" d="M18.23,267.24c0,0.92,0,1.84,0,2.76c-0.96,0.55-1.91,1.1-2.87,1.66c0.7-1.41,1.39-2.83,2.09-4.24
		c0.25-0.58,0.54-1.18,0.81-1.76C18.26,266.13,18.24,266.74,18.23,267.24z"/>
	<path class="st0" d="M129.08,171.86c0.92-0.53,1.63-1.72,1.63-2.89c0-1.21-0.58-1.55-1.64-0.93c-0.61,0.36-1.35,1.13-1.97,2.33
		C127.25,172,127.96,172.51,129.08,171.86z"/>
	<path class="st0" d="M332.18,329.73c0.77-0.44,1.39-1.28,1.39-2.07c0-0.61-0.44-0.75-0.95-0.59c0.48-0.47,0.82-1.01,0.82-1.55
		c0-0.72-0.55-0.81-1.27-0.39c-0.49,0.29-0.91,0.76-1.23,1.27c0.09,0.07,0.18,0.14,0.27,0.21c0.25-0.41,0.58-0.79,0.95-1
		c0.47-0.27,0.78-0.18,0.78,0.25c0,0.47-0.35,1.03-1.26,1.56c0,0.15,0,0.29,0,0.44c1.01-0.58,1.4-0.45,1.4,0.08
		c0,0.49-0.4,1.04-0.92,1.35c-0.49,0.29-0.85,0.24-1.1,0.11c-0.08,0.17-0.17,0.35-0.25,0.52
		C331.08,330.07,331.52,330.12,332.18,329.73z"/>
	<path class="st0" d="M14.67,146.08c0,0.23,0,0.45,0,0.68c1.8-1.04,3.61-2.08,5.41-3.13c0-0.33,0-0.66,0-0.99
		c-0.84,0.49-1.69,0.97-2.53,1.46c-0.46,0.26-0.95,0.59-1.43,0.91c2.1-3.41,3.55-5.9,3.55-7.57c0-1.57-0.96-2.06-2.51-1.17
		c-1.09,0.63-1.84,1.61-2.53,2.81c0.19,0.11,0.38,0.22,0.57,0.33c0.49-0.88,1.12-1.72,1.85-2.14c1.13-0.65,1.68-0.24,1.68,0.77
		C18.71,139.52,17.28,141.91,14.67,146.08z"/>
	<path class="st0" d="M32.43,265.16c0.35-0.2,0.69-0.4,1.04-0.6c0.11-3.54,0.62-5.84,2.65-9.71c0-0.24,0-0.47,0-0.71
		c-1.86,1.07-3.71,2.14-5.57,3.22c0,0.33,0,0.66,0,0.99c1.48-0.85,2.96-1.71,4.44-2.56C33.23,259.3,32.57,261.72,32.43,265.16z"/>
	<path class="st0" d="M65.21,245.56c1.15-0.66,1.78-1.67,1.78-2.59c0-1.24-1.06-0.93-2.41-0.68c-0.75,0.91-1.31,1.8-1.31,2.69
		C63.27,245.97,64.03,246.24,65.21,245.56z"/>
	<path class="st0" d="M80.19,274.35c0.35-0.2,0.69-0.4,1.04-0.6c0.11-3.54,0.61-5.84,2.65-9.71c0-0.24,0-0.47,0-0.71
		c-1.86,1.07-3.71,2.14-5.57,3.22c0,0.33,0,0.66,0,0.99c1.48-0.85,2.96-1.71,4.44-2.56C80.98,268.49,80.32,270.91,80.19,274.35z"/>
	<polygon class="st0" points="145.57,234.15 141.6,236.44 141.6,235.68 145.45,227.79 146.51,227.18 146.51,232.69 147.7,232 
		147.7,232.92 146.51,233.61 146.51,236.06 145.57,236.6 	"/>
	<path class="st0" d="M47.29,248.36c0,0.25,0,0.49,0,0.74c0.57-0.33,1.15-0.66,1.72-1c0,2.18,0,4.36,0,6.54
		c-0.74,0.43-1.48,0.85-2.22,1.28c0,0.32,0,0.63,0,0.95c1.74-1,3.48-2.01,5.22-3.01c0-0.32,0-0.63,0-0.95
		c-0.67,0.39-1.34,0.78-2.01,1.16c0-2.65,0-5.29,0-7.94c-0.25,0.14-0.49,0.28-0.74,0.42C48.77,247.15,48.19,247.69,47.29,248.36z"/>
	<path class="st0" d="M129.08,172.77c1.37-0.79,2.57-2.64,2.57-4.34c0-1.82-0.98-2.18-2.4-1.36c-0.77,0.45-1.56,1.34-2.18,2.42
		c0.05-2.88,1.12-4.46,2.35-5.17c0.58-0.33,1.13-0.39,1.53-0.19c0.18-0.34,0.37-0.69,0.55-1.03c-0.51-0.25-1.21-0.25-2.15,0.29
		c-1.68,0.97-3.22,3.24-3.22,6.8C126.14,173.05,127.41,173.74,129.08,172.77z"/>
	<path class="st0" d="M17.41,310.76c-1.71,0.99-2.76-0.09-2.76-3.04c0-2.98,1.05-5.19,2.76-6.18s2.76,0.01,2.76,2.99
		C20.17,307.49,19.12,309.78,17.41,310.76z"/>
	<path class="st0" d="M81.08,159.92c-0.4,0.23-0.75,0.08-0.75-0.5c0-0.57,0.35-1.12,0.75-1.35c0.4-0.23,0.75-0.08,0.75,0.49
		C81.83,159.14,81.48,159.69,81.08,159.92z"/>
	<path class="st0" d="M62.42,210.41c0,0.23,0,0.45,0,0.68c1.8-1.04,3.61-2.08,5.41-3.13c0-0.33,0-0.66,0-0.99
		c-0.84,0.49-1.69,0.97-2.53,1.46c-0.46,0.26-0.95,0.59-1.43,0.91c2.1-3.41,3.55-5.9,3.55-7.57c0-1.57-0.96-2.06-2.51-1.17
		c-1.09,0.63-1.84,1.61-2.53,2.81c0.19,0.11,0.38,0.22,0.57,0.33c0.49-0.88,1.12-1.72,1.84-2.14c1.13-0.65,1.68-0.24,1.68,0.77
		C66.46,203.85,65.03,206.24,62.42,210.41z"/>
	<g>
		<line class="st1" x1="343.27" y1="329.7" x2="327.35" y2="320.51"/>
		<line class="st2" x1="438.77" y1="256.18" x2="311.43" y2="329.7"/>
		<line class="st2" x1="375.1" y1="421.6" x2="375.1" y2="274.56"/>
		<line class="st1" x1="215.93" y1="256.18" x2="24.92" y2="145.9"/>
		<line class="st2" x1="438.77" y1="311.32" x2="311.43" y2="384.84"/>
		<line class="st2" x1="168.18" y1="63.19" x2="9" y2="155.09"/>
		<line class="st2" x1="104.51" y1="265.37" x2="104.51" y2="81.57"/>
		<line class="st2" x1="438.77" y1="329.7" x2="311.43" y2="403.22"/>
		<line class="st3" x1="9" y1="320.51" x2="168.18" y2="228.61"/>
		<line class="st3" x1="9" y1="136.71" x2="9" y2="320.51"/>
		<line class="st3" x1="168.18" y1="44.81" x2="9" y2="136.71"/>
		<line class="st2" x1="168.18" y1="81.57" x2="9" y2="173.47"/>
		<line class="st3" x1="168.18" y1="228.61" x2="168.18" y2="44.81"/>
		<line class="st2" x1="168.18" y1="136.71" x2="9" y2="228.61"/>
		<line class="st2" x1="438.77" y1="366.46" x2="311.43" y2="439.98"/>
		<line class="st2" x1="263.68" y1="246.99" x2="215.93" y2="274.56"/>
		<line class="st2" x1="168.18" y1="99.95" x2="9" y2="191.85"/>
		<line class="st1" x1="343.27" y1="311.32" x2="247.76" y2="256.18"/>
		<line class="st2" x1="72.67" y1="283.75" x2="72.67" y2="173.47"/>
		<line class="st2" x1="88.59" y1="274.56" x2="88.59" y2="90.76"/>
		<line class="st2" x1="406.94" y1="403.22" x2="406.94" y2="256.18"/>
		<line class="st2" x1="168.18" y1="173.47" x2="9" y2="265.37"/>
		<line class="st4" x1="263.68" y1="228.61" x2="215.93" y2="256.18"/>
		<line class="st4" x1="215.93" y1="311.32" x2="263.68" y2="283.75"/>
		<line class="st1" x1="263.68" y1="228.61" x2="72.67" y2="118.33"/>
		<line class="st1" x1="231.9" y1="265.4" x2="215.93" y2="256.18"/>
		<line class="st2" x1="327.35" y1="449.17" x2="327.35" y2="302.13"/>
		<line class="st2" x1="422.86" y1="394.03" x2="422.86" y2="246.99"/>
		<line class="st2" x1="24.92" y1="311.32" x2="24.92" y2="127.52"/>
		<line class="st2" x1="168.18" y1="118.33" x2="9" y2="210.23"/>
		<line class="st2" x1="56.75" y1="292.94" x2="56.75" y2="109.14"/>
		<line class="st2" x1="168.18" y1="191.85" x2="9" y2="283.75"/>
		<line class="st2" x1="136.34" y1="246.99" x2="136.34" y2="63.19"/>
		<line class="st2" x1="168.18" y1="210.23" x2="9" y2="302.13"/>
		<line class="st2" x1="231.85" y1="302.13" x2="231.85" y2="246.99"/>
		<line class="st2" x1="152.26" y1="237.8" x2="152.26" y2="54"/>
		<line class="st2" x1="40.84" y1="302.13" x2="40.84" y2="118.33"/>
		<line class="st2" x1="247.76" y1="292.94" x2="247.76" y2="237.8"/>
		<line class="st2" x1="438.77" y1="292.94" x2="311.43" y2="366.46"/>
		<line class="st2" x1="438.77" y1="348.08" x2="311.43" y2="421.6"/>
		<line class="st2" x1="359.19" y1="430.79" x2="359.19" y2="283.75"/>
		<line class="st2" x1="343.27" y1="439.98" x2="343.27" y2="292.94"/>
		<line class="st2" x1="438.77" y1="274.56" x2="311.43" y2="348.08"/>
		<line class="st2" x1="391.02" y1="412.41" x2="391.02" y2="265.37"/>
		<line class="st1" x1="327.35" y1="320.51" x2="231.85" y2="265.37"/>
		<line class="st1" x1="327.35" y1="338.89" x2="231.85" y2="283.75"/>
		<line class="st2" x1="168.18" y1="155.09" x2="9" y2="246.99"/>
		<line class="st2" x1="263.68" y1="265.37" x2="215.93" y2="292.94"/>
		<line class="st2" x1="120.42" y1="256.18" x2="120.42" y2="72.38"/>
		<line class="st4" x1="215.93" y1="256.18" x2="215.93" y2="311.32"/>
		<line class="st1" x1="215.93" y1="311.32" x2="24.92" y2="201.04"/>
		<line class="st4" x1="263.68" y1="283.75" x2="263.68" y2="228.61"/>
		<line class="st2" x1="72.67" y1="118.33" x2="72.67" y2="99.95"/>
		<line class="st3" x1="231.9" y1="265.4" x2="247.76" y2="256.18"/>
		<line class="st3" x1="231.9" y1="265.4" x2="231.85" y2="283.75"/>
		<line class="st3" x1="231.85" y1="283.75" x2="247.52" y2="274.7"/>
		<line class="st3" x1="247.76" y1="256.18" x2="247.52" y2="274.7"/>
		<line class="st3" x1="327.35" y1="320.51" x2="343.21" y2="311.29"/>
		<line class="st3" x1="327.35" y1="320.51" x2="327.3" y2="338.86"/>
		<line class="st3" x1="327.3" y1="338.86" x2="342.97" y2="329.81"/>
		<line class="st3" x1="343.21" y1="311.29" x2="342.97" y2="329.81"/>
	</g>
	<line class="st4" x1="72.67" y1="173.47" x2="72.67" y2="118.33"/>
	<polygon class="st3" points="311.43,458.36 438.77,384.84 438.77,237.8 311.43,311.32 	"/>
	<line class="st4" x1="24.92" y1="145.9" x2="72.67" y2="118.33"/>
	<line class="st4" x1="24.92" y1="145.9" x2="24.92" y2="201.04"/>
	<line class="st4" x1="24.92" y1="201.04" x2="72.67" y2="173.47"/>
</g>
<g>
	<g>
		<polygon class="st2" points="1039.96,394.81 1053.64,386.91 1053.64,402.71 1039.96,410.61 		"/>
		<polyline class="st2" points="603.54,36.62 603.54,24.51 466.68,103.52 466.68,261.55 477.18,255.49 		"/>
		<polyline class="st2" points="593.05,30.56 593.05,18.45 456.19,97.46 456.19,255.49 466.68,249.43 		"/>
		<polyline class="st2" points="582.56,24.51 582.56,12.39 445.7,91.41 445.7,249.43 456.19,243.38 		"/>
		<polyline class="st2" points="725.76,136.98 725.76,124.87 616.28,188.08 616.28,314.5 626.77,308.44 		"/>
		<polyline class="st2" points="715.27,130.93 715.27,118.81 605.79,182.02 605.79,308.44 616.28,302.39 		"/>
		<polyline class="st2" points="704.78,124.87 704.78,112.75 595.29,175.97 595.29,302.39 605.79,296.33 		"/>
		<polyline class="st2" points="694.29,118.81 694.29,106.7 584.8,169.91 584.8,296.33 595.29,290.27 		"/>
		<polyline class="st2" points="736.25,143.04 736.25,130.93 626.77,194.14 626.77,320.56 637.26,314.5 		"/>
		<polygon class="st2" points="637.26,326.62 746.75,263.41 746.75,136.98 637.26,200.19 		"/>
		<line class="st2" x1="1069.71" y1="297.73" x2="1080.21" y2="303.79"/>
		<polygon class="st2" points="1080.21,303.79 1093.89,295.89 1093.89,311.69 1080.21,319.59 		"/>
		<line class="st2" x1="1042.34" y1="313.53" x2="1052.83" y2="319.59"/>
		<polygon class="st2" points="1052.83,319.59 1066.52,311.69 1066.52,327.49 1052.83,335.39 		"/>
		<line class="st2" x1="1014.97" y1="329.33" x2="1025.46" y2="335.39"/>
		<polygon class="st2" points="1025.46,335.39 1039.15,327.49 1039.15,343.29 1025.46,351.2 		"/>
		<line class="st2" x1="960.23" y1="360.94" x2="970.72" y2="367"/>
		<polygon class="st2" points="970.72,367 984.41,359.1 984.41,374.9 970.72,382.8 		"/>
		<line class="st2" x1="987.6" y1="345.14" x2="998.09" y2="351.2"/>
		<polygon class="st2" points="998.09,351.2 1011.78,343.29 1011.78,359.1 998.09,367 		"/>
		<line class="st2" x1="1076.96" y1="327.44" x2="1087.45" y2="333.5"/>
		<polygon class="st2" points="1087.45,333.5 1101.14,325.59 1101.14,341.4 1087.45,349.3 		"/>
		<line class="st2" x1="1049.59" y1="343.24" x2="1060.08" y2="349.3"/>
		<polygon class="st2" points="1060.08,349.3 1073.77,341.4 1073.77,357.2 1060.08,365.1 		"/>
		<line class="st2" x1="1022.22" y1="359.04" x2="1032.71" y2="365.1"/>
		<polygon class="st2" points="1032.71,365.1 1046.39,357.2 1046.39,373 1032.71,380.9 		"/>
		<line class="st2" x1="967.48" y1="390.65" x2="977.97" y2="396.71"/>
		<polygon class="st2" points="977.97,396.71 991.65,388.8 991.65,404.61 977.97,412.51 		"/>
		<line class="st2" x1="994.85" y1="374.85" x2="1005.34" y2="380.9"/>
		<polygon class="st2" points="1005.34,380.9 1019.02,373 1019.02,388.8 1005.34,396.71 		"/>
		<line class="st2" x1="1104.33" y1="311.64" x2="1114.82" y2="317.69"/>
		<polygon class="st2" points="1114.82,317.69 1128.51,309.79 1128.51,325.59 1114.82,333.5 		"/>
		<line class="st2" x1="1111.58" y1="341.34" x2="1122.07" y2="347.4"/>
		<polygon class="st2" points="1122.07,347.4 1135.75,339.5 1135.75,355.3 1122.07,363.2 		"/>
		<line class="st2" x1="1084.21" y1="357.15" x2="1094.7" y2="363.2"/>
		<polygon class="st2" points="1094.7,363.2 1108.38,355.3 1108.38,371.1 1094.7,379.01 		"/>
		<line class="st2" x1="1056.83" y1="372.95" x2="1067.33" y2="379.01"/>
		<polygon class="st2" points="1067.33,379.01 1081.01,371.1 1081.01,386.91 1067.33,394.81 		"/>
		<line class="st2" x1="1002.09" y1="404.55" x2="1012.58" y2="410.61"/>
		<polygon class="st2" points="1012.58,410.61 1026.27,402.71 1026.27,418.51 1012.58,426.41 		"/>
		<line class="st2" x1="1029.46" y1="388.75" x2="1039.96" y2="394.81"/>
		<polygon class="st2" points="614.03,30.56 477.18,109.58 477.18,267.61 614.03,188.59 		"/>
		<line class="st2" x1="1118.82" y1="371.05" x2="1129.31" y2="377.11"/>
		<polygon class="st2" points="1129.31,377.11 1143,369.21 1143,385.01 1129.31,392.91 		"/>
		<line class="st2" x1="1091.45" y1="386.85" x2="1101.94" y2="392.91"/>
		<polygon class="st2" points="1101.94,392.91 1115.63,385.01 1115.63,400.81 1101.94,408.71 		"/>
		<polyline class="st2" points="844.13,210.09 844.13,197.97 791.42,228.4 791.42,289.26 801.92,283.21 		"/>
		<polyline class="st2" points="833.64,204.03 833.64,191.92 780.93,222.35 780.93,283.21 791.42,277.15 		"/>
		<polyline class="st2" points="854.62,216.15 854.62,204.03 801.92,234.46 801.92,295.32 812.41,289.26 		"/>
		<polyline class="st2" points="865.11,222.2 865.11,210.09 812.41,240.52 812.41,301.38 822.9,295.32 		"/>
		<polyline class="st2" points="833.39,252.92 833.64,252.78 833.64,252.49 		"/>
		<polyline class="st2" points="875.6,228.26 875.6,216.15 822.9,246.58 822.9,307.44 833.39,301.38 		"/>
		<polyline class="st2" points="843.88,258.98 844.13,258.83 844.13,258.55 		"/>
		<polyline class="st2" points="886.1,234.32 886.1,222.2 833.39,252.63 833.39,313.49 843.88,307.44 		"/>
		<polyline class="st2" points="854.37,265.03 854.62,264.89 854.62,264.61 		"/>
		<polyline class="st2" points="896.59,240.38 896.59,228.26 843.88,258.69 843.88,319.55 854.37,313.49 		"/>
		<polyline class="st2" points="864.87,271.09 865.11,270.95 865.11,270.66 		"/>
		<polyline class="st2" points="875.36,277.15 875.6,277.01 875.6,276.72 		"/>
		<polyline class="st2" points="907.08,246.43 907.08,234.32 854.37,264.75 854.37,325.61 864.87,319.55 		"/>
		<polyline class="st2" points="917.57,252.49 917.57,240.38 864.87,270.81 864.87,331.67 875.36,325.61 		"/>
		<polyline class="st2" points="885.85,283.21 886.1,283.06 886.1,282.78 		"/>
		<polyline class="st2" points="928.06,258.55 928.06,246.43 875.36,276.86 875.36,337.72 885.85,331.67 		"/>
		<polyline class="st2" points="896.34,289.26 896.59,289.12 896.59,288.83 		"/>
		<polyline class="st2" points="949.05,270.66 949.05,258.55 896.34,288.98 896.34,349.84 906.83,343.78 		"/>
		<polyline class="st2" points="938.56,264.61 938.56,252.49 885.85,282.92 885.85,343.78 896.34,337.72 		"/>
		<polyline class="st2" points="906.83,295.32 907.08,295.18 907.08,294.89 		"/>
		<polyline class="st2" points="917.32,301.38 917.57,301.24 917.57,300.95 		"/>
		<polyline class="st2" points="959.54,276.72 959.54,264.61 906.83,295.04 906.83,355.89 917.32,349.84 		"/>
		<polygon class="st2" points="917.32,361.95 970.03,331.52 970.03,270.66 917.32,301.09 		"/>
		<polyline class="st2" points="1080.21,319.59 1069.71,313.53 1069.71,297.73 1083.4,289.83 1093.89,295.89 		"/>
		<polyline class="st2" points="1101.94,408.71 1091.45,402.66 1091.45,386.85 1105.14,378.95 1115.63,385.01 		"/>
		<polyline class="st2" points="1052.83,335.39 1042.34,329.33 1042.34,313.53 1056.03,305.63 1066.52,311.69 		"/>
		<polyline class="st2" points="1129.31,392.91 1118.82,386.85 1118.82,371.05 1132.51,363.15 1143,369.21 		"/>
		<polyline class="st2" points="1025.46,351.2 1014.97,345.14 1014.97,329.33 1028.66,321.43 1039.15,327.49 		"/>
		<polyline class="st2" points="1039.96,410.61 1029.46,404.55 1029.46,388.75 1043.15,380.85 1053.64,386.91 		"/>
		<polyline class="st2" points="970.72,382.8 960.23,376.74 960.23,360.94 973.91,353.04 984.41,359.1 		"/>
		<polyline class="st2" points="1012.58,426.41 1002.09,420.36 1002.09,404.55 1015.78,396.65 1026.27,402.71 		"/>
		<polyline class="st2" points="998.09,367 987.6,360.94 987.6,345.14 1001.29,337.24 1011.78,343.29 		"/>
		<polyline class="st2" points="1067.33,394.81 1056.83,388.75 1056.83,372.95 1070.52,365.05 1081.01,371.1 		"/>
		<polyline class="st2" points="1087.45,349.3 1076.96,343.24 1076.96,327.44 1090.65,319.54 1101.14,325.59 		"/>
		<polyline class="st2" points="1094.7,379.01 1084.21,372.95 1084.21,357.15 1097.89,349.24 1108.38,355.3 		"/>
		<polyline class="st2" points="1060.08,365.1 1049.59,359.04 1049.59,343.24 1063.27,335.34 1073.77,341.4 		"/>
		<polyline class="st2" points="1122.07,363.2 1111.58,357.15 1111.58,341.34 1125.26,333.44 1135.75,339.5 		"/>
		<polyline class="st2" points="1032.71,380.9 1022.22,374.85 1022.22,359.04 1035.9,351.14 1046.39,357.2 		"/>
		<polyline class="st2" points="1114.82,333.5 1104.33,327.44 1104.33,311.64 1118.02,303.73 1128.51,309.79 		"/>
		<polyline class="st2" points="977.97,412.51 967.48,406.45 967.48,390.65 981.16,382.75 991.65,388.8 		"/>
		<polyline class="st2" points="1005.34,396.71 994.85,390.65 994.85,374.85 1008.53,366.94 1019.02,373 		"/>
	</g>
	<g>
		<polygon class="st3" points="803.23,251.69 816.92,243.79 816.92,259.59 803.23,267.5 		"/>
		<line class="st3" x1="729.62" y1="231.74" x2="740.11" y2="237.79"/>
		<line class="st3" x1="708.04" y1="244.19" x2="718.53" y2="250.25"/>
		<line class="st3" x1="708.04" y1="269.11" x2="718.53" y2="275.16"/>
		<line class="st3" x1="719.13" y1="250.59" x2="729.62" y2="256.65"/>
		<line class="st3" x1="719.13" y1="225.68" x2="729.62" y2="231.74"/>
		<line class="st3" x1="697.55" y1="238.14" x2="708.04" y2="244.19"/>
		<line class="st3" x1="697.55" y1="263.05" x2="708.04" y2="269.11"/>
		<line class="st3" x1="490.86" y1="164.89" x2="459.39" y2="146.72"/>
		<line class="st3" x1="708.63" y1="244.54" x2="719.13" y2="250.59"/>
		<line class="st3" x1="708.63" y1="219.62" x2="719.13" y2="225.68"/>
		<line class="st3" x1="687.06" y1="232.08" x2="697.55" y2="238.14"/>
		<line class="st3" x1="687.06" y1="256.99" x2="697.55" y2="263.05"/>
		<line class="st3" x1="490.86" y1="117.48" x2="459.39" y2="99.31"/>
		<line class="st3" x1="698.14" y1="238.48" x2="708.63" y2="244.54"/>
		<line class="st3" x1="698.14" y1="213.56" x2="708.63" y2="219.62"/>
		<line class="st3" x1="676.57" y1="226.02" x2="687.06" y2="232.08"/>
		<line class="st3" x1="676.57" y1="250.94" x2="687.06" y2="256.99"/>
		<line class="st3" x1="531.92" y1="93.78" x2="500.44" y2="75.6"/>
		<line class="st3" x1="687.65" y1="232.42" x2="698.14" y2="238.48"/>
		<line class="st3" x1="687.65" y1="207.51" x2="698.14" y2="213.56"/>
		<line class="st3" x1="666.07" y1="244.88" x2="676.57" y2="250.94"/>
		<line class="st3" x1="677.16" y1="226.36" x2="687.65" y2="232.42"/>
		<line class="st3" x1="677.16" y1="201.45" x2="687.65" y2="207.51"/>
		<line class="st3" x1="655.58" y1="238.82" x2="666.07" y2="244.88"/>
		<line class="st3" x1="654.14" y1="209.94" x2="664.63" y2="216"/>
		<polygon class="st3" points="650.95,208.1 664.63,200.19 664.63,216 650.95,223.9 		"/>
		<line class="st3" x1="654.14" y1="194.14" x2="664.63" y2="200.19"/>
		<line class="st3" x1="640.45" y1="217.84" x2="650.95" y2="223.9"/>
		<line class="st3" x1="640.45" y1="202.04" x2="650.95" y2="208.1"/>
		<polygon class="st3" points="640.45,202.04 654.14,194.14 654.14,209.94 640.45,217.84 		"/>
		<line class="st3" x1="643.65" y1="203.88" x2="654.14" y2="209.94"/>
		<line class="st3" x1="643.65" y1="188.08" x2="654.14" y2="194.14"/>
		<line class="st3" x1="629.96" y1="211.78" x2="640.45" y2="217.84"/>
		<line class="st3" x1="629.96" y1="195.98" x2="640.45" y2="202.04"/>
		<polygon class="st3" points="629.96,195.98 643.65,188.08 643.65,203.88 629.96,211.78 		"/>
		<line class="st3" x1="633.16" y1="197.83" x2="643.65" y2="203.88"/>
		<line class="st3" x1="633.16" y1="182.02" x2="643.65" y2="188.08"/>
		<line class="st3" x1="619.47" y1="205.73" x2="629.96" y2="211.78"/>
		<line class="st3" x1="619.47" y1="189.92" x2="629.96" y2="195.98"/>
		<polygon class="st3" points="619.47,189.92 633.16,182.02 633.16,197.83 619.47,205.73 		"/>
		<line class="st3" x1="622.67" y1="191.77" x2="633.16" y2="197.83"/>
		<line class="st3" x1="622.67" y1="175.97" x2="633.16" y2="182.02"/>
		<line class="st3" x1="608.98" y1="199.67" x2="619.47" y2="205.73"/>
		<line class="st3" x1="608.98" y1="183.87" x2="619.47" y2="189.92"/>
		<polygon class="st3" points="608.98,183.87 622.67,175.97 622.67,191.77 608.98,199.67 		"/>
		<line class="st3" x1="612.17" y1="185.71" x2="622.67" y2="191.77"/>
		<line class="st3" x1="612.17" y1="169.91" x2="622.67" y2="175.97"/>
		<line class="st3" x1="598.49" y1="193.61" x2="608.98" y2="199.67"/>
		<line class="st3" x1="598.49" y1="177.81" x2="608.98" y2="183.87"/>
		<polygon class="st3" points="598.49,177.81 612.17,169.91 612.17,185.71 598.49,193.61 		"/>
		<line class="st3" x1="655.58" y1="213.91" x2="666.07" y2="219.96"/>
		<line class="st3" x1="666.07" y1="219.96" x2="676.57" y2="226.02"/>
		<line class="st3" x1="932.33" y1="326.23" x2="942.82" y2="332.28"/>
		<line class="st3" x1="918.64" y1="318.32" x2="929.14" y2="324.38"/>
		<polygon class="st3" points="929.14,324.38 942.82,316.48 942.82,332.28 929.14,340.18 		"/>
		<line class="st3" x1="932.33" y1="310.42" x2="942.82" y2="316.48"/>
		<line class="st3" x1="918.64" y1="334.13" x2="929.14" y2="340.18"/>
		<line class="st3" x1="921.84" y1="320.17" x2="932.33" y2="326.23"/>
		<line class="st3" x1="908.15" y1="312.27" x2="918.64" y2="318.32"/>
		<polygon class="st3" points="918.64,318.32 932.33,310.42 932.33,326.23 918.64,334.13 		"/>
		<line class="st3" x1="921.84" y1="304.37" x2="932.33" y2="310.42"/>
		<line class="st3" x1="908.15" y1="328.07" x2="918.64" y2="334.13"/>
		<line class="st3" x1="911.35" y1="314.11" x2="921.84" y2="320.17"/>
		<line class="st3" x1="897.66" y1="306.21" x2="908.15" y2="312.27"/>
		<polygon class="st3" points="908.15,312.27 921.84,304.37 921.84,320.17 908.15,328.07 		"/>
		<line class="st3" x1="911.35" y1="298.31" x2="921.84" y2="304.37"/>
		<line class="st3" x1="897.66" y1="322.01" x2="908.15" y2="328.07"/>
		<line class="st3" x1="900.85" y1="308.05" x2="911.35" y2="314.11"/>
		<line class="st3" x1="887.17" y1="300.15" x2="897.66" y2="306.21"/>
		<polygon class="st3" points="897.66,306.21 911.35,298.31 911.35,314.11 897.66,322.01 		"/>
		<line class="st3" x1="900.85" y1="292.25" x2="911.35" y2="298.31"/>
		<line class="st3" x1="887.17" y1="315.95" x2="897.66" y2="322.01"/>
		<line class="st3" x1="890.36" y1="302" x2="900.85" y2="308.05"/>
		<line class="st3" x1="876.68" y1="294.09" x2="887.17" y2="300.15"/>
		<polygon class="st3" points="887.17,300.15 900.85,292.25 900.85,308.05 887.17,315.95 		"/>
		<line class="st3" x1="890.36" y1="286.19" x2="900.85" y2="292.25"/>
		<line class="st3" x1="876.68" y1="309.9" x2="887.17" y2="315.95"/>
		<line class="st3" x1="879.87" y1="295.94" x2="890.36" y2="302"/>
		<line class="st3" x1="866.18" y1="288.04" x2="876.68" y2="294.09"/>
		<polygon class="st3" points="876.68,294.09 890.36,286.19 890.36,302 876.68,309.9 		"/>
		<line class="st3" x1="879.87" y1="280.14" x2="890.36" y2="286.19"/>
		<line class="st3" x1="866.18" y1="303.84" x2="876.68" y2="309.9"/>
		<line class="st3" x1="869.38" y1="289.88" x2="879.87" y2="295.94"/>
		<line class="st3" x1="855.69" y1="281.98" x2="866.18" y2="288.04"/>
		<polygon class="st3" points="866.18,288.04 879.87,280.14 879.87,295.94 866.18,303.84 		"/>
		<line class="st3" x1="869.38" y1="274.08" x2="879.87" y2="280.14"/>
		<line class="st3" x1="855.69" y1="297.78" x2="866.18" y2="303.84"/>
		<line class="st3" x1="858.89" y1="283.82" x2="869.38" y2="289.88"/>
		<line class="st3" x1="845.2" y1="275.92" x2="855.69" y2="281.98"/>
		<polygon class="st3" points="855.69,281.98 869.38,274.08 869.38,289.88 855.69,297.78 		"/>
		<line class="st3" x1="858.89" y1="268.02" x2="869.38" y2="274.08"/>
		<line class="st3" x1="845.2" y1="291.73" x2="855.69" y2="297.78"/>
		<line class="st3" x1="848.4" y1="277.77" x2="858.89" y2="283.82"/>
		<line class="st3" x1="834.71" y1="269.87" x2="845.2" y2="275.92"/>
		<line class="st3" x1="837.9" y1="271.71" x2="848.4" y2="277.77"/>
		<polygon class="st3" points="845.2,275.92 858.89,268.02 858.89,283.82 845.2,291.73 		"/>
		<line class="st3" x1="848.4" y1="261.96" x2="858.89" y2="268.02"/>
		<line class="st3" x1="834.71" y1="285.67" x2="845.2" y2="291.73"/>
		<polygon class="st3" points="834.71,269.87 848.4,261.96 848.4,277.77 834.71,285.67 		"/>
		<line class="st3" x1="837.9" y1="255.91" x2="848.4" y2="261.96"/>
		<line class="st3" x1="824.22" y1="279.61" x2="834.71" y2="285.67"/>
		<line class="st3" x1="824.22" y1="263.81" x2="834.71" y2="269.87"/>
		<polygon class="st3" points="824.22,263.81 837.9,255.91 837.9,271.71 824.22,279.61 		"/>
		<line class="st3" x1="827.41" y1="265.65" x2="837.9" y2="271.71"/>
		<line class="st3" x1="827.41" y1="249.85" x2="837.9" y2="255.91"/>
		<line class="st3" x1="813.73" y1="273.55" x2="824.22" y2="279.61"/>
		<line class="st3" x1="813.73" y1="257.75" x2="824.22" y2="263.81"/>
		<polygon class="st3" points="813.73,257.75 827.41,249.85 827.41,265.65 813.73,273.55 		"/>
		<line class="st3" x1="816.92" y1="259.59" x2="827.41" y2="265.65"/>
		<line class="st3" x1="816.92" y1="243.79" x2="827.41" y2="249.85"/>
		<line class="st3" x1="803.23" y1="267.5" x2="813.73" y2="273.55"/>
		<line class="st3" x1="803.23" y1="251.69" x2="813.73" y2="257.75"/>
		<line class="st3" x1="806.43" y1="253.54" x2="816.92" y2="259.59"/>
		<line class="st3" x1="806.43" y1="237.73" x2="816.92" y2="243.79"/>
		<line class="st3" x1="792.74" y1="261.44" x2="803.23" y2="267.5"/>
		<line class="st3" x1="792.74" y1="245.64" x2="803.23" y2="251.69"/>
		<polygon class="st3" points="792.74,245.64 806.43,237.73 806.43,253.54 792.74,261.44 		"/>
		<line class="st3" x1="729.62" y1="256.65" x2="740.11" y2="262.71"/>
		<line class="st5" x1="984.81" y1="400.66" x2="1002.09" y2="407.6"/>
		<line class="st5" x1="984.81" y1="400.66" x2="1010.19" y2="399.88"/>
		<line class="st5" x1="1020.8" y1="399.56" x2="1029.46" y2="399.29"/>
		<line class="st5" x1="984.81" y1="400.66" x2="1033.41" y2="391.03"/>
		<line class="st5" x1="792.74" y1="245.64" x2="718.53" y2="250.25"/>
		<line class="st5" x1="718.53" y1="275.16" x2="792.74" y2="261.44"/>
		<line class="st5" x1="740.11" y1="262.71" x2="806.26" y2="253.63"/>
		<line class="st5" x1="740.11" y1="237.79" x2="806.43" y2="237.73"/>
		<line class="st5" x1="490.86" y1="164.89" x2="598.49" y2="193.61"/>
		<line class="st5" x1="531.92" y1="93.78" x2="612.17" y2="169.91"/>
		<line class="st5" x1="1094.29" y1="337.45" x2="1086.05" y2="356.08"/>
		<line class="st5" x1="1101.14" y1="327.53" x2="1104.33" y2="326.62"/>
		<line class="st5" x1="1101.14" y1="328.67" x2="1104.48" y2="327.52"/>
		<line class="st5" x1="1087.29" y1="333.4" x2="1088.07" y2="333.14"/>
		<line class="st5" x1="1100.83" y1="325.77" x2="1104.33" y2="325.08"/>
		<line class="st5" x1="1095.67" y1="322.44" x2="1104.33" y2="322.17"/>
		<line class="st5" x1="1094.29" y1="337.45" x2="1063.64" y2="369.02"/>
		<line class="st5" x1="1059.68" y1="323.54" x2="1085.06" y2="322.76"/>
		<line class="st5" x1="1087.05" y1="307.74" x2="1090.01" y2="319.9"/>
		<line class="st5" x1="1076.96" y1="330.55" x2="1072.49" y2="340.66"/>
		<line class="st5" x1="1073.77" y1="343.34" x2="1076.96" y2="342.42"/>
		<line class="st5" x1="1087.05" y1="307.74" x2="1078.06" y2="328.07"/>
		<line class="st5" x1="1032.31" y1="339.34" x2="1076.96" y2="330.5"/>
		<line class="st5" x1="1070.11" y1="339.28" x2="1076.96" y2="336.94"/>
		<line class="st5" x1="1073.46" y1="341.57" x2="1076.96" y2="340.88"/>
		<line class="st5" x1="1066.82" y1="337.38" x2="1076.96" y2="334.47"/>
		<line class="st5" x1="1068.3" y1="338.24" x2="1076.96" y2="337.98"/>
		<line class="st5" x1="1059.68" y1="323.54" x2="1076.96" y2="330.48"/>
		<line class="st5" x1="1059.68" y1="323.54" x2="1051.44" y2="342.17"/>
		<line class="st5" x1="1087.05" y1="307.74" x2="1056.4" y2="339.31"/>
		<line class="st5" x1="1087.05" y1="307.74" x2="1064.93" y2="336.29"/>
		<line class="st5" x1="1004.93" y1="355.15" x2="1052.73" y2="341.43"/>
		<line class="st5" x1="1032.31" y1="339.34" x2="1057.68" y2="338.57"/>
		<line class="st5" x1="1059.68" y1="323.54" x2="1062.64" y2="335.7"/>
		<line class="st5" x1="1049.59" y1="346.35" x2="1045.12" y2="356.46"/>
		<line class="st5" x1="1049.59" y1="346.32" x2="1041.67" y2="354.47"/>
		<line class="st5" x1="977.56" y1="370.95" x2="1049.59" y2="346.3"/>
		<line class="st5" x1="1004.93" y1="355.15" x2="1049.59" y2="346.3"/>
		<line class="st5" x1="1046.09" y1="357.38" x2="1049.59" y2="356.68"/>
		<line class="st5" x1="1039.45" y1="353.19" x2="1049.59" y2="350.28"/>
		<line class="st5" x1="1040.93" y1="354.04" x2="1049.59" y2="353.78"/>
		<line class="st5" x1="1032.31" y1="339.34" x2="1049.59" y2="346.29"/>
		<line class="st5" x1="1049.59" y1="356.09" x2="1046.39" y2="360.22"/>
		<line class="st5" x1="1032.31" y1="339.34" x2="1024.07" y2="357.98"/>
		<line class="st5" x1="1059.68" y1="323.54" x2="1029.03" y2="355.11"/>
		<line class="st5" x1="1087.05" y1="307.74" x2="1037.97" y2="352.34"/>
		<line class="st5" x1="1059.68" y1="323.54" x2="1037.56" y2="352.1"/>
		<line class="st5" x1="977.56" y1="370.95" x2="1025.35" y2="357.23"/>
		<line class="st5" x1="1004.93" y1="355.15" x2="1030.31" y2="354.37"/>
		<line class="st5" x1="1032.31" y1="339.34" x2="1035.27" y2="351.51"/>
		<line class="st5" x1="1022.22" y1="362.16" x2="1017.75" y2="372.27"/>
		<line class="st5" x1="1022.22" y1="362.13" x2="1014.3" y2="370.28"/>
		<line class="st5" x1="977.56" y1="370.95" x2="1022.22" y2="362.1"/>
		<line class="st5" x1="1013.56" y1="369.85" x2="1022.22" y2="369.58"/>
		<line class="st5" x1="1022.22" y1="366.66" x2="1016.71" y2="371.67"/>
		<line class="st5" x1="1004.93" y1="355.15" x2="1022.22" y2="362.09"/>
		<line class="st5" x1="1022.22" y1="371.9" x2="1019.02" y2="376.02"/>
		<line class="st5" x1="1022.22" y1="374.52" x2="1019.02" y2="377.81"/>
		<line class="st5" x1="977.56" y1="370.95" x2="1002.94" y2="370.17"/>
		<line class="st5" x1="1032.31" y1="339.34" x2="1010.19" y2="367.9"/>
		<line class="st5" x1="1004.93" y1="355.15" x2="1007.9" y2="367.31"/>
		<line class="st5" x1="977.56" y1="370.95" x2="994.85" y2="377.89"/>
		<line class="st5" x1="995.44" y1="390.99" x2="991.65" y2="394.44"/>
		<line class="st5" x1="994.85" y1="387.7" x2="991.65" y2="391.82"/>
		<line class="st5" x1="994.85" y1="390.32" x2="991.65" y2="393.61"/>
		<line class="st5" x1="1004.93" y1="355.15" x2="990.38" y2="388.07"/>
		<line class="st5" x1="977.56" y1="370.95" x2="980.53" y2="383.11"/>
		<line class="st5" x1="935.98" y1="328.33" x2="965.07" y2="358.15"/>
		<line class="st5" x1="935.98" y1="328.33" x2="987.6" y2="348.41"/>
		<line class="st5" x1="935.98" y1="328.33" x2="1014.97" y2="337.36"/>
		<line class="st5" x1="1034.03" y1="324.53" x2="1042.34" y2="324.21"/>
		<line class="st5" x1="935.98" y1="328.33" x2="1022.51" y2="324.98"/>
		<line class="st5" x1="935.98" y1="328.33" x2="1042.34" y2="313.83"/>
		<line class="st5" x1="1064.91" y1="310.76" x2="1069.71" y2="310.1"/>
		<line class="st5" x1="1087.05" y1="307.74" x2="1104.33" y2="314.68"/>
		<line class="st5" x1="1084.21" y1="360.26" x2="1079.74" y2="370.37"/>
		<line class="st5" x1="1056.83" y1="376.06" x2="1051.49" y2="388.15"/>
		<line class="st5" x1="1056.83" y1="376.03" x2="1048.92" y2="384.18"/>
		<line class="st5" x1="1012.18" y1="384.85" x2="1056.83" y2="376.01"/>
		<line class="st5" x1="1056.83" y1="388.42" x2="1053.64" y2="391.71"/>
		<line class="st5" x1="1056.83" y1="380.56" x2="1051.33" y2="385.57"/>
		<line class="st5" x1="1056.83" y1="385.8" x2="1053.64" y2="389.93"/>
		<line class="st5" x1="1039.55" y1="369.05" x2="1056.83" y2="375.99"/>
		<line class="st5" x1="1066.92" y1="353.25" x2="1058.68" y2="371.88"/>
		<line class="st5" x1="1101.54" y1="367.15" x2="1118.82" y2="374.1"/>
		<line class="st5" x1="1128.91" y1="351.35" x2="1131.88" y2="363.51"/>
		<line class="st5" x1="1128.91" y1="351.35" x2="1120.67" y2="369.98"/>
		<line class="st5" x1="1101.54" y1="367.15" x2="1104.51" y2="379.32"/>
		<line class="st5" x1="1115.63" y1="386.95" x2="1118.82" y2="386.03"/>
		<line class="st5" x1="1118.82" y1="374.17" x2="1114.35" y2="384.27"/>
		<line class="st5" x1="1115.32" y1="385.19" x2="1118.82" y2="384.49"/>
		<line class="st5" x1="1074.17" y1="382.96" x2="1099.55" y2="382.18"/>
		<line class="st5" x1="1110.16" y1="381.86" x2="1118.82" y2="381.59"/>
		<line class="st5" x1="1074.17" y1="382.96" x2="1091.45" y2="389.9"/>
		<line class="st5" x1="1046.8" y1="398.76" x2="1091.45" y2="389.91"/>
		<line class="st5" x1="1046.8" y1="398.76" x2="1091.45" y2="397.39"/>
		<line class="st5" x1="1019.43" y1="414.56" x2="1091.45" y2="393.89"/>
		<line class="st5" x1="1019.43" y1="414.56" x2="1091.45" y2="400.3"/>
		<line class="st5" x1="1012.18" y1="384.85" x2="1015.15" y2="397.02"/>
		<line class="st5" x1="1039.55" y1="369.05" x2="1024.99" y2="401.97"/>
		<line class="st5" x1="1030.06" y1="404.9" x2="1026.27" y2="408.34"/>
		<line class="st5" x1="1029.46" y1="404.22" x2="1026.27" y2="407.51"/>
		<line class="st5" x1="1029.46" y1="401.61" x2="1026.27" y2="405.73"/>
		<line class="st5" x1="1012.18" y1="384.85" x2="1029.46" y2="391.8"/>
		<line class="st5" x1="1012.18" y1="384.85" x2="1037.56" y2="384.08"/>
		<line class="st5" x1="1048.18" y1="383.75" x2="1056.83" y2="383.49"/>
		<line class="st5" x1="984.81" y1="400.66" x2="1032.6" y2="386.94"/>
		<line class="st5" x1="1053.34" y1="387.08" x2="1056.83" y2="386.39"/>
		<line class="st5" x1="1046.69" y1="382.9" x2="1056.83" y2="379.99"/>
		<line class="st5" x1="984.81" y1="400.66" x2="1056.83" y2="376.01"/>
		<line class="st5" x1="1039.55" y1="369.05" x2="1042.52" y2="381.21"/>
		<line class="st5" x1="1094.54" y1="363.11" x2="1095.32" y2="362.85"/>
		<line class="st5" x1="1066.92" y1="353.25" x2="1044.8" y2="381.8"/>
		<line class="st5" x1="1094.29" y1="337.45" x2="1111.58" y2="344.39"/>
		<line class="st5" x1="1121.67" y1="321.64" x2="1124.63" y2="333.81"/>
		<line class="st5" x1="1077.35" y1="368.99" x2="1084.21" y2="366.65"/>
		<line class="st5" x1="1121.67" y1="321.64" x2="1113.43" y2="340.28"/>
		<line class="st5" x1="1108.38" y1="357.24" x2="1111.58" y2="356.33"/>
		<line class="st5" x1="1111.58" y1="344.46" x2="1107.11" y2="354.57"/>
		<line class="st5" x1="1108.08" y1="355.48" x2="1111.58" y2="354.78"/>
		<line class="st5" x1="1121.67" y1="321.64" x2="1099.54" y2="350.2"/>
		<line class="st5" x1="1094.29" y1="337.45" x2="1097.26" y2="349.61"/>
		<line class="st5" x1="1066.92" y1="353.25" x2="1092.3" y2="352.47"/>
		<line class="st5" x1="1102.92" y1="352.15" x2="1111.58" y2="351.88"/>
		<line class="st5" x1="1121.67" y1="321.64" x2="1091.01" y2="353.22"/>
		<line class="st5" x1="1066.92" y1="353.25" x2="1084.21" y2="360.19"/>
		<line class="st5" x1="1084.21" y1="370" x2="1081.01" y2="374.12"/>
		<line class="st5" x1="1039.55" y1="369.05" x2="1084.21" y2="360.21"/>
		<line class="st5" x1="1094.29" y1="337.45" x2="1072.17" y2="366"/>
		<line class="st5" x1="1121.67" y1="321.64" x2="1072.59" y2="366.24"/>
		<line class="st5" x1="1066.92" y1="353.25" x2="1069.89" y2="365.41"/>
		<line class="st5" x1="1080.71" y1="371.28" x2="1084.21" y2="370.59"/>
		<line class="st5" x1="1039.55" y1="369.05" x2="1064.93" y2="368.27"/>
		<line class="st5" x1="1075.55" y1="367.95" x2="1084.21" y2="367.68"/>
		<line class="st5" x1="1074.33" y1="374.96" x2="1084.21" y2="372.13"/>
		<line class="st5" x1="1012.18" y1="384.85" x2="1059.97" y2="371.14"/>
		<line class="st5" x1="1074.06" y1="367.09" x2="1084.21" y2="364.18"/>
		<line class="st5" x1="1084.21" y1="360.23" x2="1076.29" y2="368.38"/>
		<line class="st5" x1="490.86" y1="117.48" x2="598.49" y2="177.81"/>
		<line class="st5" x1="1108.38" y1="358.38" x2="1111.73" y2="357.23"/>
		<polygon class="st3" points="729.62,231.74 729.62,256.65 708.04,269.11 708.04,244.19 		"/>
		<polygon class="st3" points="510.93,81.66 510.93,129.07 469.88,152.77 469.88,105.37 		"/>
		<polygon class="st3" points="521.43,87.72 521.43,135.13 480.37,158.83 480.37,111.42 		"/>
		<polygon class="st3" points="500.44,75.6 500.44,123.01 459.39,146.72 459.39,99.31 		"/>
		<polygon class="st3" points="719.13,225.68 719.13,250.59 697.55,263.05 697.55,238.14 		"/>
		<polygon class="st3" points="708.63,219.62 708.63,244.54 687.06,256.99 687.06,232.08 		"/>
		<polygon class="st3" points="698.14,213.56 698.14,238.48 676.57,250.94 676.57,226.02 		"/>
		<polygon class="st3" points="531.92,93.78 531.92,141.18 490.86,164.89 490.86,117.48 		"/>
		<polygon class="st3" points="687.65,207.51 687.65,232.42 666.07,244.88 666.07,219.96 		"/>
		<polygon class="st3" points="677.16,201.45 677.16,226.36 655.58,238.82 655.58,213.91 		"/>
		<polygon class="st3" points="740.11,237.79 740.11,262.71 718.53,275.16 718.53,250.25 		"/>
	</g>
</g>
</svg>
