<?xml version="1.0" encoding="utf-8"?>
<!-- Generator: Adobe Illustrator 23.0.1, SVG Export Plug-In . SVG Version: 6.00 Build 0)  -->
<svg version="1.1" id="Layer_1" xmlns="http://www.w3.org/2000/svg" xmlns:xlink="http://www.w3.org/1999/xlink" x="0px" y="0px"
	 viewBox="0 0 1152 617.14" style="enable-background:new 0 0 1152 617.14;" xml:space="preserve">
<style type="text/css">
	.st0{fill:none;stroke:#E6E6E6;stroke-width:0.5;stroke-miterlimit:10;stroke-dasharray:3.9973,3.9973;}
	.st1{fill:none;stroke:#E6E6E6;stroke-width:0.5;stroke-miterlimit:10;stroke-dasharray:3.9939,3.9939;}
	.st2{fill:none;stroke:#E6E6E6;stroke-width:2;stroke-miterlimit:10;}
	.st3{fill:#E6E6E6;}
	.st4{fill:none;stroke:#E6E6E6;stroke-width:2;stroke-miterlimit:10;stroke-dasharray:4.1283,4.1283;}
	.st5{fill:none;stroke:#E6E6E6;stroke-width:2;stroke-miterlimit:10;stroke-dasharray:3.9679,3.9679;}
	.st6{fill:none;stroke:#E6E6E6;stroke-width:2;stroke-miterlimit:10;stroke-dasharray:3.8508,3.8508;}
</style>
<g>
	<g>
		<g>
			<path class="st0" d="M549.29,262.79H160.33c-6.6,0-12-5.4-12-12V65.83c0-6.6,5.4-12,12-12H549.3c6.6,0,12,5.4,12,12v184.96
				C561.29,257.39,555.89,262.79,549.29,262.79z"/>
		</g>
		<g>
			<path class="st1" d="M780.53,377.67H351.21c-6.6,0-12-5.4-12-12V65.83c0-6.6,5.4-12,12-12h429.32c6.6,0,12,5.4,12,12v299.84
				C792.53,372.27,787.13,377.67,780.53,377.67z"/>
		</g>
		<g>
			<g>
				<line class="st2" x1="449.15" y1="252.64" x2="449.15" y2="323.2"/>
				<g>
					<polygon class="st3" points="444.17,321.74 449.15,330.38 454.14,321.74 					"/>
				</g>
			</g>
		</g>
		<g>
			<g>
				<line class="st2" x1="449.15" y1="126.62" x2="449.15" y2="194.96"/>
				<g>
					<polygon class="st3" points="444.17,128.08 449.15,119.44 454.14,128.08 					"/>
				</g>
				<g>
					<polygon class="st3" points="444.17,193.5 449.15,202.13 454.14,193.5 					"/>
				</g>
			</g>
		</g>
		<g>
			<g>
				<line class="st2" x1="285.75" y1="41.7" x2="285.75" y2="112.26"/>
				<g>
					<polygon class="st3" points="280.76,110.81 285.75,119.44 290.74,110.81 					"/>
				</g>
			</g>
		</g>
		<g>
			<line class="st2" x1="284.84" y1="164.01" x2="284.84" y2="232.25"/>
			<g>
				<g>
					<line class="st2" x1="284.84" y1="230.76" x2="382.63" y2="230.76"/>
					<g>
						<polygon class="st3" points="381.18,235.75 389.81,230.76 381.18,225.77 						"/>
					</g>
				</g>
			</g>
		</g>
		<g>
			<g>
				<line class="st2" x1="449.15" y1="371.48" x2="449.15" y2="442.04"/>
				<g>
					<polygon class="st3" points="444.17,440.58 449.15,449.22 454.14,440.58 					"/>
				</g>
			</g>
		</g>
		<g>
			<g>
				<line class="st2" x1="448.29" y1="487.1" x2="448.29" y2="562.61"/>
				<g>
					<polygon class="st3" points="443.3,561.16 448.29,569.79 453.27,561.16 					"/>
				</g>
			</g>
		</g>
		<g>
			<line class="st2" x1="498.65" y1="469.77" x2="981.93" y2="469.77"/>
			<g>
				<g>
					<line class="st2" x1="981.69" y1="468.78" x2="981.69" y2="286.68"/>
					<g>
						<polygon class="st3" points="986.67,288.14 981.69,279.51 976.7,288.14 						"/>
					</g>
				</g>
			</g>
		</g>
		<g>
			<g>
				<line class="st2" x1="907.66" y1="230.11" x2="905.66" y2="230.11"/>
				<line class="st4" x1="901.53" y1="230.11" x2="804.52" y2="230.11"/>
				<line class="st2" x1="802.45" y1="230.11" x2="800.45" y2="230.11"/>
				<g>
					<polygon class="st3" points="801.91,225.12 793.28,230.11 801.91,235.1 					"/>
				</g>
			</g>
		</g>
		<g>
			<g>
				<line class="st2" x1="979.95" y1="97.16" x2="977.95" y2="97.16"/>
				<line class="st5" x1="973.98" y1="97.16" x2="555.37" y2="97.16"/>
				<line class="st2" x1="553.39" y1="97.16" x2="551.39" y2="97.16"/>
				<g>
					<polygon class="st3" points="552.84,92.17 544.21,97.16 552.84,102.14 					"/>
				</g>
			</g>
		</g>
		<g>
			<g>
				<line class="st2" x1="981.69" y1="203.37" x2="981.69" y2="201.37"/>
				<line class="st6" x1="981.69" y1="197.52" x2="981.69" y2="107.03"/>
				<line class="st2" x1="981.69" y1="105.1" x2="981.69" y2="103.1"/>
			</g>
		</g>
		<g>
			<g>
				<line class="st2" x1="617" y1="230.11" x2="615" y2="230.11"/>
				<line class="st4" x1="610.87" y1="230.11" x2="513.86" y2="230.11"/>
				<line class="st2" x1="511.79" y1="230.11" x2="509.79" y2="230.11"/>
				<g>
					<polygon class="st3" points="511.25,225.12 502.62,230.11 511.25,235.1 					"/>
				</g>
			</g>
		</g>
	</g>
	<g>
		<g>
			<g>
				<path class="st3" d="M251.32,131.36h4.88c6,0,9.21,3.48,9.21,9.68c0,6.19-3.21,9.82-9.1,9.82h-4.99V131.36z M256.01,148.82
					c4.56,0,6.83-2.86,6.83-7.79c0-4.93-2.27-7.64-6.83-7.64h-2.21v15.43H256.01z"/>
				<path class="st3" d="M273.6,131.36h2.8l6.6,19.5h-2.63l-3.4-10.89c-0.7-2.18-1.33-4.32-1.95-6.57h-0.12
					c-0.6,2.26-1.23,4.39-1.93,6.57l-3.44,10.89H267L273.6,131.36z M270.47,142.94h8.98v1.98h-8.98V142.94z"/>
				<path class="st3" d="M289.81,133.46h-5.9v-2.1h14.28v2.1h-5.9v17.4h-2.48V133.46z"/>
				<path class="st3" d="M305.68,131.36h2.8l6.6,19.5h-2.63l-3.4-10.89c-0.7-2.18-1.33-4.32-1.95-6.57h-0.12
					c-0.6,2.26-1.23,4.39-1.93,6.57l-3.44,10.89h-2.53L305.68,131.36z M302.55,142.94h8.98v1.98h-8.98V142.94z"/>
			</g>
		</g>
		<g>
			<g>
				<path class="st3" d="M411.43,218.82h2.99l3.74,10.42c0.47,1.33,0.92,2.71,1.39,4.06h0.12c0.47-1.35,0.88-2.73,1.35-4.06
					l3.69-10.42h2.99v19.5h-2.31v-10.74c0-1.7,0.19-4.04,0.32-5.77h-0.13l-1.55,4.45l-3.67,10.09h-1.64l-3.69-10.09l-1.54-4.45
					h-0.12c0.13,1.72,0.32,4.07,0.32,5.77v10.74h-2.25L411.43,218.82L411.43,218.82z"/>
				<path class="st3" d="M431.89,228.5c0-6.25,3.44-10.04,8.33-10.04c4.9,0,8.33,3.8,8.33,10.04c0,6.25-3.44,10.18-8.33,10.18
					C435.33,238.68,431.89,234.75,431.89,228.5z M446,228.5c0-4.86-2.29-7.85-5.77-7.85s-5.77,3-5.77,7.85s2.29,7.99,5.77,7.99
					S446,233.36,446,228.5z"/>
				<path class="st3" d="M452.75,218.82h4.88c6,0,9.21,3.48,9.21,9.68c0,6.19-3.21,9.82-9.1,9.82h-4.99V218.82z M457.45,236.29
					c4.56,0,6.83-2.86,6.83-7.79s-2.27-7.64-6.83-7.64h-2.21v15.43L457.45,236.29L457.45,236.29z"/>
				<path class="st3" d="M471.03,218.82h11.24v2.1h-8.76v6.11h7.39v2.1h-7.39v7.09h9.05v2.1h-11.54v-19.5H471.03z"/>
				<path class="st3" d="M486.68,218.82h2.48v17.4h8.51v2.1h-10.99V218.82z"/>
			</g>
		</g>
		<g>
			<g>
				<path class="st3" d="M371.58,87.12h5.57c4.37,0,7.32,1.47,7.32,5.74c0,4.1-2.93,6.02-7.2,6.02h-3.21v7.73h-2.48V87.12z
					 M376.96,96.87c3.41,0,5.04-1.24,5.04-4.01c0-2.81-1.73-3.73-5.16-3.73h-2.77v7.74L376.96,96.87L376.96,96.87z"/>
				<path class="st3" d="M392.41,87.12h2.8l6.6,19.5h-2.63l-3.4-10.89c-0.7-2.18-1.33-4.32-1.95-6.57h-0.12
					c-0.6,2.26-1.23,4.39-1.93,6.57l-3.44,10.89h-2.53L392.41,87.12z M389.28,98.69h8.98v1.98h-8.98V98.69z"/>
				<path class="st3" d="M404.56,87.12h6.11c3.97,0,6.82,1.43,6.82,5.49c0,3.89-2.85,5.77-6.82,5.77h-3.63v8.24h-2.48L404.56,87.12
					L404.56,87.12z M410.31,96.36c3.03,0,4.7-1.23,4.7-3.76c0-2.56-1.67-3.48-4.7-3.48h-3.27v7.23L410.31,96.36L410.31,96.36z
					 M410.18,97.69l1.94-1.28l5.95,10.21h-2.81L410.18,97.69z"/>
				<path class="st3" d="M425.47,87.12h2.8l6.6,19.5h-2.63l-3.4-10.89c-0.7-2.18-1.33-4.32-1.95-6.57h-0.12
					c-0.6,2.26-1.23,4.39-1.93,6.57l-3.44,10.89h-2.53L425.47,87.12z M422.34,98.69h8.98v1.98h-8.98V98.69z"/>
				<path class="st3" d="M437.63,87.12h2.99l3.74,10.42c0.47,1.33,0.92,2.71,1.39,4.06h0.12c0.47-1.35,0.88-2.73,1.35-4.06
					l3.69-10.42h2.99v19.5h-2.32V95.88c0-1.7,0.19-4.04,0.32-5.77h-0.12l-1.55,4.45l-3.67,10.09h-1.64l-3.69-10.09l-1.54-4.45h-0.12
					c0.13,1.72,0.32,4.07,0.32,5.77v10.74h-2.25v-19.5H437.63z"/>
				<path class="st3" d="M459.22,87.12h11.24v2.1h-8.76v6.11h7.39v2.1h-7.39v7.09h9.05v2.1h-11.54v-19.5H459.22z"/>
				<path class="st3" d="M478.94,89.22h-5.9v-2.1h14.28v2.1h-5.9v17.4h-2.48V89.22z"/>
				<path class="st3" d="M490.81,87.12h11.24v2.1h-8.76v6.11h7.39v2.1h-7.39v7.09h9.05v2.1H490.8v-19.5H490.81z"/>
				<path class="st3" d="M506.46,87.12h6.11c3.97,0,6.82,1.43,6.82,5.49c0,3.89-2.85,5.77-6.82,5.77h-3.63v8.24h-2.48V87.12z
					 M512.21,96.36c3.03,0,4.7-1.23,4.7-3.76c0-2.56-1.67-3.48-4.7-3.48h-3.27v7.23L512.21,96.36L512.21,96.36z M512.08,97.69
					l1.94-1.28l5.95,10.21h-2.81L512.08,97.69z"/>
				<path class="st3" d="M521.95,104.08l1.48-1.7c1.4,1.46,3.35,2.42,5.38,2.42c2.56,0,4.08-1.27,4.08-3.17
					c0-1.99-1.41-2.63-3.25-3.43l-2.8-1.24c-1.82-0.78-3.95-2.15-3.95-5.02c0-2.98,2.6-5.17,6.14-5.17c2.31,0,4.37,1,5.74,2.42
					l-1.32,1.59c-1.19-1.13-2.62-1.83-4.43-1.83c-2.19,0-3.63,1.1-3.63,2.85c0,1.88,1.7,2.58,3.23,3.23l2.78,1.2
					c2.26,0.97,4.02,2.31,4.02,5.21c0,3.08-2.54,5.54-6.64,5.54C526.04,106.97,523.66,105.85,521.95,104.08z"/>
			</g>
		</g>
		<g>
			<g>
				<path class="st3" d="M180.22,207.93c0-1.62,1.52-2.41,5.25-2.7c-0.04-0.98-0.52-1.81-1.92-1.81c-0.94,0-1.86,0.45-2.53,0.86
					l-0.49-0.83c0.74-0.48,1.96-1.04,3.23-1.04c1.98,0,2.94,1.17,2.94,2.97v4.43h-1.03l-0.1-0.98h-0.04
					c-0.79,0.62-1.83,1.16-2.84,1.16C181.33,209.99,180.22,209.23,180.22,207.93z M185.46,207.92v-1.87
					c-3.09,0.24-4.03,0.85-4.03,1.8c0,0.82,0.74,1.14,1.58,1.14C183.83,208.99,184.63,208.6,185.46,207.92z"/>
				<path class="st3" d="M190.47,209h-0.04l-0.12,0.8h-0.98v-10.58h1.23v2.88l-0.06,1.4h0.04c0.65-0.67,1.58-1.1,2.42-1.1
					c1.95,0,3,1.44,3,3.67c0,2.47-1.55,3.91-3.25,3.91C192,209.99,191.14,209.61,190.47,209z M194.7,206.09
					c0-1.59-0.59-2.65-2.04-2.65c-0.64,0-1.38,0.33-2.11,1.07v3.6c0.67,0.61,1.43,0.83,1.95,0.83
					C193.75,208.95,194.7,207.88,194.7,206.09z"/>
				<path class="st3" d="M197.91,208.86l0.56-0.82c0.83,0.59,1.81,0.98,3.14,0.98c1.22,0,1.81-0.5,1.81-1.11
					c0-0.55-0.28-0.94-2.24-1.34c-1.89-0.39-2.82-1.03-2.82-2.11c0-1.16,1.03-2.05,3-2.05c1.1,0,2.2,0.43,2.91,0.92l-0.59,0.79
					c-0.67-0.46-1.5-0.76-2.42-0.76c-1.22,0-1.67,0.49-1.67,1.04c0,0.63,0.62,0.89,2.11,1.2c2.39,0.52,2.97,1.12,2.97,2.23
					c0,1.17-1.14,2.16-3.21,2.16C200.05,209.99,198.78,209.47,197.91,208.86z"/>
				<path class="st3" d="M208.83,207v-3.42h-2.05v-0.92l2.1-0.07l0.16-2.32h1.03v2.32h3.54v1h-3.54v3.43c0,1.29,0.43,1.96,1.83,1.96
					c0.67,0,1.2-0.13,1.72-0.33l0.27,0.91c-0.65,0.24-1.35,0.43-2.26,0.43C209.51,209.99,208.83,208.78,208.83,207z"/>
				<path class="st3" d="M216.83,202.59h1.03l0.12,1.71h0.03c0.76-1.17,1.89-1.89,3.22-1.89c0.54,0,0.98,0.07,1.43,0.3l-0.28,1.06
					c-0.5-0.16-0.77-0.24-1.34-0.24c-1.08,0-2.11,0.55-2.97,2.07v4.22h-1.23L216.83,202.59L216.83,202.59z"/>
				<path class="st3" d="M224.78,207.93c0-1.62,1.52-2.41,5.25-2.7c-0.04-0.98-0.52-1.81-1.92-1.81c-0.94,0-1.86,0.45-2.53,0.86
					l-0.49-0.83c0.74-0.48,1.96-1.04,3.23-1.04c1.98,0,2.94,1.17,2.94,2.97v4.43h-1.03l-0.1-0.98h-0.04
					c-0.79,0.62-1.83,1.16-2.84,1.16C225.89,209.99,224.78,209.23,224.78,207.93z M230.03,207.92v-1.87
					c-3.09,0.24-4.03,0.85-4.03,1.8c0,0.82,0.74,1.14,1.58,1.14C228.39,208.99,229.19,208.6,230.03,207.92z"/>
				<path class="st3" d="M233.69,206.21c0-2.42,1.84-3.8,4.03-3.8c1.17,0,2.04,0.48,2.63,1.06l-0.61,0.79
					c-0.59-0.5-1.22-0.82-1.98-0.82c-1.66,0-2.81,1.12-2.81,2.78c0,1.65,1.13,2.75,2.78,2.75c0.89,0,1.63-0.4,2.23-0.91l0.55,0.8
					c-0.8,0.71-1.8,1.13-2.87,1.13C235.39,209.99,233.69,208.6,233.69,206.21z"/>
				<path class="st3" d="M244.48,207v-3.42h-2.05v-0.92l2.1-0.07l0.16-2.32h1.03v2.32h3.54v1h-3.54v3.43c0,1.29,0.43,1.96,1.83,1.96
					c0.67,0,1.2-0.13,1.72-0.33l0.27,0.91c-0.65,0.24-1.35,0.43-2.26,0.43C245.16,209.99,244.48,208.78,244.48,207z"/>
				<path class="st3" d="M255.01,203.58h-3.34v-1h4.58v7.22h-1.23L255.01,203.58L255.01,203.58z M254.52,200.12
					c0-0.56,0.42-0.95,0.98-0.95s0.98,0.39,0.98,0.95c0,0.58-0.42,0.95-0.98,0.95S254.52,200.7,254.52,200.12z"/>
				<path class="st3" d="M260.13,206.21c0-2.42,1.67-3.8,3.57-3.8s3.57,1.38,3.57,3.8c0,2.39-1.66,3.78-3.57,3.78
					S260.13,208.6,260.13,206.21z M266,206.21c0-1.66-0.92-2.78-2.3-2.78c-1.38,0-2.3,1.12-2.3,2.78c0,1.65,0.92,2.75,2.3,2.75
					S266,207.86,266,206.21z"/>
				<path class="st3" d="M269.54,202.59h1.01l0.1,1.22h0.06c0.76-0.79,1.59-1.4,2.72-1.4c1.71,0,2.5,1.01,2.5,2.91v4.49h-1.23v-4.33
					c0-1.37-0.48-2.01-1.65-2.01c-0.86,0-1.44,0.43-2.27,1.29v5.04h-1.23v-7.21H269.54z"/>
			</g>
		</g>
		<g>
			<g>
				<path class="st3" d="M369.26,160.95v-3.42h-2.05v-0.92l2.1-0.07l0.16-2.32h1.03v2.32h3.54v1h-3.54v3.43
					c0,1.29,0.43,1.96,1.83,1.96c0.67,0,1.2-0.13,1.72-0.33l0.27,0.91c-0.65,0.24-1.35,0.43-2.26,0.43
					C369.94,163.94,369.26,162.73,369.26,160.95z"/>
				<path class="st3" d="M377.27,156.53h1.03l0.12,1.71h0.03c0.76-1.17,1.89-1.89,3.22-1.89c0.54,0,0.98,0.07,1.43,0.3l-0.28,1.06
					c-0.5-0.16-0.77-0.24-1.34-0.24c-1.08,0-2.11,0.55-2.97,2.07v4.22h-1.23L377.27,156.53L377.27,156.53z"/>
				<path class="st3" d="M385.21,161.88c0-1.62,1.52-2.41,5.25-2.71c-0.04-0.98-0.52-1.81-1.92-1.81c-0.94,0-1.86,0.45-2.53,0.86
					l-0.49-0.83c0.74-0.48,1.96-1.04,3.23-1.04c1.98,0,2.94,1.17,2.94,2.97v4.43h-1.03l-0.1-0.98h-0.04
					c-0.79,0.62-1.83,1.16-2.84,1.16C386.33,163.94,385.21,163.18,385.21,161.88z M390.46,161.87V160c-3.09,0.24-4.03,0.85-4.03,1.8
					c0,0.82,0.74,1.14,1.58,1.14C388.82,162.94,389.63,162.55,390.46,161.87z"/>
				<path class="st3" d="M397.62,157.53h-3.34v-1h4.58v7.22h-1.23L397.62,157.53L397.62,157.53z M397.13,154.07
					c0-0.56,0.42-0.95,0.98-0.95s0.98,0.39,0.98,0.95c0,0.58-0.42,0.95-0.98,0.95S397.13,154.65,397.13,154.07z"/>
				<path class="st3" d="M403.23,156.53h1.01l0.1,1.22h0.06c0.76-0.79,1.59-1.4,2.72-1.4c1.71,0,2.5,1.01,2.5,2.91v4.49h-1.23v-4.32
					c0-1.37-0.48-2.01-1.65-2.01c-0.86,0-1.44,0.43-2.27,1.29v5.04h-1.23v-7.22H403.23z"/>
				<path class="st3" d="M415.44,157.53h-3.34v-1h4.58v7.22h-1.23L415.44,157.53L415.44,157.53z M414.95,154.07
					c0-0.56,0.42-0.95,0.98-0.95s0.98,0.39,0.98,0.95c0,0.58-0.42,0.95-0.98,0.95S414.95,154.65,414.95,154.07z"/>
				<path class="st3" d="M421.06,156.53h1.01l0.1,1.22h0.06c0.76-0.79,1.59-1.4,2.72-1.4c1.71,0,2.5,1.01,2.5,2.91v4.49h-1.23v-4.32
					c0-1.37-0.48-2.01-1.65-2.01c-0.86,0-1.44,0.43-2.27,1.29v5.04h-1.23v-7.22H421.06z"/>
				<path class="st3" d="M429.66,165.08c0-0.58,0.42-1.16,1.19-1.6v-0.06c-0.39-0.21-0.74-0.58-0.74-1.19
					c0-0.46,0.31-0.98,0.86-1.35v-0.06c-0.49-0.37-0.89-1.01-0.89-1.87c0-1.58,1.31-2.59,2.84-2.59c0.42,0,0.76,0.06,1.07,0.18h2.99
					v1h-1.87c0.33,0.34,0.61,0.88,0.61,1.46c0,1.55-1.23,2.48-2.79,2.48c-0.37,0-0.82-0.09-1.22-0.27
					c-0.36,0.22-0.57,0.49-0.57,0.83c0,0.56,0.55,0.83,1.5,0.83h1.62c1.86,0,2.75,0.48,2.75,1.69c0,1.35-1.56,2.53-4.01,2.53
					C430.88,167.09,429.66,166.36,429.66,165.08z M435.8,164.75c0-0.68-0.55-0.88-1.65-0.88h-1.41c-0.42,0-0.79-0.03-1.1-0.12
					c-0.68,0.37-0.92,0.79-0.92,1.2c0,0.76,0.82,1.23,2.36,1.23C434.76,166.19,435.8,165.5,435.8,164.75z M434.58,158.94
					c0-1.01-0.74-1.69-1.66-1.69c-0.91,0-1.67,0.68-1.67,1.69c0,1.04,0.76,1.71,1.67,1.71
					C433.83,160.65,434.58,159.98,434.58,158.94z"/>
			</g>
		</g>
		<g>
			<g>
				<path class="st3" d="M245.57,11.03h2.99l3.74,10.42c0.47,1.33,0.92,2.71,1.39,4.06h0.12c0.47-1.35,0.88-2.73,1.35-4.06
					l3.69-10.42h2.99v19.5h-2.31V19.79c0-1.7,0.19-4.04,0.32-5.77h-0.12l-1.55,4.45l-3.67,10.09h-1.64l-3.69-10.09l-1.54-4.45h-0.12
					c0.13,1.72,0.32,4.07,0.32,5.77v10.74h-2.25v-19.5H245.57z"/>
				<path class="st3" d="M267.17,11.03h11.24v2.1h-8.76v6.11h7.39v2.1h-7.39v7.09h9.05v2.1h-11.54v-19.5H267.17z"/>
				<path class="st3" d="M282.82,11.03h4.88c6,0,9.21,3.48,9.21,9.68c0,6.19-3.21,9.82-9.1,9.82h-4.99V11.03z M287.52,28.5
					c4.56,0,6.83-2.86,6.83-7.79s-2.27-7.64-6.83-7.64h-2.21V28.5L287.52,28.5L287.52,28.5z"/>
				<path class="st3" d="M301.09,11.03h2.49v19.5h-2.48L301.09,11.03L301.09,11.03z"/>
				<path class="st3" d="M312.92,11.03h2.8l6.6,19.5h-2.63l-3.4-10.89c-0.7-2.18-1.33-4.32-1.95-6.57h-0.12
					c-0.6,2.26-1.23,4.39-1.93,6.57l-3.44,10.89h-2.53L312.92,11.03z M309.79,22.61h8.98v1.98h-8.98V22.61z"/>
			</g>
		</g>
		<g>
			<g>
				<path class="st3" d="M202.32,76.94c0-2.35,1.75-3.77,3.69-3.77c2.08,0,3.3,1.35,3.3,3.39c0,0.28-0.03,0.55-0.06,0.74h-6.11
					v-0.95h5.38l-0.31,0.34c0-1.71-0.85-2.56-2.17-2.56c-1.34,0-2.5,1.01-2.5,2.81c0,1.87,1.22,2.82,2.82,2.82
					c0.86,0,1.55-0.27,2.2-0.68l0.45,0.8c-0.71,0.48-1.63,0.86-2.79,0.86C204.04,80.75,202.32,79.35,202.32,76.94z"/>
				<path class="st3" d="M211.6,73.35h1.01l0.1,1.22h0.06c0.76-0.79,1.59-1.4,2.72-1.4c1.71,0,2.5,1.01,2.5,2.91v4.49h-1.23v-4.32
					c0-1.37-0.48-2.01-1.65-2.01c-0.86,0-1.44,0.43-2.27,1.29v5.04h-1.23L211.6,73.35L211.6,73.35z"/>
				<path class="st3" d="M220.32,76.97c0-2.42,1.84-3.8,4.03-3.8c1.17,0,2.04,0.48,2.63,1.06l-0.61,0.79
					c-0.59-0.5-1.22-0.82-1.98-0.82c-1.66,0-2.81,1.11-2.81,2.78c0,1.65,1.13,2.75,2.78,2.75c0.89,0,1.63-0.4,2.23-0.91l0.55,0.8
					c-0.8,0.71-1.8,1.13-2.87,1.13C222.02,80.75,220.32,79.37,220.32,76.97z"/>
				<path class="st3" d="M228.94,76.97c0-2.42,1.67-3.8,3.57-3.8s3.57,1.38,3.57,3.8c0,2.39-1.66,3.77-3.57,3.77
					S228.94,79.37,228.94,76.97z M234.81,76.97c0-1.66-0.92-2.78-2.3-2.78c-1.38,0-2.3,1.11-2.3,2.78c0,1.65,0.92,2.75,2.3,2.75
					S234.81,78.62,234.81,76.97z"/>
				<path class="st3" d="M237.85,76.97c0-2.35,1.56-3.8,3.27-3.8c0.86,0,1.53,0.34,2.17,0.92h0.03l-0.06-1.32v-2.78h1.23v10.58
					h-1.01l-0.1-0.95h-0.04c-0.59,0.61-1.46,1.13-2.36,1.13C239.1,80.75,237.85,79.38,237.85,76.97z M243.26,78.64v-3.6
					c-0.65-0.61-1.26-0.83-1.89-0.83c-1.25,0-2.26,1.1-2.26,2.75c0,1.72,0.8,2.75,2.13,2.75C241.95,79.71,242.62,79.35,243.26,78.64
					z"/>
				<path class="st3" d="M250.55,74.34h-3.34v-1h4.58v7.22h-1.23L250.55,74.34L250.55,74.34z M250.06,70.88
					c0-0.56,0.42-0.95,0.98-0.95s0.98,0.39,0.98,0.95c0,0.58-0.42,0.95-0.98,0.95S250.06,71.46,250.06,70.88z"/>
				<path class="st3" d="M256.17,73.35h1.01l0.1,1.22h0.06c0.76-0.79,1.59-1.4,2.72-1.4c1.71,0,2.5,1.01,2.5,2.91v4.49h-1.23v-4.32
					c0-1.37-0.48-2.01-1.65-2.01c-0.86,0-1.44,0.43-2.27,1.29v5.04h-1.23v-7.22H256.17z"/>
				<path class="st3" d="M264.77,81.89c0-0.58,0.42-1.16,1.19-1.6v-0.06c-0.39-0.21-0.74-0.58-0.74-1.19c0-0.46,0.31-0.98,0.86-1.35
					v-0.06c-0.49-0.37-0.89-1.01-0.89-1.87c0-1.58,1.31-2.59,2.84-2.59c0.42,0,0.76,0.06,1.07,0.18h2.99v1h-1.87
					c0.33,0.34,0.61,0.88,0.61,1.46c0,1.55-1.23,2.48-2.79,2.48c-0.37,0-0.82-0.09-1.22-0.27c-0.36,0.22-0.57,0.49-0.57,0.83
					c0,0.56,0.55,0.83,1.5,0.83h1.62c1.86,0,2.75,0.48,2.75,1.69c0,1.35-1.56,2.53-4.01,2.53C265.99,83.9,264.77,83.17,264.77,81.89
					z M270.91,81.57c0-0.68-0.55-0.88-1.65-0.88h-1.41c-0.42,0-0.79-0.03-1.1-0.12c-0.68,0.37-0.92,0.79-0.92,1.2
					c0,0.76,0.82,1.23,2.36,1.23C269.87,83.01,270.91,82.31,270.91,81.57z M269.69,75.75c0-1.01-0.74-1.69-1.66-1.69
					c-0.91,0-1.67,0.68-1.67,1.69c0,1.04,0.76,1.71,1.67,1.71C268.95,77.46,269.69,76.8,269.69,75.75z"/>
			</g>
		</g>
		<g>
			<g>
				<path class="st3" d="M400.75,358.51l1.48-1.7c1.4,1.46,3.35,2.42,5.38,2.42c2.56,0,4.08-1.27,4.08-3.17
					c0-1.99-1.41-2.63-3.25-3.43l-2.8-1.24c-1.82-0.78-3.95-2.15-3.95-5.02c0-2.98,2.6-5.18,6.14-5.18c2.31,0,4.37,1,5.74,2.42
					l-1.32,1.59c-1.19-1.13-2.62-1.83-4.43-1.83c-2.19,0-3.63,1.1-3.63,2.85c0,1.88,1.7,2.58,3.23,3.23l2.78,1.2
					c2.26,0.97,4.02,2.31,4.02,5.21c0,3.08-2.54,5.54-6.64,5.54C404.84,361.41,402.46,360.29,400.75,358.51z"/>
				<path class="st3" d="M422.04,341.55h2.8l6.6,19.5h-2.63l-3.4-10.89c-0.7-2.18-1.33-4.32-1.95-6.57h-0.12
					c-0.6,2.26-1.23,4.39-1.93,6.57l-3.44,10.89h-2.53L422.04,341.55z M418.91,353.13h8.98v1.98h-8.98V353.13z"/>
				<path class="st3" d="M434.19,341.55h2.99l3.74,10.42c0.47,1.33,0.92,2.71,1.39,4.06h0.12c0.47-1.35,0.88-2.73,1.35-4.06
					l3.69-10.42h2.99v19.5h-2.31v-10.74c0-1.7,0.19-4.04,0.32-5.77h-0.12l-1.55,4.45l-3.67,10.09h-1.64l-3.69-10.09l-1.54-4.45
					h-0.12c0.13,1.72,0.32,4.07,0.32,5.77v10.74h-2.25v-19.5H434.19z"/>
				<path class="st3" d="M455.79,341.55h5.57c4.37,0,7.32,1.47,7.32,5.74c0,4.1-2.93,6.02-7.2,6.02h-3.21v7.73h-2.48V341.55z
					 M461.17,351.3c3.41,0,5.04-1.24,5.04-4.01c0-2.81-1.73-3.73-5.16-3.73h-2.77v7.74L461.17,351.3L461.17,351.3z"/>
				<path class="st3" d="M472.61,341.55h2.48v17.4h8.51v2.1h-10.99V341.55z"/>
				<path class="st3" d="M487.05,341.55h11.24v2.1h-8.76v6.11h7.39v2.1h-7.39v7.09h9.05v2.1h-11.54L487.05,341.55L487.05,341.55z"/>
			</g>
		</g>
		<g>
			<g>
				<path class="st3" d="M411.2,458.91h2.99l3.74,10.42c0.47,1.33,0.92,2.71,1.39,4.06h0.12c0.47-1.35,0.88-2.73,1.35-4.06
					l3.69-10.42h2.99v19.5h-2.31v-10.74c0-1.7,0.19-4.04,0.32-5.77h-0.12l-1.55,4.45l-3.67,10.09h-1.64l-3.69-10.09l-1.54-4.45
					h-0.12c0.13,1.72,0.32,4.07,0.32,5.77v10.74h-2.25v-19.5H411.2z"/>
				<path class="st3" d="M432.8,458.91h11.24v2.1h-8.76v6.11h7.39v2.1h-7.39v7.09h9.05v2.1h-11.54v-19.5H432.8z"/>
				<path class="st3" d="M448.46,458.91h4.88c6,0,9.21,3.48,9.21,9.68c0,6.19-3.21,9.82-9.1,9.82h-4.99V458.91z M453.15,476.37
					c4.56,0,6.83-2.86,6.83-7.79s-2.27-7.64-6.83-7.64h-2.21v15.43H453.15z"/>
				<path class="st3" d="M466.73,458.91h2.48v19.5h-2.48V458.91z"/>
				<path class="st3" d="M478.55,458.91h2.8l6.6,19.5h-2.63l-3.4-10.89c-0.7-2.18-1.33-4.32-1.95-6.57h-0.12
					c-0.6,2.26-1.23,4.39-1.93,6.57l-3.44,10.89h-2.53L478.55,458.91z M475.42,470.49h8.98v1.98h-8.98V470.49z"/>
			</g>
		</g>
		<g>
			<g>
				<path class="st3" d="M394.7,586.24h2.8l6.6,19.5h-2.63l-3.4-10.89c-0.7-2.18-1.33-4.32-1.95-6.57H396
					c-0.6,2.26-1.23,4.39-1.93,6.57l-3.44,10.89h-2.53L394.7,586.24z M391.57,597.82h8.98v1.98h-8.98V597.82z"/>
				<path class="st3" d="M406.85,586.24h6.11c3.97,0,6.82,1.43,6.82,5.49c0,3.89-2.85,5.77-6.82,5.77h-3.63v8.24h-2.48
					L406.85,586.24L406.85,586.24z M412.6,595.48c3.03,0,4.7-1.23,4.7-3.76c0-2.56-1.67-3.48-4.7-3.48h-3.27v7.23h3.27V595.48z
					 M412.47,596.82l1.94-1.28l5.95,10.21h-2.81L412.47,596.82z"/>
				<path class="st3" d="M427.81,588.34h-5.9v-2.1h14.28v2.1h-5.9v17.4h-2.48V588.34z"/>
				<path class="st3" d="M439.68,586.24h2.48v19.5h-2.48V586.24z"/>
				<path class="st3" d="M447.49,586.24h11.24v2.1h-8.76v6.58h7.43v2.1h-7.43v8.72h-2.48L447.49,586.24L447.49,586.24z"/>
				<path class="st3" d="M466.18,586.24h2.8l6.6,19.5h-2.63l-3.4-10.89c-0.7-2.18-1.33-4.32-1.95-6.57h-0.12
					c-0.6,2.26-1.23,4.39-1.93,6.57l-3.44,10.89h-2.53L466.18,586.24z M463.05,597.82h8.98v1.98h-8.98V597.82z"/>
				<path class="st3" d="M477.2,596.01c0-6.29,3.71-10.12,8.65-10.12c2.37,0,4.22,1.15,5.36,2.41l-1.36,1.62
					c-1.03-1.09-2.31-1.84-3.96-1.84c-3.68,0-6.13,3.02-6.13,7.88c0,4.9,2.34,7.97,6.04,7.97c1.86,0,3.27-0.81,4.52-2.19l1.36,1.56
					c-1.54,1.79-3.45,2.81-5.98,2.81C480.83,606.09,477.2,602.34,477.2,596.01z"/>
				<path class="st3" d="M499.35,588.34h-5.9v-2.1h14.28v2.1h-5.9v17.4h-2.48V588.34z"/>
			</g>
		</g>
		<g>
			<g>
				<path class="st3" d="M340,521.3l2.09-0.07h4.21v1H340V521.3z M342.07,520.61c0-1.75,0.92-2.93,2.91-2.93
					c0.71,0,1.4,0.13,2.08,0.42l-0.28,0.92c-0.59-0.25-1.05-0.34-1.68-0.34c-1.29,0-1.81,0.73-1.81,1.89v7.88h-1.22V520.61z"/>
				<path class="st3" d="M348.57,526.57c0-1.62,1.52-2.41,5.25-2.7c-0.04-0.98-0.52-1.81-1.92-1.81c-0.94,0-1.86,0.45-2.53,0.86
					l-0.49-0.83c0.74-0.48,1.96-1.04,3.23-1.04c1.98,0,2.94,1.17,2.94,2.97v4.43h-1.03l-0.1-0.98h-0.04
					c-0.79,0.62-1.83,1.16-2.84,1.16C349.69,528.62,348.57,527.87,348.57,526.57z M353.82,526.56v-1.87
					c-3.09,0.24-4.03,0.85-4.03,1.8c0,0.82,0.74,1.14,1.58,1.14C352.18,527.63,352.99,527.24,353.82,526.56z"/>
				<path class="st3" d="M358.82,527.64h-0.04l-0.12,0.8h-0.98v-10.58h1.23v2.88l-0.06,1.4h0.04c0.65-0.67,1.58-1.1,2.42-1.1
					c1.95,0,3,1.44,3,3.67c0,2.47-1.55,3.91-3.25,3.91C360.35,528.62,359.49,528.25,358.82,527.64z M363.06,524.73
					c0-1.59-0.59-2.65-2.04-2.65c-0.64,0-1.38,0.33-2.11,1.07v3.6c0.67,0.61,1.43,0.83,1.95,0.83
					C362.11,527.58,363.06,526.51,363.06,524.73z"/>
				<path class="st3" d="M367.36,521.22h1.03l0.12,1.71h0.03c0.76-1.17,1.89-1.89,3.22-1.89c0.54,0,0.98,0.07,1.43,0.3l-0.28,1.06
					c-0.5-0.16-0.77-0.24-1.34-0.24c-1.08,0-2.11,0.55-2.97,2.07v4.22h-1.23L367.36,521.22L367.36,521.22z"/>
				<path class="st3" d="M378.8,522.22h-3.34v-1h4.58v7.22h-1.23L378.8,522.22L378.8,522.22z M378.31,518.75
					c0-0.56,0.42-0.95,0.98-0.95s0.98,0.39,0.98,0.95c0,0.58-0.42,0.95-0.98,0.95S378.31,519.34,378.31,518.75z"/>
				<path class="st3" d="M384.22,524.85c0-2.42,1.84-3.8,4.03-3.8c1.17,0,2.04,0.48,2.63,1.06l-0.61,0.79
					c-0.59-0.5-1.22-0.82-1.98-0.82c-1.66,0-2.81,1.12-2.81,2.78c0,1.65,1.13,2.75,2.78,2.75c0.89,0,1.63-0.4,2.23-0.91l0.55,0.8
					c-0.8,0.71-1.8,1.13-2.87,1.13C385.92,528.62,384.22,527.24,384.22,524.85z"/>
				<path class="st3" d="M393.14,526.57c0-1.62,1.52-2.41,5.25-2.7c-0.04-0.98-0.52-1.81-1.92-1.81c-0.94,0-1.86,0.45-2.53,0.86
					l-0.49-0.83c0.74-0.48,1.96-1.04,3.23-1.04c1.98,0,2.94,1.17,2.94,2.97v4.43h-1.03l-0.1-0.98h-0.04
					c-0.79,0.62-1.83,1.16-2.84,1.16C394.25,528.62,393.14,527.87,393.14,526.57z M398.38,526.56v-1.87
					c-3.09,0.24-4.03,0.85-4.03,1.8c0,0.82,0.74,1.14,1.58,1.14C396.75,527.63,397.55,527.24,398.38,526.56z"/>
				<path class="st3" d="M403.92,525.64v-3.42h-2.05v-0.92l2.1-0.07l0.16-2.32h1.03v2.32h3.54v1h-3.54v3.43
					c0,1.29,0.43,1.96,1.83,1.96c0.67,0,1.2-0.13,1.72-0.33l0.27,0.91c-0.65,0.24-1.35,0.43-2.26,0.43
					C404.6,528.62,403.92,527.42,403.92,525.64z"/>
				<path class="st3" d="M414.45,522.22h-3.34v-1h4.58v7.22h-1.23L414.45,522.22L414.45,522.22z M413.96,518.75
					c0-0.56,0.42-0.95,0.98-0.95s0.98,0.39,0.98,0.95c0,0.58-0.42,0.95-0.98,0.95S413.96,519.34,413.96,518.75z"/>
				<path class="st3" d="M419.58,524.85c0-2.42,1.67-3.8,3.57-3.8s3.57,1.38,3.57,3.8c0,2.39-1.66,3.78-3.57,3.78
					S419.58,527.24,419.58,524.85z M425.45,524.85c0-1.66-0.92-2.78-2.3-2.78c-1.38,0-2.3,1.12-2.3,2.78c0,1.65,0.92,2.75,2.3,2.75
					C424.53,527.6,425.45,526.5,425.45,524.85z"/>
				<path class="st3" d="M428.98,521.22h1.01l0.1,1.22h0.06c0.76-0.79,1.59-1.4,2.72-1.4c1.71,0,2.5,1.01,2.5,2.91v4.49h-1.23v-4.33
					c0-1.37-0.48-2.01-1.65-2.01c-0.86,0-1.44,0.43-2.27,1.29v5.04h-1.23v-7.21H428.98z"/>
			</g>
		</g>
		<g>
			<g>
				<path class="st3" d="M349.44,295.06c0-0.58,0.42-1.16,1.19-1.6v-0.06c-0.39-0.21-0.74-0.58-0.74-1.19
					c0-0.46,0.31-0.98,0.86-1.35v-0.06c-0.49-0.37-0.89-1.01-0.89-1.87c0-1.58,1.31-2.59,2.84-2.59c0.42,0,0.76,0.06,1.07,0.18h2.99
					v1h-1.87c0.33,0.34,0.61,0.88,0.61,1.46c0,1.55-1.23,2.48-2.79,2.48c-0.37,0-0.82-0.09-1.22-0.27
					c-0.36,0.22-0.57,0.49-0.57,0.83c0,0.56,0.55,0.83,1.5,0.83h1.62c1.86,0,2.75,0.48,2.75,1.69c0,1.35-1.56,2.53-4.01,2.53
					C350.66,297.07,349.44,296.34,349.44,295.06z M355.58,294.73c0-0.68-0.55-0.88-1.65-0.88h-1.41c-0.42,0-0.79-0.03-1.1-0.12
					c-0.68,0.37-0.92,0.79-0.92,1.2c0,0.76,0.82,1.23,2.36,1.23C354.54,296.17,355.58,295.48,355.58,294.73z M354.36,288.92
					c0-1.01-0.74-1.69-1.66-1.69c-0.91,0-1.67,0.68-1.67,1.69c0,1.04,0.76,1.71,1.67,1.71
					C353.62,290.63,354.36,289.96,354.36,288.92z"/>
				<path class="st3" d="M358.3,290.11c0-2.35,1.75-3.78,3.69-3.78c2.08,0,3.3,1.35,3.3,3.39c0,0.28-0.03,0.55-0.06,0.74h-6.11
					v-0.95h5.38l-0.31,0.34c0-1.71-0.85-2.56-2.17-2.56c-1.34,0-2.5,1.01-2.5,2.81c0,1.87,1.22,2.82,2.82,2.82
					c0.86,0,1.55-0.27,2.2-0.68l0.45,0.8c-0.71,0.48-1.63,0.86-2.79,0.86C360.02,293.92,358.3,292.52,358.3,290.11z"/>
				<path class="st3" d="M367.58,286.51h1.01l0.1,1.22h0.06c0.76-0.79,1.59-1.4,2.72-1.4c1.71,0,2.5,1.01,2.5,2.91v4.49h-1.23v-4.33
					c0-1.37-0.48-2.01-1.65-2.01c-0.86,0-1.44,0.43-2.27,1.29v5.04h-1.24V286.51z"/>
				<path class="st3" d="M376.12,290.11c0-2.35,1.75-3.78,3.69-3.78c2.08,0,3.3,1.35,3.3,3.39c0,0.28-0.03,0.55-0.06,0.74h-6.11
					v-0.95h5.38l-0.31,0.34c0-1.71-0.85-2.56-2.17-2.56c-1.34,0-2.5,1.01-2.5,2.81c0,1.87,1.22,2.82,2.82,2.82
					c0.86,0,1.55-0.27,2.2-0.68l0.45,0.8c-0.71,0.48-1.63,0.86-2.79,0.86C377.85,293.92,376.12,292.52,376.12,290.11z"/>
				<path class="st3" d="M386.18,286.51h1.03l0.12,1.71h0.03c0.76-1.17,1.89-1.89,3.22-1.89c0.54,0,0.98,0.07,1.43,0.3l-0.28,1.06
					c-0.5-0.16-0.77-0.24-1.34-0.24c-1.08,0-2.11,0.55-2.97,2.07v4.22h-1.23L386.18,286.51L386.18,286.51z"/>
				<path class="st3" d="M394.13,291.86c0-1.62,1.52-2.41,5.25-2.7c-0.04-0.98-0.52-1.81-1.92-1.81c-0.94,0-1.86,0.45-2.53,0.86
					l-0.49-0.83c0.74-0.48,1.96-1.04,3.23-1.04c1.98,0,2.94,1.17,2.94,2.97v4.43h-1.03l-0.1-0.98h-0.04
					c-0.79,0.62-1.83,1.16-2.84,1.16C395.24,293.92,394.13,293.16,394.13,291.86z M399.37,291.85v-1.87
					c-3.09,0.24-4.03,0.85-4.03,1.8c0,0.82,0.74,1.14,1.58,1.14C397.74,292.92,398.54,292.53,399.37,291.85z"/>
				<path class="st3" d="M404.91,290.93v-3.42h-2.05v-0.92l2.1-0.07l0.16-2.32h1.03v2.32h3.54v1h-3.54v3.43
					c0,1.29,0.43,1.96,1.83,1.96c0.67,0,1.2-0.13,1.72-0.33l0.27,0.91c-0.65,0.24-1.35,0.43-2.26,0.43
					C405.59,293.92,404.91,292.71,404.91,290.93z"/>
				<path class="st3" d="M415.44,287.51h-3.34v-1h4.58v7.22h-1.23L415.44,287.51L415.44,287.51z M414.95,284.05
					c0-0.56,0.42-0.95,0.98-0.95s0.98,0.39,0.98,0.95c0,0.58-0.42,0.95-0.98,0.95S414.95,284.63,414.95,284.05z"/>
				<path class="st3" d="M420.57,290.14c0-2.42,1.67-3.8,3.57-3.8s3.57,1.38,3.57,3.8c0,2.39-1.66,3.78-3.57,3.78
					S420.57,292.53,420.57,290.14z M426.44,290.14c0-1.66-0.92-2.78-2.3-2.78c-1.38,0-2.3,1.12-2.3,2.78c0,1.65,0.92,2.75,2.3,2.75
					C425.52,292.89,426.44,291.79,426.44,290.14z"/>
				<path class="st3" d="M429.97,286.51h1.01l0.1,1.22h0.06c0.76-0.79,1.59-1.4,2.72-1.4c1.71,0,2.5,1.01,2.5,2.91v4.49h-1.23v-4.33
					c0-1.37-0.48-2.01-1.65-2.01c-0.86,0-1.44,0.43-2.27,1.29v5.04h-1.23v-7.21H429.97z"/>
			</g>
		</g>
		<g>
			<g>
				<path class="st3" d="M364.86,407.49c0-2.35,1.56-3.8,3.27-3.8c0.86,0,1.53,0.34,2.17,0.92h0.03l-0.06-1.32v-2.78h1.23v10.58
					h-1.01l-0.1-0.95h-0.04c-0.59,0.61-1.46,1.13-2.36,1.13C366.11,411.27,364.86,409.9,364.86,407.49z M370.27,409.16v-3.6
					c-0.65-0.61-1.26-0.83-1.89-0.83c-1.25,0-2.26,1.1-2.26,2.75c0,1.72,0.8,2.75,2.13,2.75
					C368.96,410.23,369.63,409.87,370.27,409.16z"/>
				<path class="st3" d="M373.89,407.46c0-2.35,1.75-3.78,3.69-3.78c2.08,0,3.3,1.35,3.3,3.39c0,0.28-0.03,0.55-0.06,0.74h-6.11
					v-0.95h5.38l-0.31,0.34c0-1.71-0.85-2.56-2.17-2.56c-1.34,0-2.5,1.01-2.5,2.81c0,1.87,1.22,2.82,2.82,2.82
					c0.86,0,1.55-0.27,2.2-0.68l0.45,0.8c-0.71,0.48-1.63,0.86-2.79,0.86C375.62,411.27,373.89,409.87,373.89,407.46z"/>
				<path class="st3" d="M382.98,407.49c0-2.42,1.84-3.8,4.03-3.8c1.17,0,2.04,0.48,2.63,1.06l-0.61,0.79
					c-0.59-0.5-1.22-0.82-1.98-0.82c-1.66,0-2.81,1.12-2.81,2.78c0,1.65,1.13,2.75,2.78,2.75c0.89,0,1.63-0.4,2.23-0.91l0.55,0.8
					c-0.8,0.71-1.8,1.13-2.87,1.13C384.68,411.27,382.98,409.89,382.98,407.49z"/>
				<path class="st3" d="M391.6,407.49c0-2.42,1.67-3.8,3.57-3.8s3.57,1.38,3.57,3.8c0,2.39-1.66,3.78-3.57,3.78
					S391.6,409.89,391.6,407.49z M397.47,407.49c0-1.66-0.92-2.78-2.3-2.78c-1.38,0-2.3,1.12-2.3,2.78c0,1.65,0.92,2.75,2.3,2.75
					S397.47,409.14,397.47,407.49z"/>
				<path class="st3" d="M400.51,407.49c0-2.35,1.56-3.8,3.27-3.8c0.86,0,1.53,0.34,2.17,0.92h0.03l-0.06-1.32v-2.78h1.23v10.58
					h-1.01l-0.1-0.95H406c-0.59,0.61-1.46,1.13-2.36,1.13C401.76,411.27,400.51,409.9,400.51,407.49z M405.92,409.16v-3.6
					c-0.65-0.61-1.26-0.83-1.89-0.83c-1.25,0-2.26,1.1-2.26,2.75c0,1.72,0.8,2.75,2.13,2.75
					C404.61,410.23,405.28,409.87,405.92,409.16z"/>
				<path class="st3" d="M413.21,404.86h-3.34v-1h4.58v7.22h-1.23L413.21,404.86L413.21,404.86z M412.72,401.4
					c0-0.56,0.42-0.95,0.98-0.95s0.98,0.39,0.98,0.95c0,0.58-0.42,0.95-0.98,0.95S412.72,401.98,412.72,401.4z"/>
				<path class="st3" d="M418.83,403.87h1.01l0.1,1.22H420c0.76-0.79,1.59-1.4,2.72-1.4c1.71,0,2.5,1.01,2.5,2.91v4.49h-1.23v-4.33
					c0-1.37-0.48-2.01-1.65-2.01c-0.86,0-1.44,0.43-2.27,1.29v5.04h-1.23v-7.21H418.83z"/>
				<path class="st3" d="M427.43,412.41c0-0.58,0.42-1.16,1.19-1.6v-0.06c-0.39-0.21-0.74-0.58-0.74-1.19
					c0-0.46,0.31-0.98,0.86-1.35v-0.06c-0.49-0.37-0.89-1.01-0.89-1.87c0-1.58,1.31-2.59,2.84-2.59c0.42,0,0.76,0.06,1.07,0.18h2.99
					v1h-1.87c0.33,0.34,0.61,0.88,0.61,1.46c0,1.55-1.23,2.48-2.79,2.48c-0.37,0-0.82-0.09-1.22-0.27
					c-0.36,0.22-0.57,0.49-0.57,0.83c0,0.56,0.55,0.83,1.5,0.83h1.62c1.86,0,2.75,0.48,2.75,1.69c0,1.35-1.56,2.53-4.01,2.53
					C428.65,414.42,427.43,413.69,427.43,412.41z M433.57,412.09c0-0.68-0.55-0.88-1.65-0.88h-1.41c-0.42,0-0.79-0.03-1.1-0.12
					c-0.68,0.37-0.92,0.79-0.92,1.2c0,0.76,0.82,1.23,2.36,1.23C432.53,413.53,433.57,412.83,433.57,412.09z M432.35,406.28
					c0-1.01-0.74-1.69-1.66-1.69c-0.91,0-1.67,0.68-1.67,1.69c0,1.04,0.76,1.71,1.67,1.71
					C431.61,407.98,432.35,407.32,432.35,406.28z"/>
			</g>
		</g>
		<g>
			<g>
				<path class="st3" d="M668.61,487.93c0-2.35,1.75-3.78,3.69-3.78c2.08,0,3.3,1.35,3.3,3.39c0,0.28-0.03,0.55-0.06,0.74h-6.11
					v-0.95h5.38l-0.31,0.34c0-1.71-0.85-2.56-2.17-2.56c-1.34,0-2.5,1.01-2.5,2.81c0,1.87,1.22,2.82,2.82,2.82
					c0.86,0,1.55-0.27,2.2-0.68l0.45,0.8c-0.71,0.48-1.63,0.86-2.79,0.86C670.33,491.73,668.61,490.34,668.61,487.93z"/>
				<path class="st3" d="M677.25,484.33h1.26l1.66,4.09c0.28,0.73,0.55,1.44,0.8,2.14h0.06c0.25-0.7,0.49-1.41,0.79-2.14l1.67-4.09
					h1.19l-3,7.22h-1.38L677.25,484.33z"/>
				<path class="st3" d="M686.61,489.68c0-1.62,1.52-2.41,5.25-2.7c-0.04-0.98-0.52-1.81-1.92-1.81c-0.94,0-1.86,0.45-2.53,0.86
					l-0.49-0.83c0.74-0.48,1.96-1.04,3.23-1.04c1.98,0,2.94,1.17,2.94,2.97v4.43h-1.03l-0.1-0.98h-0.04
					c-0.79,0.62-1.83,1.16-2.84,1.16C687.73,491.73,686.61,490.97,686.61,489.68z M691.86,489.67v-1.87
					c-3.09,0.24-4.03,0.85-4.03,1.8c0,0.82,0.74,1.14,1.58,1.14C690.22,490.74,691.03,490.35,691.86,489.67z"/>
				<path class="st3" d="M697.99,489.13v-7.16h-2.56v-1h3.79v8.25c0,1.04,0.56,1.49,1.43,1.49c0.42,0,0.86-0.1,1.35-0.33l0.31,0.92
					c-0.67,0.28-1.14,0.43-1.93,0.43C698.84,491.73,697.99,490.84,697.99,489.13z"/>
				<path class="st3" d="M704.39,488.82v-4.49h1.23v4.32c0,1.35,0.48,2.01,1.66,2.01c0.83,0,1.44-0.39,2.25-1.32v-5.01h1.23v7.22
					h-1.03l-0.1-1.26h-0.05c-0.73,0.85-1.58,1.44-2.69,1.44C705.18,491.73,704.39,490.72,704.39,488.82z"/>
				<path class="st3" d="M713.35,489.68c0-1.62,1.52-2.41,5.25-2.7c-0.04-0.98-0.52-1.81-1.92-1.81c-0.94,0-1.86,0.45-2.53,0.86
					l-0.49-0.83c0.74-0.48,1.96-1.04,3.23-1.04c1.98,0,2.94,1.17,2.94,2.97v4.43h-1.03l-0.1-0.98h-0.04
					c-0.79,0.62-1.83,1.16-2.84,1.16C714.47,491.73,713.35,490.97,713.35,489.68z M718.6,489.67v-1.87
					c-3.09,0.24-4.03,0.85-4.03,1.8c0,0.82,0.74,1.14,1.58,1.14C716.96,490.74,717.76,490.35,718.6,489.67z"/>
				<path class="st3" d="M724.14,488.75v-3.42h-2.05v-0.92l2.1-0.07l0.16-2.32h1.03v2.32h3.54v1h-3.54v3.43
					c0,1.29,0.43,1.96,1.83,1.96c0.67,0,1.2-0.13,1.72-0.33l0.27,0.91c-0.65,0.24-1.35,0.43-2.26,0.43
					C724.82,491.73,724.14,490.53,724.14,488.75z"/>
				<path class="st3" d="M734.67,485.33h-3.34v-1h4.58v7.22h-1.23v-6.22H734.67z M734.18,481.86c0-0.56,0.42-0.95,0.98-0.95
					s0.98,0.39,0.98,0.95c0,0.58-0.42,0.95-0.98,0.95S734.18,482.44,734.18,481.86z"/>
				<path class="st3" d="M739.79,487.96c0-2.42,1.67-3.8,3.57-3.8s3.57,1.38,3.57,3.8c0,2.39-1.66,3.78-3.57,3.78
					S739.79,490.35,739.79,487.96z M745.66,487.96c0-1.66-0.92-2.78-2.3-2.78s-2.3,1.12-2.3,2.78c0,1.65,0.92,2.75,2.3,2.75
					C744.74,490.71,745.66,489.61,745.66,487.96z"/>
				<path class="st3" d="M749.2,484.33h1.01l0.1,1.22h0.06c0.76-0.79,1.59-1.4,2.72-1.4c1.71,0,2.5,1.01,2.5,2.91v4.49h-1.23v-4.33
					c0-1.37-0.48-2.01-1.65-2.01c-0.86,0-1.44,0.43-2.27,1.29v5.04h-1.23L749.2,484.33L749.2,484.33z"/>
			</g>
		</g>
		<g>
			<g>
				<path class="st3" d="M802.4,243.93h0.98l0.1,0.95h0.03c0.37-0.67,0.82-1.13,1.65-1.13c0.71,0,1.16,0.42,1.37,1.25
					c0.42-0.77,0.86-1.25,1.69-1.25c1.01,0,1.61,0.79,1.61,2.23v5.17h-1.22v-5.08c0-0.83-0.24-1.26-0.77-1.26
					c-0.51,0-0.77,0.37-1.16,1.11v5.23h-1.13v-5.08c0-0.83-0.21-1.26-0.74-1.26c-0.5,0-0.83,0.37-1.19,1.11v5.23h-1.22L802.4,243.93
					L802.4,243.93z"/>
				<path class="st3" d="M811.34,247.56c0-2.42,1.67-3.8,3.57-3.8s3.57,1.38,3.57,3.8c0,2.39-1.66,3.78-3.57,3.78
					S811.34,249.95,811.34,247.56z M817.21,247.56c0-1.66-0.92-2.78-2.3-2.78s-2.3,1.12-2.3,2.78c0,1.65,0.92,2.75,2.3,2.75
					S817.21,249.21,817.21,247.56z"/>
				<path class="st3" d="M820.26,247.56c0-2.35,1.56-3.8,3.27-3.8c0.86,0,1.53,0.34,2.17,0.92h0.03l-0.06-1.32v-2.78h1.23v10.58
					h-1.01l-0.1-0.95h-0.04c-0.59,0.61-1.46,1.13-2.36,1.13C821.5,251.33,820.26,249.96,820.26,247.56z M825.67,249.22v-3.6
					c-0.65-0.61-1.26-0.83-1.89-0.83c-1.25,0-2.26,1.1-2.26,2.75c0,1.72,0.8,2.75,2.13,2.75
					C824.36,250.29,825.03,249.94,825.67,249.22z"/>
				<path class="st3" d="M832.96,244.93h-3.34v-1h4.58v7.22h-1.23v-6.22H832.96z M832.47,241.46c0-0.56,0.42-0.95,0.98-0.95
					s0.98,0.39,0.98,0.95c0,0.58-0.42,0.95-0.98,0.95S832.47,242.04,832.47,241.46z"/>
				<path class="st3" d="M838.72,244.01l2.09-0.07h4.21v1h-6.3L838.72,244.01L838.72,244.01z M840.79,243.32
					c0-1.75,0.92-2.93,2.91-2.93c0.71,0,1.4,0.13,2.08,0.42l-0.28,0.92c-0.59-0.25-1.05-0.34-1.68-0.34c-1.29,0-1.81,0.73-1.81,1.89
					v7.88h-1.22V243.32z"/>
				<path class="st3" d="M850.78,244.93h-3.34v-1h4.58v7.22h-1.23v-6.22H850.78z M850.29,241.46c0-0.56,0.42-0.95,0.98-0.95
					s0.98,0.39,0.98,0.95c0,0.58-0.42,0.95-0.98,0.95S850.29,242.04,850.29,241.46z"/>
				<path class="st3" d="M856.2,247.56c0-2.42,1.84-3.8,4.03-3.8c1.17,0,2.04,0.48,2.63,1.06l-0.61,0.79
					c-0.59-0.5-1.22-0.82-1.98-0.82c-1.66,0-2.81,1.12-2.81,2.78c0,1.65,1.13,2.75,2.78,2.75c0.89,0,1.63-0.4,2.23-0.91l0.55,0.8
					c-0.8,0.71-1.8,1.13-2.87,1.13C857.9,251.33,856.2,249.95,856.2,247.56z"/>
				<path class="st3" d="M865.12,249.28c0-1.62,1.52-2.41,5.25-2.7c-0.04-0.98-0.52-1.81-1.92-1.81c-0.94,0-1.86,0.45-2.53,0.86
					l-0.49-0.83c0.74-0.48,1.96-1.04,3.23-1.04c1.98,0,2.94,1.17,2.94,2.97v4.43h-1.03l-0.1-0.98h-0.04
					c-0.79,0.62-1.83,1.16-2.84,1.16C866.23,251.33,865.12,250.57,865.12,249.28z M870.36,249.27v-1.87
					c-3.09,0.24-4.03,0.85-4.03,1.8c0,0.82,0.74,1.14,1.58,1.14C868.73,250.34,869.53,249.95,870.36,249.27z"/>
				<path class="st3" d="M875.9,248.35v-3.42h-2.05v-0.92l2.1-0.07l0.16-2.32h1.03v2.32h3.54v1h-3.54v3.43
					c0,1.29,0.43,1.96,1.83,1.96c0.67,0,1.2-0.13,1.72-0.33l0.27,0.91c-0.65,0.24-1.35,0.43-2.26,0.43
					C876.59,251.33,875.9,250.13,875.9,248.35z"/>
				<path class="st3" d="M886.44,244.93h-3.34v-1h4.58v7.22h-1.23v-6.22H886.44z M885.95,241.46c0-0.56,0.42-0.95,0.98-0.95
					s0.98,0.39,0.98,0.95c0,0.58-0.42,0.95-0.98,0.95S885.95,242.04,885.95,241.46z"/>
				<path class="st3" d="M891.56,247.56c0-2.42,1.67-3.8,3.57-3.8s3.57,1.38,3.57,3.8c0,2.39-1.66,3.78-3.57,3.78
					S891.56,249.95,891.56,247.56z M897.43,247.56c0-1.66-0.92-2.78-2.3-2.78s-2.3,1.12-2.3,2.78c0,1.65,0.92,2.75,2.3,2.75
					S897.43,249.21,897.43,247.56z"/>
				<path class="st3" d="M900.96,243.93h1.01l0.1,1.22h0.06c0.76-0.79,1.59-1.4,2.72-1.4c1.71,0,2.5,1.01,2.5,2.91v4.49h-1.23v-4.33
					c0-1.37-0.48-2.01-1.65-2.01c-0.86,0-1.44,0.43-2.27,1.29v5.04h-1.23L900.96,243.93L900.96,243.93z"/>
			</g>
		</g>
		<g>
			<g>
				<path class="st3" d="M803.36,108.5h0.98l0.1,0.95h0.03c0.37-0.67,0.82-1.13,1.65-1.13c0.71,0,1.16,0.42,1.37,1.25
					c0.42-0.77,0.86-1.25,1.69-1.25c1.01,0,1.61,0.79,1.61,2.23v5.17h-1.22v-5.08c0-0.83-0.24-1.26-0.77-1.26
					c-0.51,0-0.77,0.37-1.16,1.11v5.23h-1.13v-5.08c0-0.83-0.21-1.26-0.74-1.26c-0.5,0-0.83,0.37-1.19,1.11v5.23h-1.22L803.36,108.5
					L803.36,108.5z"/>
				<path class="st3" d="M812.3,112.13c0-2.42,1.67-3.8,3.57-3.8s3.57,1.38,3.57,3.8c0,2.39-1.66,3.77-3.57,3.77
					S812.3,114.52,812.3,112.13z M818.17,112.13c0-1.66-0.92-2.78-2.3-2.78s-2.3,1.11-2.3,2.78c0,1.65,0.92,2.75,2.3,2.75
					C817.25,114.88,818.17,113.78,818.17,112.13z"/>
				<path class="st3" d="M821.22,112.13c0-2.35,1.56-3.8,3.27-3.8c0.86,0,1.53,0.34,2.17,0.92h0.03l-0.06-1.32v-2.78h1.23v10.58
					h-1.01l-0.1-0.95h-0.04c-0.59,0.61-1.46,1.13-2.36,1.13C822.46,115.9,821.22,114.54,821.22,112.13z M826.63,113.79v-3.6
					c-0.65-0.61-1.26-0.83-1.89-0.83c-1.25,0-2.26,1.1-2.26,2.75c0,1.72,0.8,2.75,2.13,2.75
					C825.32,114.86,825.99,114.51,826.63,113.79z"/>
				<path class="st3" d="M833.92,109.5h-3.34v-1h4.58v7.22h-1.23v-6.22H833.92z M833.43,106.04c0-0.56,0.42-0.95,0.98-0.95
					s0.98,0.39,0.98,0.95c0,0.58-0.42,0.95-0.98,0.95S833.43,106.62,833.43,106.04z"/>
				<path class="st3" d="M839.68,108.58l2.09-0.07h4.21v1h-6.3L839.68,108.58L839.68,108.58z M841.75,107.89
					c0-1.75,0.92-2.93,2.91-2.93c0.71,0,1.4,0.13,2.08,0.42l-0.28,0.92c-0.59-0.25-1.05-0.34-1.68-0.34c-1.29,0-1.81,0.73-1.81,1.89
					v7.88h-1.22V107.89z"/>
				<path class="st3" d="M851.74,109.5h-3.34v-1h4.58v7.22h-1.23v-6.22H851.74z M851.25,106.04c0-0.56,0.42-0.95,0.98-0.95
					s0.98,0.39,0.98,0.95c0,0.58-0.42,0.95-0.98,0.95S851.25,106.62,851.25,106.04z"/>
				<path class="st3" d="M857.16,112.13c0-2.42,1.84-3.8,4.03-3.8c1.17,0,2.04,0.48,2.63,1.06l-0.61,0.79
					c-0.59-0.5-1.22-0.82-1.98-0.82c-1.66,0-2.81,1.11-2.81,2.78c0,1.65,1.13,2.75,2.78,2.75c0.89,0,1.63-0.4,2.23-0.91l0.55,0.8
					c-0.8,0.71-1.8,1.13-2.87,1.13C858.86,115.9,857.16,114.52,857.16,112.13z"/>
				<path class="st3" d="M866.08,113.85c0-1.62,1.52-2.41,5.25-2.71c-0.04-0.98-0.52-1.81-1.92-1.81c-0.94,0-1.86,0.45-2.53,0.86
					l-0.49-0.83c0.74-0.48,1.96-1.04,3.23-1.04c1.98,0,2.94,1.17,2.94,2.97v4.43h-1.03l-0.1-0.98h-0.04
					c-0.79,0.62-1.83,1.16-2.84,1.16C867.19,115.9,866.08,115.15,866.08,113.85z M871.32,113.84v-1.87
					c-3.09,0.24-4.03,0.85-4.03,1.8c0,0.82,0.74,1.14,1.58,1.14C869.69,114.91,870.49,114.52,871.32,113.84z"/>
				<path class="st3" d="M876.86,112.92v-3.42h-2.05v-0.92l2.1-0.07l0.16-2.32h1.03v2.32h3.54v1h-3.54v3.43
					c0,1.29,0.43,1.96,1.83,1.96c0.67,0,1.2-0.13,1.72-0.33l0.27,0.91c-0.65,0.24-1.35,0.43-2.26,0.43
					C877.55,115.9,876.86,114.7,876.86,112.92z"/>
				<path class="st3" d="M887.4,109.5h-3.34v-1h4.58v7.22h-1.23v-6.22H887.4z M886.91,106.04c0-0.56,0.42-0.95,0.98-0.95
					s0.98,0.39,0.98,0.95c0,0.58-0.42,0.95-0.98,0.95S886.91,106.62,886.91,106.04z"/>
				<path class="st3" d="M892.52,112.13c0-2.42,1.67-3.8,3.57-3.8s3.57,1.38,3.57,3.8c0,2.39-1.66,3.77-3.57,3.77
					S892.52,114.52,892.52,112.13z M898.39,112.13c0-1.66-0.92-2.78-2.3-2.78s-2.3,1.11-2.3,2.78c0,1.65,0.92,2.75,2.3,2.75
					S898.39,113.78,898.39,112.13z"/>
				<path class="st3" d="M901.92,108.5h1.01l0.1,1.22h0.06c0.76-0.79,1.59-1.4,2.72-1.4c1.71,0,2.5,1.01,2.5,2.91v4.49h-1.23v-4.32
					c0-1.37-0.48-2.01-1.65-2.01c-0.86,0-1.44,0.43-2.27,1.29v5.04h-1.23L901.92,108.5L901.92,108.5z"/>
			</g>
		</g>
		<g>
			<g>
				<path class="st3" d="M626.91,228.09c0-6.29,3.71-10.12,8.65-10.12c2.37,0,4.22,1.15,5.36,2.41l-1.36,1.62
					c-1.03-1.09-2.31-1.84-3.96-1.84c-3.68,0-6.13,3.02-6.13,7.88c0,4.9,2.34,7.97,6.04,7.97c1.86,0,3.27-0.81,4.52-2.19l1.36,1.56
					c-1.54,1.79-3.45,2.81-5.98,2.81C630.55,238.18,626.91,234.42,626.91,228.09z"/>
				<path class="st3" d="M643.87,228c0-6.25,3.44-10.04,8.33-10.04c4.9,0,8.33,3.8,8.33,10.04c0,6.25-3.44,10.18-8.33,10.18
					C647.31,238.18,643.87,234.25,643.87,228z M657.98,228c0-4.86-2.29-7.85-5.77-7.85s-5.77,3-5.77,7.85s2.29,7.99,5.77,7.99
					S657.98,232.86,657.98,228z"/>
				<path class="st3" d="M664.73,218.33h2.56l7.06,12.26l2.1,4.04h0.12c-0.13-1.97-0.32-4.17-0.32-6.2v-10.09h2.36v19.5h-2.56
					l-7.06-12.27l-2.1-4.03h-0.12c0.13,1.97,0.32,4.05,0.32,6.09v10.2h-2.36V218.33z"/>
				<path class="st3" d="M683.95,218.33h4.88c6,0,9.21,3.48,9.21,9.68c0,6.19-3.21,9.82-9.1,9.82h-4.99L683.95,218.33L683.95,218.33
					z M688.65,235.79c4.56,0,6.83-2.86,6.83-7.79s-2.27-7.64-6.83-7.64h-2.21v15.43L688.65,235.79L688.65,235.79z"/>
				<path class="st3" d="M702.22,218.33h2.48v19.5h-2.48V218.33z"/>
				<path class="st3" d="M714.1,220.43h-5.9v-2.1h14.28v2.1h-5.9v17.4h-2.48V220.43z"/>
				<path class="st3" d="M725.96,218.33h2.48v19.5h-2.48V218.33z"/>
				<path class="st3" d="M732.64,228c0-6.25,3.44-10.04,8.33-10.04c4.9,0,8.33,3.8,8.33,10.04c0,6.25-3.44,10.18-8.33,10.18
					C736.08,238.18,732.64,234.25,732.64,228z M746.75,228c0-4.86-2.29-7.85-5.77-7.85s-5.77,3-5.77,7.85s2.29,7.99,5.77,7.99
					S746.75,232.86,746.75,228z"/>
				<path class="st3" d="M753.5,218.33h2.56l7.06,12.26l2.1,4.04h0.12c-0.13-1.97-0.32-4.17-0.32-6.2v-10.09h2.36v19.5h-2.56
					l-7.06-12.27l-2.1-4.03h-0.12c0.13,1.97,0.32,4.05,0.32,6.09v10.2h-2.36V218.33z"/>
				<path class="st3" d="M771.31,235.29l1.48-1.7c1.4,1.46,3.35,2.42,5.38,2.42c2.56,0,4.08-1.27,4.08-3.17
					c0-1.99-1.41-2.63-3.25-3.43l-2.8-1.24c-1.82-0.78-3.95-2.15-3.95-5.02c0-2.98,2.6-5.18,6.14-5.18c2.31,0,4.37,1,5.74,2.42
					l-1.32,1.59c-1.19-1.13-2.62-1.83-4.43-1.83c-2.19,0-3.63,1.1-3.63,2.85c0,1.88,1.7,2.58,3.23,3.23l2.78,1.2
					c2.26,0.97,4.02,2.31,4.02,5.21c0,3.08-2.54,5.54-6.64,5.54C775.39,238.18,773.01,237.06,771.31,235.29z"/>
			</g>
		</g>
		<g>
			<g>
				<path class="st3" d="M171.79,279.18v-7.16h-2.56v-1h3.79v8.25c0,1.04,0.56,1.49,1.43,1.49c0.42,0,0.86-0.1,1.35-0.33l0.31,0.92
					c-0.67,0.28-1.14,0.43-1.93,0.43C172.64,281.79,171.79,280.89,171.79,279.18z"/>
				<path class="st3" d="M178.06,277.98c0-2.35,1.75-3.78,3.69-3.78c2.08,0,3.3,1.35,3.3,3.39c0,0.28-0.03,0.55-0.06,0.74h-6.11
					v-0.95h5.38l-0.31,0.34c0-1.71-0.85-2.56-2.17-2.56c-1.34,0-2.5,1.01-2.5,2.81c0,1.87,1.22,2.82,2.82,2.82
					c0.86,0,1.55-0.27,2.2-0.68l0.45,0.8c-0.71,0.48-1.63,0.86-2.79,0.86C179.78,281.79,178.06,280.39,178.06,277.98z"/>
				<path class="st3" d="M187.15,279.73c0-1.62,1.52-2.41,5.25-2.7c-0.04-0.98-0.52-1.81-1.92-1.81c-0.94,0-1.86,0.45-2.53,0.86
					l-0.49-0.83c0.74-0.48,1.96-1.04,3.23-1.04c1.98,0,2.94,1.17,2.94,2.97v4.43h-1.03l-0.1-0.98h-0.04
					c-0.79,0.62-1.83,1.16-2.84,1.16C188.26,281.79,187.15,281.03,187.15,279.73z M192.39,279.72v-1.87
					c-3.09,0.24-4.03,0.85-4.03,1.8c0,0.82,0.74,1.14,1.58,1.14C190.76,280.79,191.56,280.4,192.39,279.72z"/>
				<path class="st3" d="M197.03,274.38h1.03l0.12,1.71h0.03c0.76-1.17,1.89-1.89,3.22-1.89c0.54,0,0.98,0.07,1.43,0.3l-0.28,1.06
					c-0.5-0.16-0.77-0.24-1.34-0.24c-1.08,0-2.11,0.55-2.97,2.07v4.22h-1.23L197.03,274.38L197.03,274.38z"/>
				<path class="st3" d="M205.17,274.38h1.01l0.1,1.22h0.06c0.76-0.79,1.59-1.4,2.72-1.4c1.71,0,2.5,1.01,2.5,2.91v4.49h-1.23v-4.33
					c0-1.37-0.48-2.01-1.65-2.01c-0.86,0-1.44,0.43-2.27,1.29v5.04h-1.23v-7.21H205.17z"/>
				<path class="st3" d="M217.38,275.38h-3.34v-1h4.58v7.22h-1.23L217.38,275.38L217.38,275.38z M216.89,271.92
					c0-0.56,0.42-0.95,0.98-0.95s0.98,0.39,0.98,0.95c0,0.58-0.42,0.95-0.98,0.95S216.89,272.5,216.89,271.92z"/>
				<path class="st3" d="M222.99,274.38H224l0.1,1.22h0.06c0.76-0.79,1.59-1.4,2.72-1.4c1.71,0,2.5,1.01,2.5,2.91v4.49h-1.23v-4.33
					c0-1.37-0.48-2.01-1.65-2.01c-0.86,0-1.44,0.43-2.27,1.29v5.04H223v-7.21H222.99z"/>
				<path class="st3" d="M231.59,282.93c0-0.58,0.42-1.16,1.19-1.6v-0.06c-0.39-0.21-0.74-0.58-0.74-1.19
					c0-0.46,0.31-0.98,0.86-1.35v-0.06c-0.49-0.37-0.89-1.01-0.89-1.87c0-1.58,1.31-2.59,2.84-2.59c0.42,0,0.76,0.06,1.07,0.18h2.99
					v1h-1.87c0.33,0.34,0.61,0.88,0.61,1.46c0,1.55-1.23,2.48-2.79,2.48c-0.37,0-0.82-0.09-1.22-0.27
					c-0.36,0.22-0.57,0.49-0.57,0.83c0,0.56,0.55,0.83,1.5,0.83h1.62c1.86,0,2.75,0.48,2.75,1.69c0,1.35-1.56,2.53-4.01,2.53
					C232.81,284.94,231.59,284.21,231.59,282.93z M237.73,282.6c0-0.68-0.55-0.88-1.65-0.88h-1.41c-0.42,0-0.79-0.03-1.1-0.12
					c-0.68,0.37-0.92,0.79-0.92,1.2c0,0.76,0.82,1.23,2.36,1.23C236.69,284.04,237.73,283.35,237.73,282.6z M236.51,276.79
					c0-1.01-0.74-1.69-1.66-1.69c-0.91,0-1.67,0.68-1.67,1.69c0,1.04,0.76,1.71,1.67,1.71C235.77,278.5,236.51,277.83,236.51,276.79
					z"/>
			</g>
		</g>
		<g>
			<g>
				<path class="st3" d="M615.99,390.26h-3.34v-1h4.58v7.22H616v-6.22H615.99z M615.5,386.79c0-0.56,0.42-0.95,0.98-0.95
					s0.98,0.39,0.98,0.95c0,0.58-0.42,0.95-0.98,0.95S615.5,387.37,615.5,386.79z"/>
				<path class="st3" d="M621.6,389.26h1.01l0.1,1.22h0.06c0.76-0.79,1.59-1.4,2.72-1.4c1.71,0,2.5,1.01,2.5,2.91v4.49h-1.23v-4.33
					c0-1.37-0.48-2.01-1.65-2.01c-0.86,0-1.44,0.43-2.27,1.29v5.04h-1.23L621.6,389.26L621.6,389.26z"/>
				<path class="st3" d="M630.66,389.34l2.09-0.07h4.21v1h-6.3L630.66,389.34L630.66,389.34z M632.73,388.65
					c0-1.75,0.92-2.93,2.91-2.93c0.71,0,1.4,0.13,2.08,0.42l-0.28,0.92c-0.59-0.25-1.05-0.34-1.68-0.34c-1.29,0-1.81,0.73-1.81,1.89
					v7.88h-1.22V388.65z"/>
				<path class="st3" d="M639.05,392.86c0-2.35,1.75-3.78,3.69-3.78c2.08,0,3.3,1.35,3.3,3.39c0,0.28-0.03,0.55-0.06,0.74h-6.11
					v-0.95h5.38l-0.31,0.34c0-1.71-0.85-2.56-2.17-2.56c-1.34,0-2.5,1.01-2.5,2.81c0,1.87,1.22,2.82,2.82,2.82
					c0.86,0,1.55-0.27,2.2-0.68l0.45,0.8c-0.71,0.48-1.63,0.86-2.79,0.86C640.78,396.66,639.05,395.27,639.05,392.86z"/>
				<path class="st3" d="M649.11,389.26h1.03l0.12,1.71h0.03c0.76-1.17,1.89-1.89,3.22-1.89c0.54,0,0.98,0.07,1.43,0.3l-0.28,1.06
					c-0.5-0.16-0.77-0.24-1.34-0.24c-1.08,0-2.11,0.55-2.97,2.07v4.22h-1.23v-7.23H649.11z"/>
				<path class="st3" d="M656.88,392.86c0-2.35,1.75-3.78,3.69-3.78c2.08,0,3.3,1.35,3.3,3.39c0,0.28-0.03,0.55-0.06,0.74h-6.11
					v-0.95h5.38l-0.31,0.34c0-1.71-0.85-2.56-2.17-2.56c-1.34,0-2.5,1.01-2.5,2.81c0,1.87,1.22,2.82,2.82,2.82
					c0.86,0,1.55-0.27,2.2-0.68l0.45,0.8c-0.71,0.48-1.63,0.86-2.79,0.86C658.6,396.66,656.88,395.27,656.88,392.86z"/>
				<path class="st3" d="M666.16,389.26h1.01l0.1,1.22h0.06c0.76-0.79,1.59-1.4,2.72-1.4c1.71,0,2.5,1.01,2.5,2.91v4.49h-1.23v-4.33
					c0-1.37-0.48-2.01-1.65-2.01c-0.86,0-1.44,0.43-2.27,1.29v5.04h-1.23L666.16,389.26L666.16,389.26z"/>
				<path class="st3" d="M674.88,392.89c0-2.42,1.84-3.8,4.03-3.8c1.17,0,2.04,0.48,2.63,1.06l-0.61,0.79
					c-0.59-0.5-1.22-0.82-1.98-0.82c-1.66,0-2.81,1.12-2.81,2.78c0,1.65,1.13,2.75,2.78,2.75c0.89,0,1.63-0.4,2.23-0.91l0.55,0.8
					c-0.8,0.71-1.8,1.13-2.87,1.13C676.58,396.66,674.88,395.28,674.88,392.89z"/>
				<path class="st3" d="M683.62,392.86c0-2.35,1.75-3.78,3.69-3.78c2.08,0,3.3,1.35,3.3,3.39c0,0.28-0.03,0.55-0.06,0.74h-6.11
					v-0.95h5.38l-0.31,0.34c0-1.71-0.85-2.56-2.17-2.56c-1.34,0-2.5,1.01-2.5,2.81c0,1.87,1.22,2.82,2.82,2.82
					c0.86,0,1.55-0.27,2.2-0.68l0.45,0.8c-0.71,0.48-1.63,0.86-2.79,0.86C685.34,396.66,683.62,395.27,683.62,392.86z"/>
				<path class="st3" d="M697.87,385.93h1.1l-4.88,12.93h-1.1L697.87,385.93z"/>
				<path class="st3" d="M701.49,395.53l0.56-0.82c0.83,0.59,1.81,0.98,3.14,0.98c1.22,0,1.81-0.5,1.81-1.11
					c0-0.55-0.28-0.94-2.24-1.34c-1.89-0.39-2.82-1.03-2.82-2.11c0-1.16,1.03-2.05,3-2.05c1.1,0,2.2,0.43,2.91,0.92l-0.59,0.79
					c-0.67-0.46-1.5-0.76-2.42-0.76c-1.22,0-1.67,0.49-1.67,1.04c0,0.63,0.62,0.89,2.11,1.2c2.39,0.52,2.97,1.11,2.97,2.23
					c0,1.17-1.14,2.16-3.21,2.16C703.63,396.66,702.36,396.14,701.49,395.53z"/>
				<path class="st3" d="M710.53,394.61c0-1.62,1.52-2.41,5.25-2.7c-0.04-0.98-0.52-1.81-1.92-1.81c-0.94,0-1.86,0.45-2.53,0.86
					l-0.49-0.83c0.74-0.48,1.96-1.04,3.23-1.04c1.98,0,2.94,1.17,2.94,2.97v4.43h-1.03l-0.1-0.98h-0.04
					c-0.79,0.62-1.83,1.16-2.84,1.16C711.65,396.66,710.53,395.9,710.53,394.61z M715.78,394.6v-1.87c-3.09,0.24-4.03,0.85-4.03,1.8
					c0,0.82,0.74,1.14,1.58,1.14C714.15,395.67,714.95,395.28,715.78,394.6z"/>
				<path class="st3" d="M719.12,389.26h0.98l0.1,0.95h0.03c0.37-0.67,0.82-1.13,1.65-1.13c0.71,0,1.16,0.42,1.37,1.25
					c0.42-0.77,0.86-1.25,1.69-1.25c1.01,0,1.61,0.79,1.61,2.23v5.17h-1.22v-5.08c0-0.83-0.24-1.26-0.77-1.26
					c-0.51,0-0.77,0.37-1.16,1.11v5.23h-1.13v-5.08c0-0.83-0.21-1.26-0.74-1.26c-0.5,0-0.83,0.37-1.19,1.11v5.23h-1.22
					L719.12,389.26L719.12,389.26z"/>
				<path class="st3" d="M728.55,389.26h1.01l0.1,0.92h0.04c0.67-0.64,1.62-1.1,2.5-1.1c1.95,0,2.99,1.44,2.99,3.69
					c0,2.45-1.55,3.89-3.28,3.89c-0.67,0-1.5-0.34-2.16-0.94h-0.03l0.06,1.37v2.44h-1.23L728.55,389.26L728.55,389.26z
					 M733.93,392.77c0-1.59-0.59-2.65-2.04-2.65c-0.64,0-1.38,0.33-2.11,1.07v3.6c0.67,0.61,1.43,0.83,1.92,0.83
					C732.98,395.62,733.93,394.55,733.93,392.77z"/>
				<path class="st3" d="M739.74,394.06v-7.16h-2.56v-1h3.79v8.25c0,1.04,0.56,1.49,1.43,1.49c0.42,0,0.86-0.1,1.35-0.33l0.31,0.92
					c-0.67,0.28-1.14,0.43-1.93,0.43C740.59,396.66,739.74,395.77,739.74,394.06z"/>
				<path class="st3" d="M749.68,390.26h-3.34v-1h4.58v7.22h-1.23v-6.22H749.68z M749.19,386.79c0-0.56,0.42-0.95,0.98-0.95
					s0.98,0.39,0.98,0.95c0,0.58-0.42,0.95-0.98,0.95S749.19,387.37,749.19,386.79z"/>
				<path class="st3" d="M755.29,389.26h1.01l0.1,1.22h0.06c0.76-0.79,1.59-1.4,2.72-1.4c1.71,0,2.5,1.01,2.5,2.91v4.49h-1.23v-4.33
					c0-1.37-0.48-2.01-1.65-2.01c-0.86,0-1.44,0.43-2.27,1.29v5.04h-1.23L755.29,389.26L755.29,389.26z"/>
				<path class="st3" d="M763.89,397.81c0-0.58,0.42-1.16,1.19-1.6v-0.06c-0.39-0.21-0.74-0.58-0.74-1.19
					c0-0.46,0.31-0.98,0.86-1.35v-0.06c-0.49-0.37-0.89-1.01-0.89-1.87c0-1.58,1.31-2.59,2.84-2.59c0.42,0,0.76,0.06,1.07,0.18h2.99
					v1h-1.87c0.33,0.34,0.61,0.88,0.61,1.46c0,1.55-1.23,2.48-2.79,2.48c-0.37,0-0.82-0.09-1.22-0.27
					c-0.36,0.22-0.57,0.49-0.57,0.83c0,0.56,0.55,0.83,1.5,0.83h1.62c1.86,0,2.75,0.48,2.75,1.69c0,1.35-1.56,2.53-4.01,2.53
					C765.11,399.81,763.89,399.09,763.89,397.81z M770.03,397.48c0-0.68-0.55-0.88-1.65-0.88h-1.41c-0.42,0-0.79-0.03-1.1-0.12
					c-0.68,0.37-0.92,0.79-0.92,1.2c0,0.76,0.82,1.23,2.36,1.23C768.99,398.92,770.03,398.22,770.03,397.48z M768.81,391.67
					c0-1.01-0.74-1.69-1.66-1.69c-0.91,0-1.67,0.68-1.67,1.69c0,1.04,0.76,1.71,1.67,1.71
					C768.07,393.38,768.81,392.71,768.81,391.67z"/>
			</g>
		</g>
		<g>
			<g>
				<path class="st3" d="M510.36,251.44l0.56-0.82c0.83,0.59,1.81,0.98,3.14,0.98c1.22,0,1.81-0.5,1.81-1.11
					c0-0.55-0.28-0.94-2.24-1.34c-1.89-0.39-2.82-1.03-2.82-2.11c0-1.16,1.03-2.05,3-2.05c1.1,0,2.2,0.43,2.91,0.92l-0.59,0.79
					c-0.67-0.46-1.5-0.76-2.42-0.76c-1.22,0-1.67,0.49-1.67,1.04c0,0.63,0.62,0.89,2.11,1.2c2.39,0.52,2.97,1.12,2.97,2.23
					c0,1.17-1.14,2.16-3.21,2.16C512.5,252.57,511.23,252.05,510.36,251.44z"/>
				<path class="st3" d="M519.6,245.17h1.01l0.1,0.92h0.04c0.67-0.64,1.62-1.1,2.5-1.1c1.95,0,2.99,1.44,2.99,3.69
					c0,2.45-1.55,3.89-3.28,3.89c-0.67,0-1.5-0.34-2.16-0.94h-0.03l0.06,1.37v2.44h-1.23L519.6,245.17L519.6,245.17z M524.98,248.68
					c0-1.59-0.59-2.65-2.04-2.65c-0.64,0-1.38,0.33-2.11,1.07v3.6c0.67,0.61,1.43,0.83,1.92,0.83
					C524.03,251.53,524.98,250.46,524.98,248.68z"/>
				<path class="st3" d="M528.14,248.77c0-2.35,1.75-3.78,3.69-3.78c2.08,0,3.3,1.35,3.3,3.39c0,0.28-0.03,0.55-0.06,0.74h-6.11
					v-0.95h5.38l-0.31,0.34c0-1.71-0.85-2.56-2.17-2.56c-1.34,0-2.5,1.01-2.5,2.81c0,1.87,1.22,2.82,2.82,2.82
					c0.86,0,1.55-0.27,2.2-0.68l0.45,0.8c-0.71,0.48-1.63,0.86-2.79,0.86C529.86,252.57,528.14,251.17,528.14,248.77z"/>
				<path class="st3" d="M537.23,248.8c0-2.42,1.84-3.8,4.03-3.8c1.17,0,2.04,0.48,2.63,1.06l-0.61,0.79
					c-0.59-0.5-1.22-0.82-1.98-0.82c-1.66,0-2.81,1.12-2.81,2.78c0,1.65,1.13,2.75,2.78,2.75c0.89,0,1.63-0.4,2.23-0.91l0.55,0.8
					c-0.8,0.71-1.8,1.13-2.87,1.13C538.92,252.57,537.23,251.19,537.23,248.8z"/>
				<path class="st3" d="M549.63,246.16h-3.34v-1h4.58v7.22h-1.23v-6.22H549.63z M549.14,242.7c0-0.56,0.42-0.95,0.98-0.95
					s0.98,0.39,0.98,0.95c0,0.58-0.42,0.95-0.98,0.95S549.14,243.28,549.14,242.7z"/>
				<path class="st3" d="M555.4,245.24l2.09-0.07h4.21v1h-6.3L555.4,245.24L555.4,245.24z M557.46,244.56
					c0-1.75,0.92-2.93,2.91-2.93c0.71,0,1.4,0.13,2.08,0.42l-0.28,0.92c-0.59-0.25-1.05-0.34-1.68-0.34c-1.29,0-1.81,0.73-1.81,1.89
					v7.88h-1.22V244.56z"/>
				<path class="st3" d="M567.46,246.16h-3.34v-1h4.58v7.22h-1.23v-6.22H567.46z M566.97,242.7c0-0.56,0.42-0.95,0.98-0.95
					s0.98,0.39,0.98,0.95c0,0.58-0.42,0.95-0.98,0.95S566.97,243.28,566.97,242.7z"/>
				<path class="st3" d="M572.88,248.8c0-2.42,1.84-3.8,4.03-3.8c1.17,0,2.04,0.48,2.63,1.06l-0.61,0.79
					c-0.59-0.5-1.22-0.82-1.98-0.82c-1.66,0-2.81,1.12-2.81,2.78c0,1.65,1.13,2.75,2.78,2.75c0.89,0,1.63-0.4,2.23-0.91l0.55,0.8
					c-0.8,0.71-1.8,1.13-2.87,1.13C574.57,252.57,572.88,251.19,572.88,248.8z"/>
				<path class="st3" d="M581.79,250.52c0-1.62,1.52-2.41,5.25-2.7c-0.04-0.98-0.52-1.81-1.92-1.81c-0.94,0-1.86,0.45-2.53,0.86
					l-0.49-0.83c0.74-0.48,1.96-1.04,3.23-1.04c1.98,0,2.94,1.17,2.94,2.97v4.43h-1.03l-0.1-0.98h-0.04
					c-0.79,0.62-1.83,1.16-2.84,1.16C582.91,252.57,581.79,251.81,581.79,250.52z M587.04,250.5v-1.87
					c-3.09,0.24-4.03,0.85-4.03,1.8c0,0.82,0.74,1.14,1.58,1.14C585.41,251.57,586.21,251.19,587.04,250.5z"/>
				<path class="st3" d="M592.58,249.58v-3.42h-2.05v-0.92l2.1-0.07l0.16-2.32h1.03v2.32h3.54v1h-3.54v3.43
					c0,1.29,0.43,1.96,1.83,1.96c0.67,0,1.2-0.13,1.72-0.33l0.27,0.91c-0.65,0.24-1.35,0.43-2.26,0.43
					C593.26,252.57,592.58,251.37,592.58,249.58z"/>
				<path class="st3" d="M603.11,246.16h-3.34v-1h4.58v7.22h-1.23v-6.22H603.11z M602.62,242.7c0-0.56,0.42-0.95,0.98-0.95
					s0.98,0.39,0.98,0.95c0,0.58-0.42,0.95-0.98,0.95S602.62,243.28,602.62,242.7z"/>
				<path class="st3" d="M608.23,248.8c0-2.42,1.67-3.8,3.57-3.8s3.57,1.38,3.57,3.8c0,2.39-1.66,3.78-3.57,3.78
					S608.23,251.19,608.23,248.8z M614.11,248.8c0-1.66-0.92-2.78-2.3-2.78s-2.3,1.12-2.3,2.78c0,1.65,0.92,2.75,2.3,2.75
					C613.18,251.55,614.11,250.44,614.11,248.8z"/>
				<path class="st3" d="M617.64,245.17h1.01l0.1,1.22h0.06c0.76-0.79,1.59-1.4,2.72-1.4c1.71,0,2.5,1.01,2.5,2.91v4.49h-1.23v-4.33
					c0-1.37-0.48-2.01-1.65-2.01c-0.86,0-1.44,0.43-2.27,1.29v5.04h-1.23L617.64,245.17L617.64,245.17z"/>
			</g>
		</g>
		<g>
			<g>
				<path class="st3" d="M920.27,219.87h4.88c6,0,9.21,3.48,9.21,9.68c0,6.19-3.21,9.82-9.1,9.82h-4.99L920.27,219.87L920.27,219.87
					z M924.97,237.33c4.56,0,6.83-2.86,6.83-7.79s-2.27-7.64-6.83-7.64h-2.21v15.43L924.97,237.33L924.97,237.33z"/>
				<path class="st3" d="M938.54,219.87h11.24v2.1h-8.76v6.11h7.39v2.1h-7.39v7.09h9.05v2.1h-11.54v-19.5H938.54z"/>
				<path class="st3" d="M952.79,236.83l1.48-1.7c1.4,1.46,3.35,2.42,5.38,2.42c2.56,0,4.08-1.27,4.08-3.17
					c0-1.99-1.41-2.63-3.25-3.43l-2.8-1.24c-1.82-0.78-3.95-2.15-3.95-5.02c0-2.98,2.6-5.18,6.14-5.18c2.31,0,4.37,1,5.74,2.42
					l-1.32,1.59c-1.19-1.13-2.62-1.83-4.43-1.83c-2.19,0-3.63,1.1-3.63,2.85c0,1.88,1.7,2.58,3.23,3.23l2.78,1.2
					c2.26,0.97,4.02,2.31,4.02,5.21c0,3.08-2.54,5.54-6.64,5.54C956.87,239.72,954.49,238.61,952.79,236.83z"/>
				<path class="st3" d="M970.07,219.87h2.48v19.5h-2.48V219.87z"/>
				<path class="st3" d="M976.75,229.64c0-6.29,3.78-10.12,8.95-10.12c2.7,0,4.48,1.23,5.62,2.41l-1.36,1.62
					c-0.99-1.02-2.24-1.84-4.2-1.84c-3.93,0-6.45,3.02-6.45,7.88c0,4.9,2.32,7.97,6.48,7.97c1.4,0,2.74-0.42,3.51-1.14v-5.08h-4.13
					v-2.06h6.39v8.2c-1.25,1.31-3.39,2.26-6.01,2.26C980.41,239.72,976.75,235.97,976.75,229.64z"/>
				<path class="st3" d="M996.21,219.87h2.56l7.06,12.26l2.1,4.04h0.12c-0.13-1.97-0.32-4.17-0.32-6.2v-10.1h2.36v19.5h-2.56
					l-7.06-12.27l-2.1-4.03h-0.12c0.13,1.97,0.32,4.05,0.32,6.09v10.2h-2.36V219.87z"/>
				<path class="st3" d="M1015.43,219.87h11.24v2.1h-8.76v6.11h7.39v2.1h-7.39v7.09h9.05v2.1h-11.54v-19.5H1015.43z"/>
				<path class="st3" d="M1031.09,219.87h6.11c3.97,0,6.82,1.43,6.82,5.49c0,3.89-2.85,5.77-6.82,5.77h-3.63v8.24h-2.48V219.87z
					 M1036.84,229.11c3.03,0,4.7-1.23,4.7-3.76c0-2.56-1.67-3.48-4.7-3.48h-3.27v7.23h3.27V229.11z M1036.71,230.45l1.94-1.28
					l5.95,10.21h-2.81L1036.71,230.45z"/>
				<path class="st3" d="M934.84,249.7h3.75v0.99h-2.44v16.08h2.44v0.99h-3.75V249.7z"/>
				<path class="st3" d="M940.19,259.47c0-3.41,2.23-5.37,4.73-5.37s4.73,1.96,4.73,5.37c0,3.38-2.23,5.34-4.73,5.34
					S940.19,262.85,940.19,259.47z M947.87,259.47c0-2.34-1.19-3.93-2.94-3.93c-1.76,0-2.95,1.59-2.95,3.93s1.19,3.9,2.95,3.9
					C946.68,263.38,947.87,261.81,947.87,259.47z"/>
				<path class="st3" d="M952.33,254.36h1.43l0.15,1.18h0.06c0.92-0.77,2.07-1.43,3.25-1.43c2.64,0,4.05,2.05,4.05,5.2
					c0,3.48-2.09,5.51-4.42,5.51c-0.94,0-1.89-0.43-2.83-1.18l0.05,1.78v3.46h-1.73v-14.52H952.33z M959.47,259.32
					c0-2.25-0.77-3.76-2.69-3.76c-0.86,0-1.74,0.48-2.73,1.39v5.35c0.92,0.78,1.81,1.06,2.48,1.06
					C958.23,263.36,959.47,261.84,959.47,259.32z"/>
				<path class="st3" d="M964.28,261.41v-5.64h-1.52v-1.31l1.6-0.1l0.21-2.86h1.44v2.86h2.76v1.41h-2.76v5.67
					c0,1.25,0.4,1.97,1.58,1.97c0.36,0,0.83-0.14,1.16-0.27l0.33,1.3c-0.57,0.19-1.26,0.38-1.89,0.38
					C965.02,264.81,964.28,263.44,964.28,261.41z"/>
				<path class="st3" d="M970.76,251.14c0-0.68,0.52-1.12,1.19-1.12s1.19,0.44,1.19,1.12c0,0.65-0.52,1.12-1.19,1.12
					S970.76,251.79,970.76,251.14z M971.08,254.36h1.73v10.21h-1.73V254.36z"/>
				<path class="st3" d="M976.24,254.36h1.43l0.15,1.48h0.06c0.89-0.96,1.96-1.73,3.18-1.73c1.56,0,2.4,0.75,2.82,1.95
					c1.06-1.15,2.12-1.95,3.37-1.95c2.1,0,3.11,1.39,3.11,3.99v6.47h-1.73v-6.24c0-1.9-0.6-2.71-1.9-2.71
					c-0.79,0-1.61,0.52-2.56,1.57v7.39h-1.73v-6.24c0-1.9-0.6-2.71-1.9-2.71c-0.76,0-1.61,0.52-2.56,1.57v7.39h-1.73L976.24,254.36
					L976.24,254.36z"/>
				<path class="st3" d="M993.33,251.14c0-0.68,0.52-1.12,1.19-1.12c0.67,0,1.19,0.44,1.19,1.12c0,0.65-0.52,1.12-1.19,1.12
					S993.33,251.79,993.33,251.14z M993.64,254.36h1.73v10.21h-1.73V254.36z"/>
				<path class="st3" d="M997.74,263.64l5.37-7.88h-4.77v-1.41h6.96v0.92l-5.37,7.88h5.55v1.41h-7.73v-0.92H997.74z"/>
				<path class="st3" d="M1006.97,259.47c0-3.32,2.24-5.37,4.59-5.37c2.6,0,4.07,1.87,4.07,4.79c0,0.36-0.03,0.73-0.08,0.98h-6.87
					c0.12,2.16,1.45,3.56,3.39,3.56c0.98,0,1.78-0.32,2.54-0.82l0.62,1.13c-0.89,0.59-1.98,1.06-3.37,1.06
					C1009.14,264.81,1006.97,262.82,1006.97,259.47z M1014.11,258.64c0-2.04-0.92-3.16-2.52-3.16c-1.44,0-2.72,1.15-2.93,3.16
					H1014.11z"/>
				<path class="st3" d="M1018.14,254.36h1.43l0.15,1.86h0.06c0.71-1.29,1.75-2.11,2.9-2.11c0.45,0,0.77,0.06,1.09,0.21l-0.32,1.51
					c-0.35-0.11-0.58-0.17-0.99-0.17c-0.86,0-1.89,0.62-2.58,2.35v6.55h-1.73v-10.2H1018.14z"/>
				<path class="st3" d="M1024.35,266.77h2.44v-16.08h-2.44v-0.99h3.75v18.06h-3.75V266.77z"/>
			</g>
		</g>
	</g>
</g>
</svg>
