<?xml version="1.0" encoding="utf-8"?>
<!-- Generator: Adobe Illustrator 23.0.1, SVG Export Plug-In . SVG Version: 6.00 Build 0)  -->
<svg version="1.1" id="Layer_1" xmlns="http://www.w3.org/2000/svg" xmlns:xlink="http://www.w3.org/1999/xlink" x="0px" y="0px"
	 viewBox="0 0 1152 559" style="enable-background:new 0 0 1152 559;" xml:space="preserve">
<style type="text/css">
	.st0{fill:#E6E6E6;}
	.st1{fill:none;stroke:#E6E6E6;stroke-width:0.5;stroke-miterlimit:10;stroke-dasharray:3.9891,3.9891;}
	.st2{fill:none;stroke:#E6E6E6;stroke-width:2;stroke-miterlimit:10;}
	.st3{fill:none;stroke:#E6E6E6;stroke-width:2;stroke-miterlimit:10;stroke-dasharray:4.1351,4.1351;}
	.st4{fill:none;stroke:#E6E6E6;stroke-width:2;stroke-miterlimit:10;stroke-dasharray:4.014,4.014;}
	.st5{fill:none;stroke:#E6E6E6;stroke-width:2;stroke-miterlimit:10;stroke-dasharray:3.8843,3.8843;}
</style>
<g>
	<g>
		<g>
			<path class="st0" d="M514.91,13.69h2.48v19.5h-2.48V13.69z"/>
			<path class="st0" d="M522.72,13.69h4.88c5.99,0,9.21,3.48,9.21,9.68c0,6.19-3.21,9.82-9.1,9.82h-4.99V13.69z M527.42,31.15
				c4.56,0,6.83-2.86,6.83-7.79c0-4.93-2.27-7.64-6.83-7.64h-2.21v15.43H527.42z"/>
			<path class="st0" d="M540.99,13.69h11.24v2.1h-8.76v6.11h7.39V24h-7.39v7.09h9.05v2.1h-11.54V13.69z"/>
			<path class="st0" d="M560.66,13.69h2.8l6.6,19.5h-2.63l-3.4-10.89c-0.7-2.18-1.33-4.32-1.95-6.57h-0.12
				c-0.6,2.26-1.23,4.39-1.93,6.57l-3.44,10.89h-2.52L560.66,13.69z M557.53,25.27h8.98v1.98h-8.98V25.27z"/>
		</g>
	</g>
	<g>
		<g>
			<path class="st0" d="M486.99,143.63h6.11c3.97,0,6.82,1.43,6.82,5.49c0,3.89-2.85,5.77-6.82,5.77h-3.63v8.24h-2.48V143.63z
				 M492.74,152.88c3.03,0,4.71-1.23,4.71-3.76c0-2.56-1.67-3.48-4.71-3.48h-3.27v7.23H492.74z M492.61,154.21l1.94-1.28l5.95,10.21
				h-2.81L492.61,154.21z"/>
			<path class="st0" d="M503.82,155.08v-11.45h2.48v11.52c0,4.69,1.98,6.16,4.53,6.16c2.58,0,4.62-1.47,4.62-6.16v-11.52h2.38v11.45
				c0,6.26-3.02,8.41-7,8.41C506.84,163.49,503.82,161.34,503.82,155.08z"/>
			<path class="st0" d="M523.06,143.63h2.48v17.4h8.51v2.1h-10.99V143.63z"/>
			<path class="st0" d="M537.5,143.63h11.24v2.1h-8.76v6.11h7.39v2.1h-7.39v7.09h9.05v2.1H537.5V143.63z"/>
			<path class="st0" d="M557.68,160.59l1.48-1.7c1.4,1.46,3.35,2.42,5.38,2.42c2.56,0,4.08-1.27,4.08-3.17
				c0-1.99-1.41-2.63-3.25-3.43l-2.8-1.24c-1.82-0.78-3.95-2.15-3.95-5.02c0-2.98,2.59-5.17,6.14-5.17c2.31,0,4.37,1,5.74,2.42
				l-1.32,1.59c-1.19-1.13-2.62-1.83-4.43-1.83c-2.19,0-3.63,1.1-3.63,2.85c0,1.88,1.7,2.58,3.23,3.23l2.78,1.2
				c2.26,0.97,4.02,2.31,4.02,5.21c0,3.08-2.55,5.54-6.64,5.54C561.77,163.49,559.39,162.37,557.68,160.59z"/>
			<path class="st0" d="M574.96,143.63h11.24v2.1h-8.76v6.11h7.39v2.1h-7.39v7.09h9.05v2.1h-11.54V143.63z"/>
			<path class="st0" d="M594.68,145.73h-5.9v-2.1h14.28v2.1h-5.9v17.4h-2.48V145.73z"/>
		</g>
	</g>
	<g>
		<g>
			<path class="st0" d="M471.7,265.27h2.8l6.6,19.5h-2.63l-3.4-10.89c-0.7-2.18-1.33-4.32-1.95-6.57H473
				c-0.6,2.26-1.23,4.39-1.93,6.57l-3.44,10.89h-2.52L471.7,265.27z M468.57,276.84h8.98v1.98h-8.98V276.84z"/>
			<path class="st0" d="M483.85,265.27h2.48v17.4h8.51v2.1h-10.99V265.27z"/>
			<path class="st0" d="M497.16,275.03c0-6.29,3.78-10.12,8.95-10.12c2.7,0,4.48,1.23,5.62,2.41l-1.36,1.62
				c-0.99-1.02-2.24-1.84-4.2-1.84c-3.93,0-6.45,3.02-6.45,7.88c0,4.9,2.32,7.97,6.48,7.97c1.4,0,2.74-0.42,3.51-1.14v-5.08h-4.13
				v-2.06h6.39v8.2c-1.25,1.31-3.39,2.26-6.01,2.26C500.82,285.12,497.16,281.36,497.16,275.03z"/>
			<path class="st0" d="M515.49,274.94c0-6.25,3.44-10.04,8.33-10.04c4.9,0,8.33,3.8,8.33,10.04c0,6.25-3.44,10.18-8.33,10.18
				C518.93,285.12,515.49,281.19,515.49,274.94z M529.59,274.94c0-4.86-2.29-7.85-5.77-7.85s-5.77,3-5.77,7.85s2.29,7.99,5.77,7.99
				S529.59,279.8,529.59,274.94z"/>
			<path class="st0" d="M536.35,265.27h6.11c3.97,0,6.82,1.43,6.82,5.49c0,3.89-2.85,5.77-6.82,5.77h-3.63v8.24h-2.48V265.27z
				 M542.1,274.51c3.03,0,4.71-1.23,4.71-3.76c0-2.56-1.67-3.48-4.71-3.48h-3.27v7.23H542.1z M541.97,275.84l1.94-1.28l5.95,10.21
				h-2.81L541.97,275.84z"/>
			<path class="st0" d="M553.25,265.27h2.48v19.5h-2.48V265.27z"/>
			<path class="st0" d="M565.13,267.37h-5.9v-2.1h14.28v2.1h-5.9v17.4h-2.48V267.37z"/>
			<path class="st0" d="M576.99,265.27h2.48v8.17h9.07v-8.17h2.48v19.5h-2.48v-9.17h-9.07v9.17h-2.48V265.27z"/>
			<path class="st0" d="M596.36,265.27h2.99l3.74,10.42c0.47,1.33,0.92,2.71,1.39,4.06h0.12c0.47-1.35,0.88-2.73,1.35-4.06
				l3.69-10.42h2.99v19.5h-2.31v-10.74c0-1.7,0.19-4.04,0.32-5.77h-0.12l-1.55,4.45l-3.67,10.09h-1.64l-3.69-10.09l-1.54-4.45h-0.12
				c0.13,1.72,0.32,4.07,0.32,5.77v10.74h-2.25V265.27z"/>
		</g>
	</g>
	<g>
		<g>
			<path class="st0" d="M500.72,395.75h2.99l3.74,10.42c0.47,1.33,0.92,2.71,1.39,4.06h0.12c0.47-1.35,0.88-2.73,1.35-4.06
				l3.69-10.42h2.99v19.5h-2.31v-10.74c0-1.7,0.19-4.04,0.32-5.77h-0.12l-1.55,4.45l-3.67,10.09h-1.64l-3.69-10.09l-1.54-4.45h-0.12
				c0.13,1.72,0.32,4.07,0.32,5.77v10.74h-2.25V395.75z"/>
			<path class="st0" d="M522.32,395.75h11.24v2.1h-8.76v6.11h7.39v2.1h-7.39v7.09h9.05v2.1h-11.54V395.75z"/>
			<path class="st0" d="M537.98,395.75h4.88c5.99,0,9.21,3.48,9.21,9.68c0,6.19-3.21,9.82-9.1,9.82h-4.99V395.75z M542.67,413.21
				c4.56,0,6.83-2.86,6.83-7.79s-2.27-7.64-6.83-7.64h-2.21v15.43H542.67z"/>
			<path class="st0" d="M556.25,395.75h2.48v19.5h-2.48V395.75z"/>
			<path class="st0" d="M568.07,395.75h2.8l6.6,19.5h-2.63l-3.4-10.89c-0.7-2.18-1.33-4.32-1.95-6.57h-0.12
				c-0.6,2.26-1.23,4.39-1.93,6.57L564,415.25h-2.52L568.07,395.75z M564.94,407.33h8.98v1.98h-8.98V407.33z"/>
		</g>
	</g>
	<g>
		<g>
			<path class="st0" d="M766.1,266.67h4.88c6,0,9.21,3.48,9.21,9.68c0,6.19-3.21,9.82-9.1,9.82h-4.99V266.67z M770.79,284.13
				c4.56,0,6.83-2.86,6.83-7.79s-2.27-7.64-6.83-7.64h-2.21v15.43H770.79z"/>
			<path class="st0" d="M784.37,266.67h11.24v2.1h-8.76v6.11h7.39v2.1h-7.39v7.09h9.05v2.1h-11.54V266.67z"/>
			<path class="st0" d="M798.61,283.63l1.48-1.7c1.4,1.46,3.35,2.42,5.38,2.42c2.56,0,4.08-1.27,4.08-3.17
				c0-1.99-1.41-2.63-3.25-3.43l-2.8-1.24c-1.82-0.78-3.95-2.15-3.95-5.02c0-2.98,2.6-5.18,6.14-5.18c2.31,0,4.37,1,5.74,2.42
				l-1.32,1.59c-1.19-1.13-2.62-1.83-4.43-1.83c-2.19,0-3.63,1.1-3.63,2.85c0,1.88,1.7,2.58,3.23,3.23l2.78,1.2
				c2.26,0.97,4.02,2.31,4.02,5.21c0,3.08-2.54,5.54-6.64,5.54C802.7,286.52,800.32,285.4,798.61,283.63z"/>
			<path class="st0" d="M815.89,266.67h2.48v19.5h-2.48V266.67z"/>
			<path class="st0" d="M822.57,276.43c0-6.29,3.78-10.12,8.95-10.12c2.7,0,4.48,1.23,5.62,2.41l-1.36,1.62
				c-0.99-1.02-2.24-1.84-4.2-1.84c-3.93,0-6.45,3.02-6.45,7.88c0,4.9,2.32,7.97,6.48,7.97c1.4,0,2.74-0.42,3.51-1.14v-5.08H831
				v-2.06h6.39v8.2c-1.25,1.31-3.39,2.26-6.01,2.26C826.24,286.52,822.57,282.76,822.57,276.43z"/>
			<path class="st0" d="M842.04,266.67h2.56l7.06,12.26l2.1,4.04h0.12c-0.13-1.97-0.32-4.17-0.32-6.2v-10.09h2.36v19.5h-2.56
				l-7.06-12.27l-2.1-4.03h-0.12c0.13,1.97,0.32,4.05,0.32,6.09v10.2h-2.36V266.67z"/>
			<path class="st0" d="M861.26,266.67h11.24v2.1h-8.76v6.11h7.39v2.1h-7.39v7.09h9.05v2.1h-11.54V266.67z"/>
			<path class="st0" d="M876.92,266.67h6.11c3.97,0,6.82,1.43,6.82,5.49c0,3.89-2.85,5.77-6.82,5.77h-3.63v8.24h-2.48V266.67z
				 M882.67,275.91c3.03,0,4.7-1.23,4.7-3.76c0-2.56-1.67-3.48-4.7-3.48h-3.27v7.23H882.67z M882.53,277.24l1.94-1.28l5.95,10.21
				h-2.81L882.53,277.24z"/>
			<path class="st0" d="M780.67,296.49h3.75v0.99h-2.44v16.08h2.44v0.99h-3.75V296.49z"/>
			<path class="st0" d="M786.02,306.27c0-3.41,2.23-5.37,4.73-5.37s4.73,1.96,4.73,5.37c0,3.38-2.23,5.34-4.73,5.34
				S786.02,309.65,786.02,306.27z M793.69,306.27c0-2.34-1.19-3.93-2.94-3.93c-1.76,0-2.95,1.59-2.95,3.93s1.19,3.9,2.95,3.9
				C792.5,310.17,793.69,308.61,793.69,306.27z"/>
			<path class="st0" d="M798.16,301.15h1.43l0.15,1.18h0.06c0.92-0.77,2.07-1.43,3.25-1.43c2.64,0,4.05,2.05,4.05,5.2
				c0,3.48-2.09,5.51-4.42,5.51c-0.94,0-1.89-0.43-2.83-1.18l0.05,1.78v3.46h-1.73V301.15z M805.3,306.11
				c0-2.25-0.77-3.76-2.69-3.76c-0.86,0-1.74,0.48-2.73,1.39v5.35c0.92,0.78,1.81,1.06,2.48,1.06
				C804.06,310.16,805.3,308.63,805.3,306.11z"/>
			<path class="st0" d="M810.11,308.2v-5.64h-1.52v-1.31l1.6-0.1l0.21-2.86h1.44v2.86h2.76v1.41h-2.76v5.67
				c0,1.25,0.4,1.97,1.58,1.97c0.36,0,0.83-0.14,1.16-0.27l0.33,1.3c-0.57,0.19-1.26,0.38-1.89,0.38
				C810.85,311.61,810.11,310.23,810.11,308.2z"/>
			<path class="st0" d="M816.59,297.94c0-0.68,0.52-1.12,1.19-1.12c0.67,0,1.19,0.44,1.19,1.12c0,0.65-0.52,1.12-1.19,1.12
				C817.11,299.05,816.59,298.59,816.59,297.94z M816.9,301.15h1.73v10.21h-1.73V301.15z"/>
			<path class="st0" d="M822.07,301.15h1.43l0.15,1.48h0.06c0.89-0.96,1.96-1.73,3.18-1.73c1.56,0,2.4,0.75,2.82,1.95
				c1.06-1.15,2.12-1.95,3.37-1.95c2.1,0,3.11,1.39,3.11,3.99v6.47h-1.73v-6.24c0-1.9-0.6-2.71-1.9-2.71
				c-0.79,0-1.61,0.52-2.56,1.57v7.39h-1.73v-6.24c0-1.9-0.6-2.71-1.9-2.71c-0.76,0-1.61,0.52-2.56,1.57v7.39h-1.73V301.15z"/>
			<path class="st0" d="M839.16,297.94c0-0.68,0.52-1.12,1.19-1.12c0.67,0,1.19,0.44,1.19,1.12c0,0.65-0.52,1.12-1.19,1.12
				C839.68,299.05,839.16,298.59,839.16,297.94z M839.47,301.15h1.73v10.21h-1.73V301.15z"/>
			<path class="st0" d="M843.57,310.43l5.37-7.88h-4.77v-1.41h6.96v0.92l-5.37,7.88h5.55v1.41h-7.73V310.43z"/>
			<path class="st0" d="M852.8,306.27c0-3.32,2.24-5.37,4.59-5.37c2.6,0,4.07,1.87,4.07,4.79c0,0.36-0.03,0.73-0.08,0.98h-6.87
				c0.12,2.16,1.45,3.56,3.39,3.56c0.98,0,1.78-0.32,2.54-0.82l0.62,1.13c-0.89,0.59-1.98,1.06-3.37,1.06
				C854.97,311.61,852.8,309.62,852.8,306.27z M859.94,305.43c0-2.04-0.92-3.16-2.52-3.16c-1.44,0-2.72,1.15-2.93,3.16H859.94z"/>
			<path class="st0" d="M863.97,301.15h1.43l0.15,1.86h0.06c0.71-1.29,1.75-2.11,2.9-2.11c0.45,0,0.77,0.06,1.09,0.21l-0.32,1.51
				c-0.35-0.11-0.58-0.17-0.99-0.17c-0.86,0-1.89,0.62-2.58,2.35v6.55h-1.73V301.15z"/>
			<path class="st0" d="M870.18,313.56h2.44v-16.08h-2.44v-0.99h3.75v18.06h-3.75V313.56z"/>
		</g>
	</g>
	<g>
		<g>
			<path class="st0" d="M433.64,83.55c0-1.62,1.52-2.41,5.25-2.71c-0.04-0.98-0.52-1.81-1.92-1.81c-0.94,0-1.86,0.45-2.53,0.86
				l-0.49-0.83c0.74-0.48,1.96-1.04,3.23-1.04c1.98,0,2.94,1.17,2.94,2.97v4.43h-1.03l-0.1-0.98h-0.04
				c-0.79,0.62-1.83,1.16-2.84,1.16C434.75,85.6,433.64,84.84,433.64,83.55z M438.88,83.53v-1.87c-3.09,0.24-4.03,0.85-4.03,1.8
				c0,0.82,0.74,1.14,1.58,1.14C437.25,84.6,438.05,84.22,438.88,83.53z"/>
			<path class="st0" d="M443.89,84.62h-0.04l-0.12,0.8h-0.98V74.84h1.23v2.88l-0.06,1.4h0.04c0.65-0.67,1.58-1.1,2.42-1.1
				c1.95,0,3,1.44,3,3.67c0,2.47-1.55,3.91-3.25,3.91C445.42,85.6,444.56,85.23,443.89,84.62z M448.12,81.71
				c0-1.59-0.59-2.65-2.04-2.65c-0.64,0-1.38,0.33-2.11,1.07v3.6c0.67,0.61,1.43,0.83,1.95,0.83
				C447.17,84.56,448.12,83.49,448.12,81.71z"/>
			<path class="st0" d="M451.33,84.47l0.57-0.82c0.83,0.59,1.81,0.98,3.14,0.98c1.22,0,1.81-0.51,1.81-1.11
				c0-0.55-0.28-0.94-2.24-1.34c-1.89-0.39-2.82-1.03-2.82-2.11c0-1.16,1.03-2.05,3-2.05c1.1,0,2.2,0.43,2.91,0.92l-0.59,0.79
				c-0.67-0.46-1.5-0.76-2.42-0.76c-1.22,0-1.67,0.49-1.67,1.04c0,0.62,0.62,0.89,2.11,1.2c2.39,0.52,2.97,1.11,2.97,2.23
				c0,1.17-1.14,2.15-3.21,2.15C453.47,85.6,452.21,85.08,451.33,84.47z"/>
			<path class="st0" d="M462.25,82.61v-3.42h-2.05v-0.92l2.1-0.07l0.16-2.32h1.03v2.32h3.54v1h-3.54v3.43
				c0,1.29,0.43,1.96,1.83,1.96c0.67,0,1.2-0.13,1.72-0.33l0.27,0.91c-0.65,0.24-1.35,0.43-2.26,0.43
				C462.93,85.6,462.25,84.4,462.25,82.61z"/>
			<path class="st0" d="M470.25,78.2h1.03l0.12,1.71h0.03c0.76-1.17,1.89-1.89,3.22-1.89c0.54,0,0.98,0.07,1.43,0.3l-0.28,1.06
				c-0.5-0.16-0.77-0.24-1.34-0.24c-1.08,0-2.11,0.55-2.97,2.07v4.22h-1.23V78.2z"/>
			<path class="st0" d="M478.2,83.55c0-1.62,1.52-2.41,5.25-2.71c-0.04-0.98-0.52-1.81-1.92-1.81c-0.94,0-1.86,0.45-2.53,0.86
				l-0.49-0.83c0.74-0.48,1.96-1.04,3.22-1.04c1.98,0,2.94,1.17,2.94,2.97v4.43h-1.03l-0.1-0.98h-0.04
				c-0.79,0.62-1.83,1.16-2.84,1.16C479.32,85.6,478.2,84.84,478.2,83.55z M483.45,83.53v-1.87c-3.09,0.24-4.03,0.85-4.03,1.8
				c0,0.82,0.74,1.14,1.58,1.14C481.81,84.6,482.61,84.22,483.45,83.53z"/>
			<path class="st0" d="M487.11,81.82c0-2.42,1.84-3.8,4.03-3.8c1.17,0,2.04,0.48,2.63,1.06l-0.61,0.79
				c-0.59-0.51-1.22-0.82-1.98-0.82c-1.67,0-2.81,1.11-2.81,2.78c0,1.65,1.13,2.75,2.78,2.75c0.89,0,1.63-0.4,2.23-0.91l0.55,0.8
				c-0.8,0.71-1.8,1.13-2.87,1.13C488.81,85.6,487.11,84.22,487.11,81.82z"/>
			<path class="st0" d="M497.9,82.61v-3.42h-2.05v-0.92l2.1-0.07l0.16-2.32h1.03v2.32h3.54v1h-3.54v3.43c0,1.29,0.43,1.96,1.83,1.96
				c0.67,0,1.2-0.13,1.72-0.33l0.27,0.91c-0.65,0.24-1.35,0.43-2.26,0.43C498.58,85.6,497.9,84.4,497.9,82.61z"/>
			<path class="st0" d="M508.43,79.19h-3.34v-1h4.58v7.22h-1.23V79.19z M507.94,75.73c0-0.56,0.42-0.95,0.98-0.95
				s0.98,0.39,0.98,0.95c0,0.58-0.42,0.95-0.98,0.95S507.94,76.31,507.94,75.73z"/>
			<path class="st0" d="M513.55,81.82c0-2.42,1.67-3.8,3.57-3.8s3.57,1.38,3.57,3.8c0,2.39-1.66,3.77-3.57,3.77
				S513.55,84.22,513.55,81.82z M519.42,81.82c0-1.66-0.92-2.78-2.3-2.78s-2.3,1.11-2.3,2.78c0,1.65,0.92,2.75,2.3,2.75
				S519.42,83.47,519.42,81.82z"/>
			<path class="st0" d="M522.96,78.2h1.01l0.1,1.22h0.06c0.76-0.79,1.59-1.4,2.72-1.4c1.71,0,2.5,1.01,2.5,2.91v4.49h-1.23V81.1
				c0-1.37-0.48-2.01-1.65-2.01c-0.86,0-1.44,0.43-2.27,1.29v5.04h-1.23V78.2z"/>
		</g>
	</g>
	<g>
		<g>
			<path class="st0" d="M409.89,211.4h-3.34v-1h4.58v7.22h-1.23V211.4z M409.4,207.94c0-0.56,0.42-0.95,0.98-0.95
				c0.57,0,0.98,0.39,0.98,0.95c0,0.58-0.42,0.95-0.98,0.95C409.82,208.89,409.4,208.52,409.4,207.94z"/>
			<path class="st0" d="M415.51,210.41h1.01l0.1,1.22h0.06c0.76-0.79,1.59-1.4,2.72-1.4c1.71,0,2.5,1.01,2.5,2.91v4.49h-1.23v-4.33
				c0-1.37-0.48-2.01-1.65-2.01c-0.86,0-1.44,0.43-2.27,1.29v5.04h-1.23V210.41z"/>
			<path class="st0" d="M426.1,214.82v-3.42h-2.05v-0.92l2.09-0.07l0.16-2.32h1.03v2.32h3.54v1h-3.54v3.43
				c0,1.29,0.43,1.96,1.83,1.96c0.67,0,1.2-0.13,1.72-0.33l0.27,0.91c-0.65,0.24-1.35,0.43-2.26,0.43
				C426.78,217.81,426.1,216.6,426.1,214.82z"/>
			<path class="st0" d="M432.96,214c0-2.35,1.75-3.78,3.69-3.78c2.08,0,3.3,1.35,3.3,3.39c0,0.28-0.03,0.55-0.06,0.74h-6.11v-0.95
				h5.38l-0.31,0.34c0-1.71-0.85-2.56-2.17-2.56c-1.34,0-2.5,1.01-2.5,2.81c0,1.87,1.22,2.82,2.82,2.82c0.86,0,1.54-0.27,2.2-0.68
				l0.45,0.8c-0.71,0.48-1.63,0.86-2.79,0.86C434.69,217.81,432.96,216.41,432.96,214z"/>
			<path class="st0" d="M443.02,210.41h1.03l0.12,1.71h0.03c0.76-1.17,1.89-1.89,3.22-1.89c0.54,0,0.98,0.07,1.43,0.3l-0.28,1.06
				c-0.5-0.16-0.77-0.24-1.34-0.24c-1.08,0-2.11,0.55-2.97,2.07v4.22h-1.23V210.41z"/>
			<path class="st0" d="M451.16,210.41h1.01l0.1,0.92h0.04c0.67-0.64,1.62-1.1,2.5-1.1c1.95,0,2.99,1.44,2.99,3.69
				c0,2.45-1.55,3.89-3.28,3.89c-0.67,0-1.5-0.34-2.16-0.94h-0.03l0.06,1.37v2.44h-1.23V210.41z M456.54,213.91
				c0-1.59-0.59-2.65-2.04-2.65c-0.64,0-1.38,0.33-2.11,1.07v3.6c0.67,0.61,1.43,0.83,1.92,0.83
				C455.59,216.77,456.54,215.7,456.54,213.91z"/>
			<path class="st0" d="M460.84,210.41h1.03l0.12,1.71h0.03c0.76-1.17,1.89-1.89,3.23-1.89c0.54,0,0.98,0.07,1.43,0.3l-0.28,1.06
				c-0.51-0.16-0.77-0.24-1.34-0.24c-1.08,0-2.11,0.55-2.97,2.07v4.22h-1.23V210.41z"/>
			<path class="st0" d="M468.61,214c0-2.35,1.75-3.78,3.69-3.78c2.08,0,3.3,1.35,3.3,3.39c0,0.28-0.03,0.55-0.06,0.74h-6.11v-0.95
				h5.38l-0.31,0.34c0-1.71-0.85-2.56-2.17-2.56c-1.34,0-2.5,1.01-2.5,2.81c0,1.87,1.22,2.82,2.82,2.82c0.86,0,1.54-0.27,2.2-0.68
				l0.45,0.8c-0.71,0.48-1.63,0.86-2.79,0.86C470.34,217.81,468.61,216.41,468.61,214z"/>
			<path class="st0" d="M479.58,214.82v-3.42h-2.05v-0.92l2.09-0.07l0.16-2.32h1.03v2.32h3.54v1h-3.54v3.43
				c0,1.29,0.43,1.96,1.83,1.96c0.67,0,1.2-0.13,1.72-0.33l0.27,0.91c-0.65,0.24-1.35,0.43-2.26,0.43
				C480.26,217.81,479.58,216.6,479.58,214.82z"/>
			<path class="st0" d="M486.62,215.76c0-1.62,1.52-2.41,5.25-2.7c-0.04-0.98-0.52-1.81-1.92-1.81c-0.94,0-1.86,0.45-2.53,0.86
				l-0.49-0.83c0.74-0.48,1.96-1.04,3.23-1.04c1.98,0,2.94,1.17,2.94,2.97v4.43h-1.03l-0.1-0.98h-0.04
				c-0.79,0.62-1.83,1.16-2.84,1.16C487.73,217.81,486.62,217.05,486.62,215.76z M491.86,215.74v-1.87
				c-3.09,0.24-4.03,0.85-4.03,1.8c0,0.82,0.74,1.14,1.58,1.14C490.23,216.81,491.03,216.42,491.86,215.74z"/>
			<path class="st0" d="M497.4,214.82v-3.42h-2.05v-0.92l2.1-0.07l0.16-2.32h1.03v2.32h3.54v1h-3.54v3.43
				c0,1.29,0.43,1.96,1.83,1.96c0.67,0,1.2-0.13,1.72-0.33l0.27,0.91c-0.65,0.24-1.35,0.43-2.26,0.43
				C498.09,217.81,497.4,216.6,497.4,214.82z"/>
			<path class="st0" d="M507.94,211.4h-3.34v-1h4.58v7.22h-1.23V211.4z M507.44,207.94c0-0.56,0.42-0.95,0.98-0.95
				s0.98,0.39,0.98,0.95c0,0.58-0.42,0.95-0.98,0.95S507.44,208.52,507.44,207.94z"/>
			<path class="st0" d="M513.06,214.03c0-2.42,1.66-3.8,3.57-3.8s3.57,1.38,3.57,3.8c0,2.39-1.67,3.78-3.57,3.78
				S513.06,216.42,513.06,214.03z M518.93,214.03c0-1.66-0.92-2.78-2.3-2.78c-1.38,0-2.3,1.12-2.3,2.78c0,1.65,0.92,2.75,2.3,2.75
				C518.01,216.78,518.93,215.68,518.93,214.03z"/>
			<path class="st0" d="M522.46,210.41h1.01l0.1,1.22h0.06c0.76-0.79,1.59-1.4,2.72-1.4c1.71,0,2.5,1.01,2.5,2.91v4.49h-1.23v-4.33
				c0-1.37-0.48-2.01-1.65-2.01c-0.86,0-1.44,0.43-2.27,1.29v5.04h-1.23V210.41z"/>
		</g>
	</g>
	<g>
		<g>
			<path class="st0" d="M441.93,342.25c0-0.58,0.42-1.16,1.19-1.6v-0.06c-0.39-0.21-0.74-0.58-0.74-1.19c0-0.46,0.31-0.98,0.86-1.35
				v-0.06c-0.49-0.37-0.89-1.01-0.89-1.87c0-1.58,1.31-2.59,2.84-2.59c0.42,0,0.76,0.06,1.07,0.18h2.99v1h-1.87
				c0.33,0.34,0.61,0.88,0.61,1.46c0,1.55-1.23,2.48-2.79,2.48c-0.37,0-0.82-0.09-1.22-0.27c-0.36,0.22-0.56,0.49-0.56,0.83
				c0,0.56,0.55,0.83,1.5,0.83h1.62c1.86,0,2.75,0.48,2.75,1.69c0,1.35-1.56,2.53-4.01,2.53
				C443.15,344.25,441.93,343.52,441.93,342.25z M448.07,341.92c0-0.68-0.55-0.88-1.65-0.88h-1.41c-0.42,0-0.79-0.03-1.1-0.12
				c-0.68,0.37-0.92,0.79-0.92,1.2c0,0.76,0.82,1.23,2.36,1.23C447.03,343.36,448.07,342.66,448.07,341.92z M446.85,336.11
				c0-1.01-0.74-1.69-1.67-1.69c-0.91,0-1.66,0.68-1.66,1.69c0,1.04,0.76,1.71,1.66,1.71C446.11,337.82,446.85,337.15,446.85,336.11
				z"/>
			<path class="st0" d="M450.79,337.3c0-2.35,1.75-3.78,3.69-3.78c2.08,0,3.3,1.35,3.3,3.39c0,0.28-0.03,0.55-0.06,0.74h-6.11v-0.95
				h5.38l-0.31,0.34c0-1.71-0.85-2.56-2.17-2.56c-1.34,0-2.5,1.01-2.5,2.81c0,1.87,1.22,2.82,2.82,2.82c0.86,0,1.54-0.27,2.2-0.68
				l0.45,0.8c-0.71,0.48-1.63,0.86-2.79,0.86C452.51,341.1,450.79,339.71,450.79,337.3z"/>
			<path class="st0" d="M460.07,333.7h1.01l0.1,1.22h0.06c0.76-0.79,1.59-1.4,2.72-1.4c1.71,0,2.5,1.01,2.5,2.91v4.49h-1.23v-4.33
				c0-1.37-0.48-2.01-1.65-2.01c-0.86,0-1.44,0.43-2.27,1.29v5.04h-1.23V333.7z"/>
			<path class="st0" d="M468.61,337.3c0-2.35,1.75-3.78,3.69-3.78c2.08,0,3.3,1.35,3.3,3.39c0,0.28-0.03,0.55-0.06,0.74h-6.11v-0.95
				h5.38l-0.31,0.34c0-1.71-0.85-2.56-2.17-2.56c-1.34,0-2.5,1.01-2.5,2.81c0,1.87,1.22,2.82,2.82,2.82c0.86,0,1.55-0.27,2.2-0.68
				l0.45,0.8c-0.71,0.48-1.63,0.86-2.79,0.86C470.34,341.1,468.61,339.71,468.61,337.3z"/>
			<path class="st0" d="M478.67,333.7h1.03l0.12,1.71h0.03c0.76-1.17,1.89-1.89,3.22-1.89c0.54,0,0.98,0.07,1.43,0.3l-0.28,1.06
				c-0.5-0.16-0.77-0.24-1.34-0.24c-1.08,0-2.11,0.55-2.97,2.07v4.22h-1.23V333.7z"/>
			<path class="st0" d="M486.62,339.05c0-1.62,1.52-2.41,5.25-2.7c-0.04-0.98-0.52-1.81-1.92-1.81c-0.94,0-1.86,0.45-2.53,0.86
				l-0.49-0.83c0.74-0.48,1.96-1.04,3.23-1.04c1.98,0,2.94,1.17,2.94,2.97v4.43h-1.03l-0.1-0.98h-0.04
				c-0.79,0.62-1.83,1.16-2.84,1.16C487.73,341.1,486.62,340.34,486.62,339.05z M491.86,339.04v-1.87c-3.09,0.24-4.03,0.85-4.03,1.8
				c0,0.82,0.74,1.14,1.58,1.14C490.23,340.11,491.03,339.72,491.86,339.04z"/>
			<path class="st0" d="M497.4,338.12v-3.42h-2.05v-0.92l2.09-0.07l0.16-2.32h1.03v2.32h3.54v1h-3.54v3.43
				c0,1.29,0.43,1.96,1.83,1.96c0.67,0,1.2-0.13,1.72-0.33l0.27,0.91c-0.65,0.24-1.35,0.43-2.26,0.43
				C498.09,341.1,497.4,339.9,497.4,338.12z"/>
			<path class="st0" d="M507.94,334.7h-3.34v-1h4.58v7.22h-1.23V334.7z M507.44,331.23c0-0.56,0.42-0.95,0.98-0.95
				s0.98,0.39,0.98,0.95c0,0.58-0.42,0.95-0.98,0.95S507.44,331.81,507.44,331.23z"/>
			<path class="st0" d="M513.06,337.33c0-2.42,1.67-3.8,3.57-3.8s3.57,1.38,3.57,3.8c0,2.39-1.66,3.78-3.57,3.78
				S513.06,339.72,513.06,337.33z M518.93,337.33c0-1.66-0.92-2.78-2.3-2.78s-2.3,1.12-2.3,2.78c0,1.65,0.92,2.75,2.3,2.75
				S518.93,338.98,518.93,337.33z"/>
			<path class="st0" d="M522.46,333.7h1.01l0.1,1.22h0.06c0.76-0.79,1.59-1.4,2.72-1.4c1.71,0,2.5,1.01,2.5,2.91v4.49h-1.23v-4.33
				c0-1.37-0.48-2.01-1.65-2.01c-0.86,0-1.44,0.43-2.27,1.29v5.04h-1.23V333.7z"/>
		</g>
	</g>
	<g>
		<g>
			<path class="st0" d="M672.96,424.69c0-2.35,1.75-3.78,3.69-3.78c2.08,0,3.3,1.35,3.3,3.39c0,0.28-0.03,0.55-0.06,0.74h-6.11
				v-0.95h5.38l-0.31,0.34c0-1.71-0.85-2.56-2.17-2.56c-1.34,0-2.5,1.01-2.5,2.81c0,1.87,1.22,2.82,2.82,2.82
				c0.86,0,1.55-0.27,2.2-0.68l0.45,0.8c-0.71,0.48-1.63,0.86-2.79,0.86C674.69,428.5,672.96,427.1,672.96,424.69z"/>
			<path class="st0" d="M681.61,421.1h1.26l1.66,4.09c0.28,0.73,0.55,1.44,0.8,2.14h0.06c0.25-0.7,0.49-1.41,0.79-2.14l1.67-4.09
				h1.19l-3,7.22h-1.38L681.61,421.1z"/>
			<path class="st0" d="M690.96,426.45c0-1.62,1.52-2.41,5.25-2.7c-0.04-0.98-0.52-1.81-1.92-1.81c-0.94,0-1.86,0.45-2.53,0.86
				l-0.49-0.83c0.74-0.48,1.96-1.04,3.23-1.04c1.98,0,2.94,1.17,2.94,2.97v4.43h-1.03l-0.1-0.98h-0.04
				c-0.79,0.62-1.83,1.16-2.84,1.16C692.08,428.5,690.96,427.74,690.96,426.45z M696.21,426.43v-1.87c-3.09,0.24-4.03,0.85-4.03,1.8
				c0,0.82,0.74,1.14,1.58,1.14C694.58,427.5,695.38,427.12,696.21,426.43z"/>
			<path class="st0" d="M702.35,425.9v-7.16h-2.56v-1h3.79v8.25c0,1.04,0.56,1.49,1.43,1.49c0.42,0,0.86-0.1,1.35-0.33l0.31,0.92
				c-0.67,0.28-1.14,0.43-1.93,0.43C703.19,428.5,702.35,427.61,702.35,425.9z"/>
			<path class="st0" d="M708.75,425.59v-4.49h1.23v4.32c0,1.35,0.48,2.01,1.66,2.01c0.83,0,1.44-0.39,2.25-1.32v-5.01h1.23v7.22
				h-1.03l-0.1-1.26h-0.06c-0.73,0.85-1.58,1.44-2.69,1.44C709.53,428.5,708.75,427.49,708.75,425.59z"/>
			<path class="st0" d="M717.7,426.45c0-1.62,1.52-2.41,5.25-2.7c-0.04-0.98-0.52-1.81-1.92-1.81c-0.94,0-1.86,0.45-2.53,0.86
				l-0.49-0.83c0.74-0.48,1.96-1.04,3.23-1.04c1.98,0,2.94,1.17,2.94,2.97v4.43h-1.03l-0.1-0.98h-0.04
				c-0.79,0.62-1.83,1.16-2.84,1.16C718.82,428.5,717.7,427.74,717.7,426.45z M722.95,426.43v-1.87c-3.09,0.24-4.03,0.85-4.03,1.8
				c0,0.82,0.74,1.14,1.58,1.14C721.32,427.5,722.12,427.12,722.95,426.43z"/>
			<path class="st0" d="M728.49,425.51v-3.42h-2.05v-0.92l2.1-0.07l0.16-2.32h1.03v2.32h3.54v1h-3.54v3.43
				c0,1.29,0.43,1.96,1.83,1.96c0.67,0,1.2-0.13,1.72-0.33l0.27,0.91c-0.65,0.24-1.35,0.43-2.26,0.43
				C729.17,428.5,728.49,427.29,728.49,425.51z"/>
			<path class="st0" d="M739.02,422.09h-3.34v-1h4.58v7.22h-1.23V422.09z M738.53,418.63c0-0.56,0.42-0.95,0.98-0.95
				s0.98,0.39,0.98,0.95c0,0.58-0.42,0.95-0.98,0.95S738.53,419.21,738.53,418.63z"/>
			<path class="st0" d="M744.15,424.72c0-2.42,1.67-3.8,3.57-3.8s3.57,1.38,3.57,3.8c0,2.39-1.66,3.78-3.57,3.78
				S744.15,427.12,744.15,424.72z M750.02,424.72c0-1.66-0.92-2.78-2.3-2.78c-1.38,0-2.3,1.12-2.3,2.78c0,1.65,0.92,2.75,2.3,2.75
				C749.09,427.47,750.02,426.37,750.02,424.72z"/>
			<path class="st0" d="M753.55,421.1h1.01l0.1,1.22h0.06c0.76-0.79,1.59-1.4,2.72-1.4c1.71,0,2.5,1.01,2.5,2.91v4.49h-1.23V424
				c0-1.37-0.48-2.01-1.65-2.01c-0.86,0-1.44,0.43-2.27,1.29v5.04h-1.23V421.1z"/>
		</g>
	</g>
	<g>
		<g>
			<path class="st1" d="M623.96,436.24H385.03c-6.6,0-12-5.4-12-12V122.43c0-6.6,5.4-12,12-12h238.93c6.6,0,12,5.4,12,12v301.82
				C635.96,430.84,630.56,436.24,623.96,436.24z"/>
		</g>
		<g>
			<g>
				<line class="st2" x1="540.16" y1="43.58" x2="540.16" y2="120.09"/>
				<g>
					<polygon class="st0" points="535.17,118.63 540.16,127.26 545.15,118.63 					"/>
				</g>
			</g>
		</g>
		<g>
			<g>
				<line class="st2" x1="540.16" y1="178.76" x2="540.16" y2="249.32"/>
				<g>
					<polygon class="st0" points="535.17,247.86 540.16,256.5 545.15,247.86 					"/>
				</g>
			</g>
		</g>
		<g>
			<g>
				<line class="st2" x1="540.16" y1="299.58" x2="540.16" y2="375.09"/>
				<g>
					<polygon class="st0" points="535.17,373.63 540.16,382.27 545.15,373.63 					"/>
				</g>
			</g>
		</g>
		<g>
			<line class="st2" x1="601.98" y1="404.55" x2="831.05" y2="404.55"/>
			<g>
				<g>
					<line class="st2" x1="829.57" y1="404.55" x2="829.57" y2="329.61"/>
					<g>
						<polygon class="st0" points="834.55,331.07 829.57,322.43 824.58,331.07 						"/>
					</g>
				</g>
			</g>
		</g>
		<g>
			<g>
				<line class="st2" x1="753.68" y1="277.3" x2="751.68" y2="277.3"/>
				<line class="st3" x1="747.55" y1="277.3" x2="633.83" y2="277.3"/>
				<line class="st2" x1="631.77" y1="277.3" x2="629.77" y2="277.3"/>
				<g>
					<polygon class="st0" points="631.22,272.31 622.59,277.3 631.22,282.28 					"/>
				</g>
			</g>
		</g>
		<g>
			<g>
				<line class="st2" x1="829.57" y1="154.74" x2="827.57" y2="154.74"/>
				<line class="st4" x1="823.55" y1="154.74" x2="624.86" y2="154.74"/>
				<line class="st2" x1="622.85" y1="154.74" x2="620.85" y2="154.74"/>
				<g>
					<polygon class="st0" points="622.31,149.76 613.68,154.74 622.31,159.73 					"/>
				</g>
			</g>
		</g>
		<g>
			<g>
				<line class="st2" x1="829.57" y1="248.08" x2="829.57" y2="246.08"/>
				<line class="st5" x1="829.57" y1="242.2" x2="829.57" y2="158.69"/>
				<line class="st2" x1="829.57" y1="156.74" x2="829.57" y2="154.74"/>
			</g>
		</g>
		<g>
			<g>
				<line class="st2" x1="537.81" y1="425.84" x2="537.81" y2="501.36"/>
				<g>
					<polygon class="st0" points="532.82,499.9 537.81,508.54 542.79,499.9 					"/>
				</g>
			</g>
		</g>
	</g>
	<g>
		<g>
			<path class="st0" d="M663.9,171.54h0.98l0.1,0.95h0.03c0.37-0.67,0.82-1.13,1.65-1.13c0.71,0,1.16,0.42,1.37,1.25
				c0.42-0.77,0.86-1.25,1.69-1.25c1.01,0,1.61,0.79,1.61,2.23v5.17h-1.22v-5.08c0-0.83-0.24-1.26-0.77-1.26
				c-0.51,0-0.77,0.37-1.16,1.11v5.23h-1.13v-5.08c0-0.83-0.21-1.26-0.74-1.26c-0.5,0-0.83,0.37-1.19,1.11v5.23h-1.22V171.54z"/>
			<path class="st0" d="M672.84,175.16c0-2.42,1.67-3.8,3.57-3.8s3.57,1.38,3.57,3.8c0,2.39-1.66,3.78-3.57,3.78
				S672.84,177.55,672.84,175.16z M678.71,175.16c0-1.66-0.92-2.78-2.3-2.78c-1.38,0-2.3,1.12-2.3,2.78c0,1.65,0.92,2.75,2.3,2.75
				C677.79,177.91,678.71,176.81,678.71,175.16z"/>
			<path class="st0" d="M681.75,175.16c0-2.35,1.56-3.8,3.27-3.8c0.86,0,1.53,0.34,2.17,0.92h0.03l-0.06-1.32v-2.78h1.23v10.58
				h-1.01l-0.1-0.95h-0.04c-0.59,0.61-1.46,1.13-2.36,1.13C683,178.94,681.75,177.57,681.75,175.16z M687.17,176.83v-3.6
				c-0.65-0.61-1.26-0.83-1.89-0.83c-1.25,0-2.26,1.1-2.26,2.75c0,1.72,0.8,2.75,2.13,2.75
				C685.86,177.9,686.53,177.54,687.17,176.83z"/>
			<path class="st0" d="M694.46,172.53h-3.34v-1h4.58v7.22h-1.23V172.53z M693.97,169.07c0-0.56,0.42-0.95,0.98-0.95
				s0.98,0.39,0.98,0.95c0,0.58-0.42,0.95-0.98,0.95S693.97,169.65,693.97,169.07z"/>
			<path class="st0" d="M700.22,171.61l2.09-0.07h4.21v1h-6.3V171.61z M702.29,170.93c0-1.75,0.92-2.93,2.91-2.93
				c0.71,0,1.4,0.13,2.08,0.42l-0.28,0.92c-0.59-0.25-1.05-0.34-1.68-0.34c-1.29,0-1.81,0.73-1.81,1.89v7.88h-1.22V170.93z"/>
			<path class="st0" d="M712.28,172.53h-3.34v-1h4.58v7.22h-1.23V172.53z M711.79,169.07c0-0.56,0.42-0.95,0.98-0.95
				s0.98,0.39,0.98,0.95c0,0.58-0.42,0.95-0.98,0.95S711.79,169.65,711.79,169.07z"/>
			<path class="st0" d="M717.7,175.16c0-2.42,1.84-3.8,4.03-3.8c1.17,0,2.04,0.48,2.63,1.06l-0.61,0.79
				c-0.59-0.5-1.22-0.82-1.98-0.82c-1.66,0-2.81,1.12-2.81,2.78c0,1.65,1.13,2.75,2.78,2.75c0.89,0,1.63-0.4,2.23-0.91l0.55,0.8
				c-0.8,0.71-1.8,1.13-2.87,1.13C719.4,178.94,717.7,177.55,717.7,175.16z"/>
			<path class="st0" d="M726.62,176.89c0-1.62,1.52-2.41,5.25-2.7c-0.04-0.98-0.52-1.81-1.92-1.81c-0.94,0-1.86,0.45-2.53,0.86
				l-0.49-0.83c0.74-0.48,1.96-1.04,3.23-1.04c1.98,0,2.94,1.17,2.94,2.97v4.43h-1.03l-0.1-0.98h-0.04
				c-0.79,0.62-1.83,1.16-2.84,1.16C727.73,178.94,726.62,178.18,726.62,176.89z M731.86,176.87V175c-3.09,0.24-4.03,0.85-4.03,1.8
				c0,0.82,0.74,1.14,1.58,1.14C730.23,177.94,731.03,177.55,731.86,176.87z"/>
			<path class="st0" d="M737.4,175.95v-3.42h-2.05v-0.92l2.1-0.07l0.16-2.32h1.03v2.32h3.54v1h-3.54v3.43
				c0,1.29,0.43,1.96,1.83,1.96c0.67,0,1.2-0.13,1.72-0.33l0.27,0.91c-0.65,0.24-1.35,0.43-2.26,0.43
				C738.08,178.94,737.4,177.73,737.4,175.95z"/>
			<path class="st0" d="M747.93,172.53h-3.34v-1h4.58v7.22h-1.23V172.53z M747.44,169.07c0-0.56,0.42-0.95,0.98-0.95
				s0.98,0.39,0.98,0.95c0,0.58-0.42,0.95-0.98,0.95S747.44,169.65,747.44,169.07z"/>
			<path class="st0" d="M753.06,175.16c0-2.42,1.67-3.8,3.57-3.8s3.57,1.38,3.57,3.8c0,2.39-1.66,3.78-3.57,3.78
				S753.06,177.55,753.06,175.16z M758.93,175.16c0-1.66-0.92-2.78-2.3-2.78c-1.38,0-2.3,1.12-2.3,2.78c0,1.65,0.92,2.75,2.3,2.75
				C758.01,177.91,758.93,176.81,758.93,175.16z"/>
			<path class="st0" d="M762.46,171.54h1.01l0.1,1.22h0.06c0.76-0.79,1.59-1.4,2.72-1.4c1.71,0,2.5,1.01,2.5,2.91v4.49h-1.23v-4.33
				c0-1.37-0.48-2.01-1.65-2.01c-0.86,0-1.44,0.43-2.27,1.29v5.04h-1.23V171.54z"/>
		</g>
	</g>
	<g>
		<g>
			<path class="st0" d="M640.35,292.36h0.98l0.1,0.95h0.03c0.37-0.67,0.82-1.13,1.65-1.13c0.71,0,1.16,0.42,1.37,1.25
				c0.42-0.77,0.86-1.25,1.69-1.25c1.01,0,1.61,0.79,1.61,2.23v5.17h-1.22v-5.08c0-0.83-0.24-1.26-0.77-1.26
				c-0.51,0-0.77,0.37-1.16,1.11v5.23h-1.13v-5.08c0-0.83-0.21-1.26-0.74-1.26c-0.5,0-0.83,0.37-1.19,1.11v5.23h-1.22V292.36z"/>
			<path class="st0" d="M649.29,295.98c0-2.42,1.67-3.8,3.57-3.8s3.57,1.38,3.57,3.8c0,2.39-1.66,3.78-3.57,3.78
				S649.29,298.37,649.29,295.98z M655.16,295.98c0-1.66-0.92-2.78-2.3-2.78c-1.38,0-2.3,1.12-2.3,2.78c0,1.65,0.92,2.75,2.3,2.75
				C654.24,298.73,655.16,297.63,655.16,295.98z"/>
			<path class="st0" d="M658.21,295.98c0-2.35,1.56-3.8,3.27-3.8c0.86,0,1.53,0.34,2.17,0.92h0.03l-0.06-1.32V289h1.23v10.58h-1.01
				l-0.1-0.95h-0.04c-0.59,0.61-1.46,1.13-2.36,1.13C659.45,299.76,658.21,298.39,658.21,295.98z M663.62,297.65v-3.6
				c-0.65-0.61-1.26-0.83-1.89-0.83c-1.25,0-2.26,1.1-2.26,2.75c0,1.72,0.8,2.75,2.13,2.75
				C662.31,298.72,662.98,298.36,663.62,297.65z"/>
			<path class="st0" d="M670.91,293.35h-3.34v-1h4.58v7.22h-1.23V293.35z M670.42,289.89c0-0.56,0.42-0.95,0.98-0.95
				s0.98,0.39,0.98,0.95c0,0.58-0.42,0.95-0.98,0.95S670.42,290.47,670.42,289.89z"/>
			<path class="st0" d="M676.67,292.43l2.09-0.07h4.21v1h-6.3V292.43z M678.74,291.75c0-1.75,0.92-2.93,2.91-2.93
				c0.71,0,1.4,0.13,2.08,0.42l-0.28,0.92c-0.59-0.25-1.05-0.34-1.68-0.34c-1.29,0-1.81,0.73-1.81,1.89v7.88h-1.22V291.75z"/>
			<path class="st0" d="M688.73,293.35h-3.34v-1h4.58v7.22h-1.23V293.35z M688.24,289.89c0-0.56,0.42-0.95,0.98-0.95
				s0.98,0.39,0.98,0.95c0,0.58-0.42,0.95-0.98,0.95S688.24,290.47,688.24,289.89z"/>
			<path class="st0" d="M694.15,295.98c0-2.42,1.84-3.8,4.03-3.8c1.17,0,2.04,0.48,2.63,1.06l-0.61,0.79
				c-0.59-0.5-1.22-0.82-1.98-0.82c-1.66,0-2.81,1.12-2.81,2.78c0,1.65,1.13,2.75,2.78,2.75c0.89,0,1.63-0.4,2.23-0.91l0.55,0.8
				c-0.8,0.71-1.8,1.13-2.87,1.13C695.85,299.76,694.15,298.37,694.15,295.98z"/>
			<path class="st0" d="M703.07,297.71c0-1.62,1.52-2.41,5.25-2.7c-0.04-0.98-0.52-1.81-1.92-1.81c-0.94,0-1.86,0.45-2.53,0.86
				l-0.49-0.83c0.74-0.48,1.96-1.04,3.23-1.04c1.98,0,2.94,1.17,2.94,2.97v4.43h-1.03l-0.1-0.98h-0.04
				c-0.79,0.62-1.83,1.16-2.84,1.16C704.18,299.76,703.07,299,703.07,297.71z M708.31,297.69v-1.87c-3.09,0.24-4.03,0.85-4.03,1.8
				c0,0.82,0.74,1.14,1.58,1.14C706.68,298.76,707.48,298.37,708.31,297.69z"/>
			<path class="st0" d="M713.85,296.77v-3.42h-2.05v-0.92l2.1-0.07l0.16-2.32h1.03v2.32h3.54v1h-3.54v3.43
				c0,1.29,0.43,1.96,1.83,1.96c0.67,0,1.2-0.13,1.72-0.33l0.27,0.91c-0.65,0.24-1.35,0.43-2.26,0.43
				C714.54,299.76,713.85,298.55,713.85,296.77z"/>
			<path class="st0" d="M724.38,293.35h-3.34v-1h4.58v7.22h-1.23V293.35z M723.89,289.89c0-0.56,0.42-0.95,0.98-0.95
				s0.98,0.39,0.98,0.95c0,0.58-0.42,0.95-0.98,0.95S723.89,290.47,723.89,289.89z"/>
			<path class="st0" d="M729.51,295.98c0-2.42,1.67-3.8,3.57-3.8s3.57,1.38,3.57,3.8c0,2.39-1.66,3.78-3.57,3.78
				S729.51,298.37,729.51,295.98z M735.38,295.98c0-1.66-0.92-2.78-2.3-2.78c-1.38,0-2.3,1.12-2.3,2.78c0,1.65,0.92,2.75,2.3,2.75
				C734.46,298.73,735.38,297.63,735.38,295.98z"/>
			<path class="st0" d="M738.91,292.36h1.01l0.1,1.22h0.06c0.76-0.79,1.59-1.4,2.72-1.4c1.71,0,2.5,1.01,2.5,2.91v4.49h-1.23v-4.33
				c0-1.37-0.48-2.01-1.65-2.01c-0.86,0-1.44,0.43-2.27,1.29v5.04h-1.23V292.36z"/>
		</g>
	</g>
	<g>
		<g>
			<path class="st0" d="M484.22,524.99h2.8l6.6,19.5h-2.63l-3.4-10.89c-0.7-2.18-1.33-4.32-1.95-6.57h-0.12
				c-0.6,2.26-1.23,4.39-1.93,6.57l-3.44,10.89h-2.53L484.22,524.99z M481.09,536.56h8.98v1.98h-8.98V536.56z"/>
			<path class="st0" d="M496.37,524.99h6.11c3.97,0,6.82,1.43,6.82,5.49c0,3.89-2.85,5.77-6.82,5.77h-3.63v8.24h-2.48V524.99z
				 M502.12,534.23c3.03,0,4.71-1.23,4.71-3.76c0-2.56-1.67-3.48-4.71-3.48h-3.27v7.23H502.12z M501.99,535.56l1.94-1.28l5.95,10.21
				h-2.81L501.99,535.56z"/>
			<path class="st0" d="M517.33,527.09h-5.9v-2.1h14.28v2.1h-5.9v17.4h-2.48V527.09z"/>
			<path class="st0" d="M529.2,524.99h2.48v19.5h-2.48V524.99z"/>
			<path class="st0" d="M537.01,524.99h11.25v2.1h-8.76v6.58h7.43v2.1h-7.43v8.72h-2.48V524.99z"/>
			<path class="st0" d="M555.7,524.99h2.8l6.6,19.5h-2.63l-3.4-10.89c-0.7-2.18-1.33-4.32-1.95-6.57h-0.12
				c-0.6,2.26-1.23,4.39-1.93,6.57l-3.44,10.89h-2.52L555.7,524.99z M552.57,536.56h8.98v1.98h-8.98V536.56z"/>
			<path class="st0" d="M566.72,534.75c0-6.29,3.71-10.12,8.65-10.12c2.37,0,4.22,1.15,5.36,2.41l-1.36,1.62
				c-1.03-1.09-2.31-1.84-3.96-1.84c-3.68,0-6.13,3.02-6.13,7.88c0,4.9,2.34,7.97,6.04,7.97c1.86,0,3.27-0.81,4.52-2.19l1.36,1.56
				c-1.54,1.79-3.45,2.81-5.98,2.81C570.36,544.84,566.72,541.08,566.72,534.75z"/>
			<path class="st0" d="M588.87,527.09h-5.9v-2.1h14.28v2.1h-5.9v17.4h-2.48V527.09z"/>
		</g>
	</g>
	<g>
		<g>
			<path class="st0" d="M432.49,460.04l2.1-0.07h4.21v1h-6.3V460.04z M434.56,459.36c0-1.75,0.92-2.93,2.91-2.93
				c0.71,0,1.4,0.13,2.08,0.42l-0.28,0.92c-0.59-0.25-1.06-0.34-1.68-0.34c-1.29,0-1.81,0.73-1.81,1.89v7.88h-1.22V459.36z"/>
			<path class="st0" d="M441.06,465.32c0-1.62,1.52-2.41,5.25-2.7c-0.04-0.98-0.52-1.81-1.92-1.81c-0.94,0-1.86,0.45-2.53,0.86
				l-0.49-0.83c0.74-0.48,1.96-1.04,3.22-1.04c1.98,0,2.94,1.17,2.94,2.97v4.43h-1.03l-0.1-0.98h-0.04
				c-0.79,0.62-1.83,1.16-2.84,1.16C442.18,467.37,441.06,466.61,441.06,465.32z M446.31,465.3v-1.87c-3.09,0.24-4.03,0.85-4.03,1.8
				c0,0.82,0.74,1.14,1.58,1.14C444.67,466.37,445.48,465.99,446.31,465.3z"/>
			<path class="st0" d="M451.31,466.39h-0.04l-0.12,0.8h-0.98v-10.58h1.23v2.88l-0.06,1.4h0.04c0.65-0.67,1.58-1.1,2.42-1.1
				c1.95,0,3,1.44,3,3.67c0,2.47-1.55,3.91-3.25,3.91C452.84,467.37,451.98,467,451.31,466.39z M455.55,463.48
				c0-1.59-0.59-2.65-2.04-2.65c-0.64,0-1.38,0.33-2.11,1.07v3.6c0.67,0.61,1.43,0.83,1.95,0.83
				C454.6,466.33,455.55,465.26,455.55,463.48z"/>
			<path class="st0" d="M459.86,459.97h1.03l0.12,1.71h0.03c0.76-1.17,1.89-1.89,3.23-1.89c0.54,0,0.98,0.07,1.43,0.3l-0.28,1.06
				c-0.51-0.16-0.77-0.24-1.34-0.24c-1.08,0-2.11,0.55-2.97,2.07v4.22h-1.23V459.97z"/>
			<path class="st0" d="M471.29,460.96h-3.34v-1h4.58v7.22h-1.23V460.96z M470.8,457.5c0-0.56,0.42-0.95,0.98-0.95
				s0.98,0.39,0.98,0.95c0,0.58-0.42,0.95-0.98,0.95S470.8,458.08,470.8,457.5z"/>
			<path class="st0" d="M476.71,463.59c0-2.42,1.84-3.8,4.03-3.8c1.17,0,2.04,0.48,2.63,1.06l-0.61,0.79
				c-0.59-0.5-1.22-0.82-1.98-0.82c-1.66,0-2.81,1.12-2.81,2.78c0,1.65,1.13,2.75,2.78,2.75c0.89,0,1.63-0.4,2.23-0.91l0.55,0.8
				c-0.8,0.71-1.8,1.13-2.87,1.13C478.41,467.37,476.71,465.99,476.71,463.59z"/>
			<path class="st0" d="M485.63,465.32c0-1.62,1.52-2.41,5.25-2.7c-0.04-0.98-0.52-1.81-1.92-1.81c-0.94,0-1.86,0.45-2.53,0.86
				l-0.49-0.83c0.74-0.48,1.96-1.04,3.23-1.04c1.98,0,2.94,1.17,2.94,2.97v4.43h-1.03l-0.1-0.98h-0.04
				c-0.79,0.62-1.83,1.16-2.84,1.16C486.74,467.37,485.63,466.61,485.63,465.32z M490.87,465.3v-1.87c-3.09,0.24-4.03,0.85-4.03,1.8
				c0,0.82,0.74,1.14,1.58,1.14C489.24,466.37,490.04,465.99,490.87,465.3z"/>
			<path class="st0" d="M496.41,464.38v-3.42h-2.05v-0.92l2.1-0.07l0.16-2.32h1.03v2.32h3.54v1h-3.54v3.43
				c0,1.29,0.43,1.96,1.83,1.96c0.67,0,1.2-0.13,1.72-0.33l0.27,0.91c-0.65,0.24-1.35,0.43-2.26,0.43
				C497.1,467.37,496.41,466.17,496.41,464.38z"/>
			<path class="st0" d="M506.95,460.96h-3.34v-1h4.58v7.22h-1.23V460.96z M506.46,457.5c0-0.56,0.42-0.95,0.98-0.95
				s0.98,0.39,0.98,0.95c0,0.58-0.42,0.95-0.98,0.95S506.46,458.08,506.46,457.5z"/>
			<path class="st0" d="M512.07,463.59c0-2.42,1.67-3.8,3.57-3.8s3.57,1.38,3.57,3.8c0,2.39-1.66,3.78-3.57,3.78
				S512.07,465.99,512.07,463.59z M517.94,463.59c0-1.66-0.92-2.78-2.3-2.78s-2.3,1.12-2.3,2.78c0,1.65,0.92,2.75,2.3,2.75
				S517.94,465.24,517.94,463.59z"/>
			<path class="st0" d="M521.47,459.97h1.01l0.1,1.22h0.06c0.76-0.79,1.59-1.4,2.72-1.4c1.71,0,2.5,1.01,2.5,2.91v4.49h-1.23v-4.33
				c0-1.37-0.48-2.01-1.65-2.01c-0.86,0-1.44,0.43-2.27,1.29v5.04h-1.23V459.97z"/>
		</g>
	</g>
	<g>
		<g>
			<path class="st0" d="M280.9,273.05h-3.34v-1h4.58v7.22h-1.23V273.05z M280.41,269.59c0-0.56,0.42-0.95,0.98-0.95
				s0.98,0.39,0.98,0.95c0,0.58-0.42,0.95-0.98,0.95S280.41,270.17,280.41,269.59z"/>
			<path class="st0" d="M286.52,272.05h1.01l0.1,1.22h0.06c0.76-0.79,1.59-1.4,2.72-1.4c1.71,0,2.5,1.01,2.5,2.91v4.49h-1.23v-4.33
				c0-1.37-0.48-2.01-1.65-2.01c-0.86,0-1.44,0.43-2.27,1.29v5.04h-1.23V272.05z"/>
			<path class="st0" d="M297.11,276.47v-3.42h-2.05v-0.92l2.1-0.07l0.16-2.32h1.03v2.32h3.54v1h-3.54v3.43
				c0,1.29,0.43,1.96,1.83,1.96c0.67,0,1.2-0.13,1.72-0.33l0.27,0.91c-0.65,0.24-1.35,0.43-2.26,0.43
				C297.79,279.46,297.11,278.25,297.11,276.47z"/>
			<path class="st0" d="M303.97,275.65c0-2.35,1.75-3.78,3.69-3.78c2.08,0,3.3,1.35,3.3,3.39c0,0.28-0.03,0.55-0.06,0.74h-6.11
				v-0.95h5.38l-0.31,0.34c0-1.71-0.85-2.56-2.17-2.56c-1.34,0-2.5,1.01-2.5,2.81c0,1.87,1.22,2.82,2.82,2.82
				c0.86,0,1.55-0.27,2.2-0.68l0.45,0.8c-0.71,0.48-1.63,0.86-2.79,0.86C305.7,279.46,303.97,278.06,303.97,275.65z"/>
			<path class="st0" d="M314.03,272.05h1.03l0.12,1.71h0.03c0.76-1.17,1.89-1.89,3.22-1.89c0.54,0,0.98,0.07,1.43,0.3l-0.28,1.06
				c-0.5-0.16-0.77-0.24-1.34-0.24c-1.08,0-2.11,0.55-2.97,2.07v4.22h-1.23V272.05z"/>
			<path class="st0" d="M321.98,277.4c0-1.62,1.52-2.41,5.25-2.7c-0.04-0.98-0.52-1.81-1.92-1.81c-0.94,0-1.86,0.45-2.53,0.86
				l-0.49-0.83c0.74-0.48,1.96-1.04,3.23-1.04c1.98,0,2.94,1.17,2.94,2.97v4.43h-1.03l-0.1-0.98h-0.04
				c-0.79,0.62-1.83,1.16-2.84,1.16C323.09,279.46,321.98,278.7,321.98,277.4z M327.22,277.39v-1.87c-3.09,0.24-4.03,0.85-4.03,1.8
				c0,0.82,0.74,1.14,1.58,1.14C325.59,278.46,326.39,278.07,327.22,277.39z"/>
			<path class="st0" d="M332.76,276.47v-3.42h-2.05v-0.92l2.09-0.07l0.16-2.32h1.03v2.32h3.54v1h-3.54v3.43
				c0,1.29,0.43,1.96,1.83,1.96c0.67,0,1.2-0.13,1.72-0.33l0.27,0.91c-0.65,0.24-1.35,0.43-2.26,0.43
				C333.44,279.46,332.76,278.25,332.76,276.47z"/>
			<path class="st0" d="M343.29,273.05h-3.34v-1h4.58v7.22h-1.23V273.05z M342.8,269.59c0-0.56,0.42-0.95,0.98-0.95
				s0.98,0.39,0.98,0.95c0,0.58-0.42,0.95-0.98,0.95S342.8,270.17,342.8,269.59z"/>
			<path class="st0" d="M348.42,275.68c0-2.42,1.67-3.8,3.57-3.8s3.57,1.38,3.57,3.8c0,2.39-1.66,3.78-3.57,3.78
				S348.42,278.07,348.42,275.68z M354.29,275.68c0-1.66-0.92-2.78-2.3-2.78s-2.3,1.12-2.3,2.78c0,1.65,0.92,2.75,2.3,2.75
				S354.29,277.33,354.29,275.68z"/>
			<path class="st0" d="M357.82,272.05h1.01l0.1,1.22h0.06c0.76-0.79,1.59-1.4,2.72-1.4c1.71,0,2.5,1.01,2.5,2.91v4.49h-1.23v-4.33
				c0-1.37-0.48-2.01-1.65-2.01c-0.86,0-1.44,0.43-2.27,1.29v5.04h-1.23V272.05z"/>
		</g>
	</g>
</g>
</svg>
