<?xml version="1.0" encoding="utf-8"?>
<!-- Generator: Adobe Illustrator 23.0.1, SVG Export Plug-In . SVG Version: 6.00 Build 0)  -->
<svg version="1.1" id="Layer_1" xmlns="http://www.w3.org/2000/svg" xmlns:xlink="http://www.w3.org/1999/xlink" x="0px" y="0px"
	 viewBox="0 0 540 540" style="enable-background:new 0 0 540 540;" xml:space="preserve">
<style type="text/css">
	.st0{fill:#E6E6E6;}
	.st1{font-family:'SourceSansPro-Regular';}
	.st2{font-size:9.6052px;}
	.st3{fill:none;stroke:#E6E6E6;stroke-width:0.75;stroke-linecap:round;stroke-linejoin:round;stroke-dasharray:4;}
	.st4{fill:none;stroke:#E6E6E6;stroke-width:0.25;stroke-linecap:round;stroke-linejoin:round;}
	.st5{fill:none;stroke:#E6E6E6;stroke-linecap:round;stroke-linejoin:round;}
	.st6{fill:#CCCCCC;}
</style>
<g>
	<g>
		<text transform="matrix(1 0 0 1 22.3994 35.5791)"><tspan x="0" y="0" class="st0 st1 st2">Input</tspan><tspan x="-0.25" y="11.53" class="st0 st1 st2">Layer</tspan></text>
		<text transform="matrix(1 0 0 1 128.5928 35.5791)"><tspan x="0" y="0" class="st0 st1 st2">Hidden</tspan><tspan x="0.26" y="11.53" class="st0 st1 st2">Layer 1</tspan></text>
		<text transform="matrix(1 0 0 1 256.0947 35.5791)"><tspan x="0" y="0" class="st0 st1 st2">Hidden</tspan><tspan x="0.26" y="11.53" class="st0 st1 st2">Layer 2</tspan></text>
		<text transform="matrix(1 0 0 1 383.5967 35.5791)"><tspan x="0" y="0" class="st0 st1 st2">Hidden</tspan><tspan x="0.26" y="11.53" class="st0 st1 st2">Layer 3</tspan></text>
		<text transform="matrix(1 0 0 1 493.9775 35.5791)"><tspan x="0" y="0" class="st0 st1 st2">Output</tspan><tspan x="3.28" y="11.53" class="st0 st1 st2">Layer</tspan></text>
	</g>
	<g>
		<line class="st3" x1="270.75" y1="523.25" x2="270.75" y2="55.13"/>
		<line class="st3" x1="143.25" y1="484.34" x2="143.25" y2="55.13"/>
		<line class="st3" x1="398.25" y1="484.34" x2="398.25" y2="55.13"/>
		<line class="st3" x1="508.3" y1="367.59" x2="508.3" y2="55.13"/>
		<line class="st3" x1="33.19" y1="445.42" x2="33.19" y2="55.13"/>
		<g>
			<g>
				<line class="st4" x1="384.58" y1="305.31" x2="283.43" y2="459.67"/>
				<g>
					<polygon class="st0" points="383.34,304.93 385.57,303.81 385.43,306.3 					"/>
				</g>
			</g>
		</g>
		<g>
			<g>
				<line class="st4" x1="379.86" y1="301.29" x2="287.81" y2="385.57"/>
				<g>
					<polygon class="st0" points="378.75,300.62 381.18,300.08 380.43,302.46 					"/>
				</g>
			</g>
		</g>
		<g>
			<g>
				<line class="st4" x1="374.4" y1="291.73" x2="292.88" y2="316.61"/>
				<g>
					<polygon class="st0" points="373.69,290.64 376.12,291.21 374.42,293.03 					"/>
				</g>
			</g>
		</g>
		<g>
			<g>
				<line class="st4" x1="374.4" y1="277.17" x2="292.88" y2="252.29"/>
				<g>
					<polygon class="st0" points="374.42,275.87 376.12,277.7 373.69,278.26 					"/>
				</g>
			</g>
		</g>
		<g>
			<g>
				<line class="st4" x1="379.86" y1="267.61" x2="287.81" y2="183.33"/>
				<g>
					<polygon class="st0" points="380.43,266.45 381.18,268.82 378.75,268.28 					"/>
				</g>
			</g>
		</g>
		<g>
			<g>
				<line class="st4" x1="384.58" y1="263.59" x2="283.43" y2="109.23"/>
				<g>
					<polygon class="st0" points="385.43,262.61 385.57,265.09 383.34,263.97 					"/>
				</g>
			</g>
		</g>
		<g>
			<g>
				<line class="st4" x1="387.68" y1="229.2" x2="280.56" y2="458.07"/>
				<g>
					<polygon class="st0" points="386.4,229.01 388.44,227.58 388.65,230.06 					"/>
				</g>
			</g>
		</g>
		<g>
			<g>
				<line class="st4" x1="384.58" y1="227.48" x2="283.43" y2="381.84"/>
				<g>
					<polygon class="st0" points="383.34,227.1 385.57,225.98 385.43,228.47 					"/>
				</g>
			</g>
		</g>
		<g>
			<g>
				<line class="st4" x1="379.86" y1="223.46" x2="287.81" y2="307.74"/>
				<g>
					<polygon class="st0" points="378.75,222.79 381.18,222.25 380.43,224.63 					"/>
				</g>
			</g>
		</g>
		<g>
			<g>
				<line class="st4" x1="374.4" y1="213.9" x2="292.88" y2="238.78"/>
				<g>
					<polygon class="st0" points="373.69,212.81 376.12,213.38 374.42,215.2 					"/>
				</g>
			</g>
		</g>
		<g>
			<g>
				<line class="st4" x1="374.4" y1="199.34" x2="292.88" y2="174.46"/>
				<g>
					<polygon class="st0" points="374.42,198.04 376.12,199.87 373.69,200.43 					"/>
				</g>
			</g>
		</g>
		<g>
			<g>
				<line class="st4" x1="379.86" y1="189.78" x2="287.81" y2="105.5"/>
				<g>
					<polygon class="st0" points="380.43,188.62 381.18,190.99 378.75,190.45 					"/>
				</g>
			</g>
		</g>
		<g>
			<g>
				<line class="st4" x1="389.72" y1="152.22" x2="278.66" y2="457.28"/>
				<g>
					<polygon class="st0" points="388.42,152.14 390.33,150.54 390.77,152.99 					"/>
				</g>
			</g>
		</g>
		<g>
			<g>
				<line class="st4" x1="387.68" y1="151.37" x2="280.56" y2="380.24"/>
				<g>
					<polygon class="st0" points="386.4,151.18 388.44,149.75 388.65,152.23 					"/>
				</g>
			</g>
		</g>
		<g>
			<g>
				<line class="st4" x1="384.58" y1="149.65" x2="283.43" y2="304.01"/>
				<g>
					<polygon class="st0" points="383.34,149.27 385.57,148.15 385.43,150.63 					"/>
				</g>
			</g>
		</g>
		<g>
			<g>
				<line class="st4" x1="379.86" y1="145.63" x2="287.81" y2="229.91"/>
				<g>
					<polygon class="st0" points="378.75,144.96 381.18,144.42 380.43,146.79 					"/>
				</g>
			</g>
		</g>
		<g>
			<g>
				<line class="st4" x1="374.4" y1="136.07" x2="292.88" y2="160.95"/>
				<g>
					<polygon class="st0" points="373.69,134.98 376.12,135.55 374.42,137.37 					"/>
				</g>
			</g>
		</g>
		<g>
			<g>
				<line class="st4" x1="374.4" y1="121.51" x2="292.88" y2="96.63"/>
				<g>
					<polygon class="st0" points="374.42,120.21 376.12,122.03 373.69,122.6 					"/>
				</g>
			</g>
		</g>
		<g>
			<g>
				<line class="st4" x1="165.38" y1="446.87" x2="246.9" y2="471.75"/>
				<g>
					<polygon class="st0" points="246.19,472.83 248.61,472.27 246.91,470.45 					"/>
				</g>
			</g>
		</g>
		<g>
			<g>
				<line class="st4" x1="160.31" y1="377.91" x2="252.36" y2="462.19"/>
				<g>
					<polygon class="st0" points="251.25,462.86 253.68,463.4 252.93,461.02 					"/>
				</g>
			</g>
		</g>
		<g>
			<g>
				<line class="st4" x1="155.93" y1="303.81" x2="257.08" y2="458.17"/>
				<g>
					<polygon class="st0" points="255.84,458.55 258.06,459.67 257.92,457.18 					"/>
				</g>
			</g>
		</g>
		<g>
			<g>
				<line class="st4" x1="153.06" y1="227.58" x2="260.18" y2="456.44"/>
				<g>
					<polygon class="st0" points="258.89,456.64 260.94,458.07 261.15,455.58 					"/>
				</g>
			</g>
		</g>
		<g>
			<g>
				<line class="st4" x1="151.16" y1="150.54" x2="262.22" y2="455.6"/>
				<g>
					<polygon class="st0" points="260.92,455.68 262.83,457.28 263.26,454.83 					"/>
				</g>
			</g>
		</g>
		<g>
			<g>
				<line class="st4" x1="165.38" y1="433.36" x2="246.9" y2="408.48"/>
				<g>
					<polygon class="st0" points="246.91,409.77 248.61,407.95 246.19,407.39 					"/>
				</g>
			</g>
		</g>
		<g>
			<g>
				<line class="st4" x1="165.38" y1="369.04" x2="246.9" y2="393.92"/>
				<g>
					<polygon class="st0" points="246.19,395 248.61,394.44 246.91,392.62 					"/>
				</g>
			</g>
		</g>
		<g>
			<g>
				<line class="st4" x1="160.31" y1="300.08" x2="252.36" y2="384.36"/>
				<g>
					<polygon class="st0" points="251.25,385.03 253.68,385.57 252.93,383.19 					"/>
				</g>
			</g>
		</g>
		<g>
			<g>
				<line class="st4" x1="155.93" y1="225.98" x2="257.08" y2="380.34"/>
				<g>
					<polygon class="st0" points="255.84,380.72 258.06,381.84 257.92,379.35 					"/>
				</g>
			</g>
		</g>
		<g>
			<g>
				<line class="st4" x1="153.06" y1="149.75" x2="260.18" y2="378.61"/>
				<g>
					<polygon class="st0" points="258.89,378.81 260.94,380.24 261.15,377.75 					"/>
				</g>
			</g>
		</g>
		<g>
			<g>
				<line class="st4" x1="160.31" y1="424.48" x2="252.36" y2="340.21"/>
				<g>
					<polygon class="st0" points="252.93,341.37 253.68,338.99 251.25,339.53 					"/>
				</g>
			</g>
		</g>
		<g>
			<g>
				<line class="st4" x1="165.38" y1="355.53" x2="246.9" y2="330.65"/>
				<g>
					<polygon class="st0" points="246.91,331.94 248.61,330.12 246.19,329.56 					"/>
				</g>
			</g>
		</g>
		<g>
			<g>
				<line class="st4" x1="165.38" y1="291.21" x2="246.9" y2="316.09"/>
				<g>
					<polygon class="st0" points="246.19,317.17 248.61,316.61 246.91,314.79 					"/>
				</g>
			</g>
		</g>
		<g>
			<g>
				<line class="st4" x1="387.68" y1="339.7" x2="280.56" y2="110.83"/>
				<g>
					<polygon class="st0" points="388.65,338.84 388.44,341.32 386.4,339.9 					"/>
				</g>
			</g>
		</g>
		<g>
			<g>
				<line class="st4" x1="155.93" y1="148.15" x2="257.08" y2="302.51"/>
				<g>
					<polygon class="st0" points="255.84,302.89 258.06,304.01 257.92,301.52 					"/>
				</g>
			</g>
		</g>
		<g>
			<g>
				<line class="st4" x1="155.93" y1="420.76" x2="257.08" y2="266.39"/>
				<g>
					<polygon class="st0" points="257.92,267.38 258.06,264.89 255.84,266.01 					"/>
				</g>
			</g>
		</g>
		<g>
			<g>
				<line class="st4" x1="160.31" y1="346.65" x2="252.36" y2="262.37"/>
				<g>
					<polygon class="st0" points="252.93,263.54 253.68,261.16 251.25,261.7 					"/>
				</g>
			</g>
		</g>
		<g>
			<g>
				<line class="st4" x1="165.38" y1="277.7" x2="246.9" y2="252.81"/>
				<g>
					<polygon class="st0" points="246.91,254.11 248.61,252.29 246.19,251.73 					"/>
				</g>
			</g>
		</g>
		<g>
			<g>
				<line class="st4" x1="165.38" y1="213.38" x2="246.9" y2="238.26"/>
				<g>
					<polygon class="st0" points="246.19,239.34 248.61,238.78 246.91,236.96 					"/>
				</g>
			</g>
		</g>
		<g>
			<g>
				<line class="st4" x1="160.31" y1="144.42" x2="252.36" y2="228.7"/>
				<g>
					<polygon class="st0" points="251.25,229.37 253.68,229.91 252.93,227.53 					"/>
				</g>
			</g>
		</g>
		<g>
			<g>
				<line class="st4" x1="153.06" y1="419.15" x2="260.18" y2="190.29"/>
				<g>
					<polygon class="st0" points="261.15,191.15 260.94,188.66 258.89,190.09 					"/>
				</g>
			</g>
		</g>
		<g>
			<g>
				<line class="st4" x1="155.93" y1="342.93" x2="257.08" y2="188.56"/>
				<g>
					<polygon class="st0" points="257.92,189.55 258.06,187.06 255.84,188.18 					"/>
				</g>
			</g>
		</g>
		<g>
			<g>
				<line class="st4" x1="160.31" y1="268.82" x2="252.36" y2="184.54"/>
				<g>
					<polygon class="st0" points="252.93,185.71 253.68,183.33 251.25,183.87 					"/>
				</g>
			</g>
		</g>
		<g>
			<g>
				<line class="st4" x1="165.38" y1="199.87" x2="246.9" y2="174.98"/>
				<g>
					<polygon class="st0" points="246.91,176.28 248.61,174.46 246.19,173.9 					"/>
				</g>
			</g>
		</g>
		<g>
			<g>
				<line class="st4" x1="165.38" y1="135.55" x2="246.9" y2="160.43"/>
				<g>
					<polygon class="st0" points="246.19,161.51 248.61,160.95 246.91,159.13 					"/>
				</g>
			</g>
		</g>
		<g>
			<g>
				<line class="st4" x1="151.16" y1="418.37" x2="262.22" y2="113.31"/>
				<g>
					<polygon class="st0" points="263.26,114.08 262.83,111.62 260.92,113.22 					"/>
				</g>
			</g>
		</g>
		<g>
			<g>
				<line class="st4" x1="153.06" y1="341.32" x2="260.18" y2="112.46"/>
				<g>
					<polygon class="st0" points="261.15,113.32 260.94,110.83 258.89,112.26 					"/>
				</g>
			</g>
		</g>
		<g>
			<g>
				<line class="st4" x1="155.93" y1="265.09" x2="257.08" y2="110.73"/>
				<g>
					<polygon class="st0" points="257.92,111.72 258.06,109.23 255.84,110.35 					"/>
				</g>
			</g>
		</g>
		<g>
			<g>
				<line class="st4" x1="160.31" y1="190.99" x2="252.36" y2="106.71"/>
				<g>
					<polygon class="st0" points="252.93,107.88 253.68,105.5 251.25,106.04 					"/>
				</g>
			</g>
		</g>
		<g>
			<g>
				<line class="st4" x1="165.38" y1="122.03" x2="246.9" y2="97.15"/>
				<g>
					<polygon class="st0" points="246.91,98.45 248.61,96.63 246.19,96.07 					"/>
				</g>
			</g>
		</g>
		<g>
			<g>
				<line class="st4" x1="44.24" y1="405.1" x2="119.74" y2="431.8"/>
				<g>
					<polygon class="st0" points="118.98,432.85 121.43,432.4 119.81,430.5 					"/>
				</g>
			</g>
		</g>
		<g>
			<g>
				<line class="st4" x1="41.23" y1="331.9" x2="126.14" y2="421.97"/>
				<g>
					<polygon class="st0" points="124.98,422.56 127.37,423.27 126.8,420.85 					"/>
				</g>
			</g>
		</g>
		<g>
			<g>
				<line class="st4" x1="38.96" y1="255.74" x2="130.97" y2="418.41"/>
				<g>
					<polygon class="st0" points="129.7,418.7 131.85,419.97 131.87,417.48 					"/>
				</g>
			</g>
		</g>
		<g>
			<g>
				<line class="st4" x1="37.58" y1="178.57" x2="133.9" y2="416.99"/>
				<g>
					<polygon class="st0" points="132.61,417.12 134.58,418.66 134.92,416.19 					"/>
				</g>
			</g>
		</g>
		<g>
			<g>
				<line class="st4" x1="44.24" y1="397.29" x2="119.74" y2="370.59"/>
				<g>
					<polygon class="st0" points="119.81,371.89 121.43,370 118.98,369.54 					"/>
				</g>
			</g>
		</g>
		<g>
			<g>
				<line class="st4" x1="44.24" y1="327.27" x2="119.74" y2="353.97"/>
				<g>
					<polygon class="st0" points="118.98,355.02 121.43,354.57 119.81,352.67 					"/>
				</g>
			</g>
		</g>
		<g>
			<g>
				<line class="st4" x1="41.23" y1="254.07" x2="126.14" y2="344.14"/>
				<g>
					<polygon class="st0" points="124.98,344.73 127.37,345.44 126.8,343.02 					"/>
				</g>
			</g>
		</g>
		<g>
			<g>
				<line class="st4" x1="38.96" y1="177.91" x2="130.97" y2="340.58"/>
				<g>
					<polygon class="st0" points="129.7,340.87 131.85,342.14 131.87,339.65 					"/>
				</g>
			</g>
		</g>
		<g>
			<g>
				<line class="st4" x1="41.23" y1="392.67" x2="126.14" y2="302.6"/>
				<g>
					<polygon class="st0" points="126.8,303.72 127.37,301.29 124.98,302.01 					"/>
				</g>
			</g>
		</g>
		<g>
			<g>
				<line class="st4" x1="44.24" y1="319.46" x2="119.74" y2="292.76"/>
				<g>
					<polygon class="st0" points="119.81,294.06 121.43,292.17 118.98,291.71 					"/>
				</g>
			</g>
		</g>
		<g>
			<g>
				<line class="st4" x1="44.24" y1="249.44" x2="119.74" y2="276.14"/>
				<g>
					<polygon class="st0" points="118.98,277.19 121.43,276.74 119.81,274.84 					"/>
				</g>
			</g>
		</g>
		<g>
			<g>
				<line class="st4" x1="41.23" y1="176.23" x2="126.14" y2="266.31"/>
				<g>
					<polygon class="st0" points="124.98,266.9 127.37,267.61 126.8,265.19 					"/>
				</g>
			</g>
		</g>
		<g>
			<g>
				<line class="st4" x1="38.96" y1="390.99" x2="130.97" y2="228.32"/>
				<g>
					<polygon class="st0" points="131.87,229.26 131.85,226.76 129.7,228.03 					"/>
				</g>
			</g>
		</g>
		<g>
			<g>
				<line class="st4" x1="41.23" y1="314.84" x2="126.14" y2="224.76"/>
				<g>
					<polygon class="st0" points="126.8,225.89 127.37,223.46 124.98,224.17 					"/>
				</g>
			</g>
		</g>
		<g>
			<g>
				<line class="st4" x1="44.24" y1="241.63" x2="119.74" y2="214.93"/>
				<g>
					<polygon class="st0" points="119.81,216.23 121.43,214.34 118.98,213.88 					"/>
				</g>
			</g>
		</g>
		<g>
			<g>
				<line class="st4" x1="44.24" y1="171.61" x2="119.74" y2="198.31"/>
				<g>
					<polygon class="st0" points="118.98,199.36 121.43,198.91 119.81,197.01 					"/>
				</g>
			</g>
		</g>
		<g>
			<g>
				<line class="st4" x1="37.58" y1="390.33" x2="133.9" y2="151.91"/>
				<g>
					<polygon class="st0" points="134.92,152.71 134.58,150.25 132.61,151.78 					"/>
				</g>
			</g>
		</g>
		<g>
			<g>
				<line class="st4" x1="38.96" y1="313.16" x2="130.97" y2="150.49"/>
				<g>
					<polygon class="st0" points="131.87,151.43 131.85,148.93 129.7,150.2 					"/>
				</g>
			</g>
		</g>
		<g>
			<g>
				<line class="st4" x1="41.23" y1="237.01" x2="126.14" y2="146.93"/>
				<g>
					<polygon class="st0" points="126.8,148.05 127.37,145.63 124.98,146.34 					"/>
				</g>
			</g>
		</g>
		<g>
			<g>
				<line class="st4" x1="44.24" y1="163.8" x2="119.74" y2="137.1"/>
				<g>
					<polygon class="st0" points="119.81,138.4 121.43,136.5 118.98,136.05 					"/>
				</g>
			</g>
		</g>
		<g>
			<g>
				<line class="st4" x1="384.58" y1="341.42" x2="283.43" y2="187.06"/>
				<g>
					<polygon class="st0" points="385.43,340.44 385.57,342.93 383.34,341.8 					"/>
				</g>
			</g>
		</g>
		<g>
			<g>
				<line class="st4" x1="379.86" y1="345.44" x2="287.81" y2="261.16"/>
				<g>
					<polygon class="st0" points="380.43,344.28 381.18,346.65 378.75,346.12 					"/>
				</g>
			</g>
		</g>
		<g>
			<g>
				<line class="st4" x1="374.4" y1="355" x2="292.88" y2="330.12"/>
				<g>
					<polygon class="st0" points="374.42,353.7 376.12,355.53 373.69,356.09 					"/>
				</g>
			</g>
		</g>
		<g>
			<g>
				<line class="st4" x1="374.4" y1="369.56" x2="292.88" y2="394.44"/>
				<g>
					<polygon class="st0" points="373.69,368.47 376.12,369.04 374.42,370.86 					"/>
				</g>
			</g>
		</g>
		<g>
			<g>
				<line class="st4" x1="379.86" y1="379.12" x2="287.81" y2="463.4"/>
				<g>
					<polygon class="st0" points="378.75,378.45 381.18,377.91 380.43,380.29 					"/>
				</g>
			</g>
		</g>
		<g>
			<g>
				<line class="st4" x1="389.72" y1="416.68" x2="278.66" y2="111.62"/>
				<g>
					<polygon class="st0" points="390.77,415.91 390.33,418.37 388.42,416.76 					"/>
				</g>
			</g>
		</g>
		<g>
			<g>
				<line class="st4" x1="387.68" y1="417.53" x2="280.56" y2="188.66"/>
				<g>
					<polygon class="st0" points="388.65,416.67 388.44,419.15 386.4,417.73 					"/>
				</g>
			</g>
		</g>
		<g>
			<g>
				<line class="st4" x1="384.58" y1="419.26" x2="283.43" y2="264.89"/>
				<g>
					<polygon class="st0" points="385.43,418.27 385.57,420.76 383.34,419.63 					"/>
				</g>
			</g>
		</g>
		<g>
			<g>
				<line class="st4" x1="379.86" y1="423.27" x2="287.81" y2="338.99"/>
				<g>
					<polygon class="st0" points="380.43,422.11 381.18,424.48 378.75,423.95 					"/>
				</g>
			</g>
		</g>
		<g>
			<g>
				<line class="st4" x1="374.4" y1="432.83" x2="292.88" y2="407.95"/>
				<g>
					<polygon class="st0" points="374.42,431.53 376.12,433.36 373.69,433.92 					"/>
				</g>
			</g>
		</g>
		<g>
			<g>
				<line class="st4" x1="374.4" y1="447.39" x2="292.88" y2="472.27"/>
				<g>
					<polygon class="st0" points="373.69,446.3 376.12,446.87 374.42,448.69 					"/>
				</g>
			</g>
		</g>
		<g>
			<g>
				<line class="st4" x1="499.03" y1="235.7" x2="414.12" y2="145.63"/>
				<g>
					<polygon class="st0" points="499.69,234.58 500.26,237.01 497.88,236.29 					"/>
				</g>
			</g>
		</g>
		<g>
			<g>
				<line class="st4" x1="495.56" y1="241.03" x2="420.07" y2="214.34"/>
				<g>
					<polygon class="st0" points="495.63,239.73 497.25,241.63 494.8,242.08 					"/>
				</g>
			</g>
		</g>
		<g>
			<g>
				<line class="st4" x1="495.56" y1="250.04" x2="420.07" y2="276.74"/>
				<g>
					<polygon class="st0" points="494.8,248.99 497.25,249.44 495.63,251.34 					"/>
				</g>
			</g>
		</g>
		<g>
			<g>
				<line class="st4" x1="499.03" y1="255.37" x2="414.12" y2="345.44"/>
				<g>
					<polygon class="st0" points="497.88,254.78 500.26,254.07 499.69,256.49 					"/>
				</g>
			</g>
		</g>
		<g>
			<g>
				<line class="st4" x1="501.65" y1="257.3" x2="409.64" y2="419.97"/>
				<g>
					<polygon class="st0" points="500.39,257 502.53,255.74 502.56,258.23 					"/>
				</g>
			</g>
		</g>
		<g>
			<g>
				<line class="st4" x1="501.65" y1="311.6" x2="409.64" y2="148.93"/>
				<g>
					<polygon class="st0" points="502.56,310.67 502.53,313.16 500.39,311.9 					"/>
				</g>
			</g>
		</g>
		<g>
			<g>
				<line class="st4" x1="499.03" y1="313.53" x2="414.12" y2="223.46"/>
				<g>
					<polygon class="st0" points="499.69,312.41 500.26,314.84 497.88,314.12 					"/>
				</g>
			</g>
		</g>
		<g>
			<g>
				<line class="st4" x1="495.56" y1="318.86" x2="420.07" y2="292.17"/>
				<g>
					<polygon class="st0" points="495.63,317.56 497.25,319.46 494.8,319.91 					"/>
				</g>
			</g>
		</g>
		<g>
			<g>
				<line class="st4" x1="495.56" y1="327.87" x2="420.07" y2="354.57"/>
				<g>
					<polygon class="st0" points="494.8,326.82 497.25,327.27 495.63,329.17 					"/>
				</g>
			</g>
		</g>
		<g>
			<g>
				<line class="st4" x1="499.03" y1="333.2" x2="414.12" y2="423.27"/>
				<g>
					<polygon class="st0" points="497.88,332.61 500.26,331.9 499.69,334.32 					"/>
				</g>
			</g>
		</g>
		<g>
			<g>
				<line class="st4" x1="160.31" y1="222.25" x2="252.36" y2="306.53"/>
				<g>
					<polygon class="st0" points="251.25,307.2 253.68,307.74 252.93,305.36 					"/>
				</g>
			</g>
		</g>
	</g>
	<g>
		
			<ellipse transform="matrix(0.3673 -0.9301 0.9301 0.3673 -29.153 214.7255)" class="st5" cx="143.25" cy="128.79" rx="23.14" ry="23.14"/>
		
			<ellipse transform="matrix(0.7071 -0.7071 0.7071 0.7071 -218.9331 118.1808)" class="st5" cx="33.19" cy="323.37" rx="11.72" ry="11.72"/>
		<circle class="st5" cx="33.19" cy="245.54" r="11.72"/>
		<circle class="st5" cx="33.19" cy="167.71" r="11.72"/>
		
			<ellipse transform="matrix(0.7071 -0.7071 0.7071 0.7071 -79.7754 454.1371)" class="st5" cx="508.3" cy="323.37" rx="11.72" ry="11.72"/>
		
			<ellipse transform="matrix(0.4587 -0.8886 0.8886 0.4587 -106.0622 239.1317)" class="st5" cx="143.25" cy="206.62" rx="23.14" ry="23.14"/>
		
			<ellipse transform="matrix(0.1604 -0.987 0.987 0.1604 -237.3236 445.5537)" class="st5" cx="143.25" cy="362.28" rx="23.14" ry="23.14"/>
		
			<ellipse transform="matrix(0.4587 -0.8886 0.8886 0.4587 -175.2219 281.2618)" class="st5" cx="143.25" cy="284.45" rx="23.14" ry="23.14"/>
		
			<ellipse transform="matrix(0.1604 -0.987 0.987 0.1604 -314.146 510.8986)" class="st5" cx="143.25" cy="440.11" rx="23.14" ry="23.14"/>
		<circle class="st5" cx="270.75" cy="167.71" r="23.14"/>
		
			<ellipse transform="matrix(0.4597 -0.8881 0.8881 0.4597 -71.7719 373.099)" class="st5" cx="270.75" cy="245.54" rx="23.14" ry="23.14"/>
		
			<ellipse transform="matrix(0.081 -0.9967 0.9967 0.081 -151.0526 638.5728)" class="st5" cx="270.75" cy="401.2" rx="23.14" ry="23.14"/>
		
			<ellipse transform="matrix(0.081 -0.9967 0.9967 0.081 -73.4777 567.0438)" class="st5" cx="270.75" cy="323.37" rx="23.14" ry="23.14"/>
		
			<ellipse transform="matrix(0.9363 -0.3512 0.3512 0.9363 -19.8621 148.0825)" class="st5" cx="398.25" cy="128.79" rx="23.14" ry="23.14"/>
		
			<ellipse transform="matrix(0.8932 -0.4497 0.4497 0.8932 -50.3761 201.1672)" class="st5" cx="398.25" cy="206.62" rx="23.14" ry="23.14"/>
		
			<ellipse transform="matrix(0.9875 -0.1574 0.1574 0.9875 -52.0508 67.1879)" class="st5" cx="398.25" cy="362.28" rx="23.14" ry="23.14"/>
		
			<ellipse transform="matrix(0.8932 -0.4497 0.4497 0.8932 -85.3769 209.4813)" class="st5" cx="398.25" cy="284.45" rx="23.14" ry="23.14"/>
		
			<ellipse transform="matrix(0.9875 -0.1574 0.1574 0.9875 -64.2991 68.1577)" class="st5" cx="398.25" cy="440.11" rx="23.14" ry="23.14"/>
		<circle class="st5" cx="270.75" cy="89.87" r="23.14"/>
		
			<ellipse transform="matrix(0.081 -0.9967 0.9967 0.081 -228.6275 710.1019)" class="st5" cx="270.75" cy="479.03" rx="23.14" ry="23.14"/>
		<circle class="st5" cx="508.3" cy="245.54" r="11.72"/>
		
			<ellipse transform="matrix(0.7071 -0.7071 0.7071 0.7071 -273.9676 140.9768)" class="st5" cx="33.19" cy="401.2" rx="11.72" ry="11.72"/>
	</g>
	<g>
		<text transform="matrix(1 0 0 1 30.8037 171.6133)" class="st6 st1 st2">1</text>
		<text transform="matrix(1 0 0 1 28.6611 327.25)" class="st6 st1 st2">x2</text>
		<text transform="matrix(1 0 0 1 27.4658 405.1045)" class="st6 st1 st2">.x3</text>
		<text transform="matrix(1 0 0 1 28.6611 249.4434)" class="st6 st1 st2">x1</text>
		<text transform="matrix(1 0 0 1 135.8584 132.6982)" class="st6 st1 st2">h11</text>
		<text transform="matrix(1 0 0 1 135.8584 288.334)" class="st6 st1 st2">h13</text>
		<text transform="matrix(1 0 0 1 135.8584 366.1895)" class="st6 st1 st2">h14</text>
		<text transform="matrix(1 0 0 1 135.8584 445.4238)" class="st6 st1 st2">h15</text>
		<text transform="matrix(1 0 0 1 135.8584 210.5283)" class="st6 st1 st2">h12</text>
		<text transform="matrix(1 0 0 1 263.3604 93.0811)" class="st6 st1 st2">h21</text>
		<text transform="matrix(1 0 0 1 263.3604 248.7168)" class="st6 st1 st2">h23</text>
		<text transform="matrix(1 0 0 1 263.3604 326.5723)" class="st6 st1 st2">h24</text>
		<text transform="matrix(1 0 0 1 263.3604 405.8066)" class="st6 st1 st2">h25</text>
		<text transform="matrix(1 0 0 1 263.3604 483.5391)" class="st6 st1 st2">h26</text>
		<text transform="matrix(1 0 0 1 263.3604 170.9121)" class="st6 st1 st2">h22</text>
		<text transform="matrix(1 0 0 1 503.6738 326.5234)" class="st6 st1 st2">y2</text>
		<text transform="matrix(1 0 0 1 503.6738 248.7168)" class="st6 st1 st2">y1</text>
		<text transform="matrix(1 0 0 1 390.8623 131.9717)" class="st6 st1 st2">h31</text>
		<text transform="matrix(1 0 0 1 390.8623 287.6074)" class="st6 st1 st2">h33</text>
		<text transform="matrix(1 0 0 1 390.8623 365.4629)" class="st6 st1 st2">h34</text>
		<text transform="matrix(1 0 0 1 390.8623 444.6973)" class="st6 st1 st2">h35</text>
		<text transform="matrix(1 0 0 1 390.8623 209.8018)" class="st6 st1 st2">h32</text>
	</g>
</g>
</svg>
