<?xml version="1.0" encoding="utf-8"?>
<!-- Generator: Adobe Illustrator 23.0.1, SVG Export Plug-In . SVG Version: 6.00 Build 0)  -->
<svg version="1.1" id="Layer_1" xmlns="http://www.w3.org/2000/svg" xmlns:xlink="http://www.w3.org/1999/xlink" x="0px" y="0px"
	 viewBox="0 0 540 540" style="enable-background:new 0 0 540 540;" xml:space="preserve">
<style type="text/css">
	.st0{fill:#E6E6E6;}
	.st1{font-family:'SourceSansPro-Regular';}
	.st2{font-size:9.6052px;}
	.st3{fill:none;stroke:#E6E6E6;stroke-width:0.75;stroke-linecap:round;stroke-linejoin:round;stroke-dasharray:4;}
	.st4{fill:none;stroke:#E6E6E6;stroke-width:0.25;stroke-linecap:round;stroke-linejoin:round;}
	.st5{fill:#56CAF4;stroke:#E6E6E6;stroke-linecap:round;stroke-linejoin:round;}
	.st6{fill:#5956A4;stroke:#E6E6E6;stroke-linecap:round;stroke-linejoin:round;}
	.st7{fill:#9892C7;stroke:#E6E6E6;stroke-linecap:round;stroke-linejoin:round;}
	.st8{fill:#C9C6E3;stroke:#E6E6E6;stroke-linecap:round;stroke-linejoin:round;}
	.st9{fill:#D5EBDB;stroke:#E6E6E6;stroke-linecap:round;stroke-linejoin:round;}
	.st10{fill:#00B5F0;stroke:#E6E6E6;stroke-linecap:round;stroke-linejoin:round;}
	.st11{fill:#D9F0FC;stroke:#E6E6E6;stroke-linecap:round;stroke-linejoin:round;}
	.st12{fill:#DEF2FC;stroke:#E6E6E6;stroke-linecap:round;stroke-linejoin:round;}
	.st13{fill:#C0E7FA;stroke:#E6E6E6;stroke-linecap:round;stroke-linejoin:round;}
	.st14{fill:#00B1EF;stroke:#E6E6E6;stroke-linecap:round;stroke-linejoin:round;}
	.st15{fill:#C6E9FA;stroke:#E6E6E6;stroke-linecap:round;stroke-linejoin:round;}
	.st16{fill:#F4FAFD;stroke:#E6E6E6;stroke-linecap:round;stroke-linejoin:round;}
	.st17{fill:#BEE7FA;stroke:#E6E6E6;stroke-linecap:round;stroke-linejoin:round;}
	.st18{fill:#D1EDFB;stroke:#E6E6E6;stroke-linecap:round;stroke-linejoin:round;}
	.st19{fill:#DCF1FC;stroke:#E6E6E6;stroke-linecap:round;stroke-linejoin:round;}
	.st20{fill:#14C2F3;stroke:#E6E6E6;stroke-linecap:round;stroke-linejoin:round;}
	.st21{fill:#31C4F3;stroke:#E6E6E6;stroke-linecap:round;stroke-linejoin:round;}
	.st22{fill:#87D5F7;stroke:#E6E6E6;stroke-linecap:round;stroke-linejoin:round;}
	.st23{fill:#00AE63;stroke:#E6E6E6;stroke-linecap:round;stroke-linejoin:round;}
	.st24{fill:#E8E7F3;stroke:#E6E6E6;stroke-linecap:round;stroke-linejoin:round;}
	.st25{fill:#1A1A1A;}
</style>
<g>
	<g>
		<text transform="matrix(1 0 0 1 22.4299 35.5641)"><tspan x="0" y="0" class="st0 st1 st2">Input</tspan><tspan x="-0.25" y="11.53" class="st0 st1 st2">Layer</tspan></text>
		<text transform="matrix(1 0 0 1 128.6233 35.5641)"><tspan x="0" y="0" class="st0 st1 st2">Hidden</tspan><tspan x="0.26" y="11.53" class="st0 st1 st2">Layer 1</tspan></text>
		<text transform="matrix(1 0 0 1 256.1252 35.5641)"><tspan x="0" y="0" class="st0 st1 st2">Hidden</tspan><tspan x="0.26" y="11.53" class="st0 st1 st2">Layer 2</tspan></text>
		<text transform="matrix(1 0 0 1 383.6272 35.5641)"><tspan x="0" y="0" class="st0 st1 st2">Hidden</tspan><tspan x="0.26" y="11.53" class="st0 st1 st2">Layer 3</tspan></text>
		<text transform="matrix(1 0 0 1 494.0081 35.5641)"><tspan x="0" y="0" class="st0 st1 st2">Output</tspan><tspan x="3.28" y="11.53" class="st0 st1 st2">Layer</tspan></text>
	</g>
	<g>
		<line class="st3" x1="270.78" y1="523.24" x2="270.78" y2="55.11"/>
		<line class="st3" x1="143.28" y1="484.32" x2="143.28" y2="55.11"/>
		<line class="st3" x1="398.28" y1="484.32" x2="398.28" y2="55.11"/>
		<line class="st3" x1="508.33" y1="367.58" x2="508.33" y2="55.11"/>
		<line class="st3" x1="33.22" y1="445.41" x2="33.22" y2="55.11"/>
		<g>
			<g>
				<line class="st4" x1="384.61" y1="305.29" x2="283.46" y2="459.66"/>
				<g>
					<polygon class="st0" points="383.37,304.91 385.6,303.79 385.46,306.28 					"/>
				</g>
			</g>
		</g>
		<g>
			<g>
				<line class="st4" x1="379.89" y1="301.28" x2="287.85" y2="385.55"/>
				<g>
					<polygon class="st0" points="378.78,300.6 381.21,300.06 380.46,302.44 					"/>
				</g>
			</g>
		</g>
		<g>
			<g>
				<line class="st4" x1="374.43" y1="291.71" x2="292.91" y2="316.6"/>
				<g>
					<polygon class="st0" points="373.72,290.63 376.15,291.19 374.45,293.01 					"/>
				</g>
			</g>
		</g>
		<g>
			<g>
				<line class="st4" x1="374.43" y1="277.16" x2="292.91" y2="252.28"/>
				<g>
					<polygon class="st0" points="374.45,275.86 376.15,277.68 373.72,278.24 					"/>
				</g>
			</g>
		</g>
		<g>
			<g>
				<line class="st4" x1="379.89" y1="267.6" x2="287.85" y2="183.32"/>
				<g>
					<polygon class="st0" points="380.46,266.43 381.21,268.81 378.78,268.27 					"/>
				</g>
			</g>
		</g>
		<g>
			<g>
				<line class="st4" x1="384.61" y1="263.58" x2="283.46" y2="109.22"/>
				<g>
					<polygon class="st0" points="385.46,262.59 385.6,265.08 383.37,263.96 					"/>
				</g>
			</g>
		</g>
		<g>
			<g>
				<line class="st4" x1="387.71" y1="229.19" x2="280.59" y2="458.05"/>
				<g>
					<polygon class="st0" points="386.43,228.99 388.47,227.56 388.68,230.05 					"/>
				</g>
			</g>
		</g>
		<g>
			<g>
				<line class="st4" x1="384.61" y1="227.46" x2="283.46" y2="381.83"/>
				<g>
					<polygon class="st0" points="383.37,227.08 385.6,225.96 385.46,228.45 					"/>
				</g>
			</g>
		</g>
		<g>
			<g>
				<line class="st4" x1="379.89" y1="223.44" x2="287.85" y2="307.72"/>
				<g>
					<polygon class="st0" points="378.78,222.77 381.21,222.23 380.46,224.61 					"/>
				</g>
			</g>
		</g>
		<g>
			<g>
				<line class="st4" x1="374.43" y1="213.88" x2="292.91" y2="238.77"/>
				<g>
					<polygon class="st0" points="373.72,212.8 376.15,213.36 374.45,215.18 					"/>
				</g>
			</g>
		</g>
		<g>
			<g>
				<line class="st4" x1="374.43" y1="199.33" x2="292.91" y2="174.45"/>
				<g>
					<polygon class="st0" points="374.45,198.03 376.15,199.85 373.72,200.41 					"/>
				</g>
			</g>
		</g>
		<g>
			<g>
				<line class="st4" x1="379.89" y1="189.77" x2="287.85" y2="105.49"/>
				<g>
					<polygon class="st0" points="380.46,188.6 381.21,190.98 378.78,190.44 					"/>
				</g>
			</g>
		</g>
		<g>
			<g>
				<line class="st4" x1="389.75" y1="152.21" x2="278.69" y2="457.27"/>
				<g>
					<polygon class="st0" points="388.45,152.12 390.36,150.52 390.8,152.98 					"/>
				</g>
			</g>
		</g>
		<g>
			<g>
				<line class="st4" x1="387.71" y1="151.36" x2="280.59" y2="380.22"/>
				<g>
					<polygon class="st0" points="386.43,151.16 388.47,149.73 388.68,152.22 					"/>
				</g>
			</g>
		</g>
		<g>
			<g>
				<line class="st4" x1="384.61" y1="149.63" x2="283.46" y2="304"/>
				<g>
					<polygon class="st0" points="383.37,149.25 385.6,148.13 385.46,150.62 					"/>
				</g>
			</g>
		</g>
		<g>
			<g>
				<line class="st4" x1="379.89" y1="145.61" x2="287.85" y2="229.89"/>
				<g>
					<polygon class="st0" points="378.78,144.94 381.21,144.4 380.46,146.78 					"/>
				</g>
			</g>
		</g>
		<g>
			<g>
				<line class="st4" x1="374.43" y1="136.05" x2="292.91" y2="160.93"/>
				<g>
					<polygon class="st0" points="373.72,134.97 376.15,135.53 374.45,137.35 					"/>
				</g>
			</g>
		</g>
		<g>
			<g>
				<line class="st4" x1="374.43" y1="121.5" x2="292.91" y2="96.62"/>
				<g>
					<polygon class="st0" points="374.45,120.2 376.15,122.02 373.72,122.58 					"/>
				</g>
			</g>
		</g>
		<g>
			<g>
				<line class="st4" x1="165.41" y1="446.85" x2="246.93" y2="471.73"/>
				<g>
					<polygon class="st0" points="246.22,472.82 248.64,472.26 246.94,470.43 					"/>
				</g>
			</g>
		</g>
		<g>
			<g>
				<line class="st4" x1="160.34" y1="377.89" x2="252.39" y2="462.17"/>
				<g>
					<polygon class="st0" points="251.28,462.85 253.71,463.38 252.96,461.01 					"/>
				</g>
			</g>
		</g>
		<g>
			<g>
				<line class="st4" x1="155.96" y1="303.79" x2="257.11" y2="458.16"/>
				<g>
					<polygon class="st0" points="255.87,458.53 258.09,459.66 257.95,457.17 					"/>
				</g>
			</g>
		</g>
		<g>
			<g>
				<line class="st4" x1="153.09" y1="227.56" x2="260.21" y2="456.43"/>
				<g>
					<polygon class="st0" points="258.92,456.63 260.97,458.05 261.18,455.57 					"/>
				</g>
			</g>
		</g>
		<g>
			<g>
				<line class="st4" x1="151.19" y1="150.52" x2="262.25" y2="455.58"/>
				<g>
					<polygon class="st0" points="260.95,455.66 262.86,457.27 263.29,454.81 					"/>
				</g>
			</g>
		</g>
		<g>
			<g>
				<line class="st4" x1="165.41" y1="433.34" x2="246.93" y2="408.46"/>
				<g>
					<polygon class="st0" points="246.94,409.76 248.64,407.94 246.22,407.37 					"/>
				</g>
			</g>
		</g>
		<g>
			<g>
				<line class="st4" x1="165.41" y1="369.02" x2="246.93" y2="393.9"/>
				<g>
					<polygon class="st0" points="246.22,394.99 248.64,394.43 246.94,392.6 					"/>
				</g>
			</g>
		</g>
		<g>
			<g>
				<line class="st4" x1="160.34" y1="300.06" x2="252.39" y2="384.34"/>
				<g>
					<polygon class="st0" points="251.28,385.02 253.71,385.55 252.96,383.18 					"/>
				</g>
			</g>
		</g>
		<g>
			<g>
				<line class="st4" x1="155.96" y1="225.96" x2="257.11" y2="380.32"/>
				<g>
					<polygon class="st0" points="255.87,380.7 258.09,381.83 257.95,379.34 					"/>
				</g>
			</g>
		</g>
		<g>
			<g>
				<line class="st4" x1="153.09" y1="149.73" x2="260.21" y2="378.6"/>
				<g>
					<polygon class="st0" points="258.92,378.8 260.97,380.22 261.18,377.74 					"/>
				</g>
			</g>
		</g>
		<g>
			<g>
				<line class="st4" x1="160.34" y1="424.47" x2="252.39" y2="340.19"/>
				<g>
					<polygon class="st0" points="252.96,341.36 253.71,338.98 251.28,339.52 					"/>
				</g>
			</g>
		</g>
		<g>
			<g>
				<line class="st4" x1="165.41" y1="355.51" x2="246.93" y2="330.63"/>
				<g>
					<polygon class="st0" points="246.94,331.93 248.64,330.11 246.22,329.54 					"/>
				</g>
			</g>
		</g>
		<g>
			<g>
				<line class="st4" x1="165.41" y1="291.19" x2="246.93" y2="316.07"/>
				<g>
					<polygon class="st0" points="246.22,317.16 248.64,316.6 246.94,314.77 					"/>
				</g>
			</g>
		</g>
		<g>
			<g>
				<line class="st4" x1="387.71" y1="339.68" x2="280.59" y2="110.82"/>
				<g>
					<polygon class="st0" points="388.68,338.82 388.47,341.31 386.43,339.88 					"/>
				</g>
			</g>
		</g>
		<g>
			<g>
				<line class="st4" x1="155.96" y1="148.13" x2="257.11" y2="302.49"/>
				<g>
					<polygon class="st0" points="255.87,302.87 258.09,304 257.95,301.51 					"/>
				</g>
			</g>
		</g>
		<g>
			<g>
				<line class="st4" x1="155.96" y1="420.74" x2="257.11" y2="266.38"/>
				<g>
					<polygon class="st0" points="257.95,267.37 258.09,264.88 255.87,266 					"/>
				</g>
			</g>
		</g>
		<g>
			<g>
				<line class="st4" x1="160.34" y1="346.64" x2="252.39" y2="262.36"/>
				<g>
					<polygon class="st0" points="252.96,263.53 253.71,261.15 251.28,261.69 					"/>
				</g>
			</g>
		</g>
		<g>
			<g>
				<line class="st4" x1="165.41" y1="277.68" x2="246.93" y2="252.8"/>
				<g>
					<polygon class="st0" points="246.94,254.1 248.64,252.28 246.22,251.71 					"/>
				</g>
			</g>
		</g>
		<g>
			<g>
				<line class="st4" x1="165.41" y1="213.36" x2="246.93" y2="238.24"/>
				<g>
					<polygon class="st0" points="246.22,239.33 248.64,238.77 246.94,236.94 					"/>
				</g>
			</g>
		</g>
		<g>
			<g>
				<line class="st4" x1="160.34" y1="144.4" x2="252.39" y2="228.68"/>
				<g>
					<polygon class="st0" points="251.28,229.35 253.71,229.89 252.96,227.52 					"/>
				</g>
			</g>
		</g>
		<g>
			<g>
				<line class="st4" x1="153.09" y1="419.14" x2="260.21" y2="190.27"/>
				<g>
					<polygon class="st0" points="261.18,191.13 260.97,188.65 258.92,190.08 					"/>
				</g>
			</g>
		</g>
		<g>
			<g>
				<line class="st4" x1="155.96" y1="342.91" x2="257.11" y2="188.55"/>
				<g>
					<polygon class="st0" points="257.95,189.53 258.09,187.05 255.87,188.17 					"/>
				</g>
			</g>
		</g>
		<g>
			<g>
				<line class="st4" x1="160.34" y1="268.81" x2="252.39" y2="184.53"/>
				<g>
					<polygon class="st0" points="252.96,185.7 253.71,183.32 251.28,183.86 					"/>
				</g>
			</g>
		</g>
		<g>
			<g>
				<line class="st4" x1="165.41" y1="199.85" x2="246.93" y2="174.97"/>
				<g>
					<polygon class="st0" points="246.94,176.27 248.64,174.45 246.22,173.88 					"/>
				</g>
			</g>
		</g>
		<g>
			<g>
				<line class="st4" x1="165.41" y1="135.53" x2="246.93" y2="160.41"/>
				<g>
					<polygon class="st0" points="246.22,161.5 248.64,160.93 246.94,159.11 					"/>
				</g>
			</g>
		</g>
		<g>
			<g>
				<line class="st4" x1="151.19" y1="418.35" x2="262.25" y2="113.29"/>
				<g>
					<polygon class="st0" points="263.29,114.06 262.86,111.61 260.95,113.21 					"/>
				</g>
			</g>
		</g>
		<g>
			<g>
				<line class="st4" x1="153.09" y1="341.31" x2="260.21" y2="112.44"/>
				<g>
					<polygon class="st0" points="261.18,113.3 260.97,110.82 258.92,112.25 					"/>
				</g>
			</g>
		</g>
		<g>
			<g>
				<line class="st4" x1="155.96" y1="265.08" x2="257.11" y2="110.72"/>
				<g>
					<polygon class="st0" points="257.95,111.7 258.09,109.22 255.87,110.34 					"/>
				</g>
			</g>
		</g>
		<g>
			<g>
				<line class="st4" x1="160.34" y1="190.98" x2="252.39" y2="106.7"/>
				<g>
					<polygon class="st0" points="252.96,107.86 253.71,105.49 251.28,106.03 					"/>
				</g>
			</g>
		</g>
		<g>
			<g>
				<line class="st4" x1="165.41" y1="122.02" x2="246.93" y2="97.14"/>
				<g>
					<polygon class="st0" points="246.94,98.44 248.64,96.62 246.22,96.05 					"/>
				</g>
			</g>
		</g>
		<g>
			<g>
				<line class="st4" x1="44.27" y1="405.09" x2="119.77" y2="431.78"/>
				<g>
					<polygon class="st0" points="119.01,432.84 121.46,432.38 119.84,430.49 					"/>
				</g>
			</g>
		</g>
		<g>
			<g>
				<line class="st4" x1="41.26" y1="331.88" x2="126.17" y2="421.95"/>
				<g>
					<polygon class="st0" points="125.01,422.54 127.4,423.26 126.83,420.83 					"/>
				</g>
			</g>
		</g>
		<g>
			<g>
				<line class="st4" x1="38.99" y1="255.72" x2="131" y2="418.39"/>
				<g>
					<polygon class="st0" points="129.74,418.69 131.88,419.95 131.91,417.46 					"/>
				</g>
			</g>
		</g>
		<g>
			<g>
				<line class="st4" x1="37.61" y1="178.56" x2="133.94" y2="416.98"/>
				<g>
					<polygon class="st0" points="132.64,417.11 134.61,418.64 134.95,416.17 					"/>
				</g>
			</g>
		</g>
		<g>
			<g>
				<line class="st4" x1="44.27" y1="397.27" x2="119.77" y2="370.58"/>
				<g>
					<polygon class="st0" points="119.84,371.88 121.46,369.98 119.01,369.53 					"/>
				</g>
			</g>
		</g>
		<g>
			<g>
				<line class="st4" x1="44.27" y1="327.26" x2="119.77" y2="353.95"/>
				<g>
					<polygon class="st0" points="119.01,355.01 121.46,354.55 119.84,352.66 					"/>
				</g>
			</g>
		</g>
		<g>
			<g>
				<line class="st4" x1="41.26" y1="254.05" x2="126.17" y2="344.12"/>
				<g>
					<polygon class="st0" points="125.01,344.71 127.4,345.43 126.83,343 					"/>
				</g>
			</g>
		</g>
		<g>
			<g>
				<line class="st4" x1="38.99" y1="177.89" x2="131" y2="340.56"/>
				<g>
					<polygon class="st0" points="129.74,340.86 131.88,342.12 131.91,339.63 					"/>
				</g>
			</g>
		</g>
		<g>
			<g>
				<line class="st4" x1="41.26" y1="392.65" x2="126.17" y2="302.58"/>
				<g>
					<polygon class="st0" points="126.83,303.7 127.4,301.27 125.01,301.99 					"/>
				</g>
			</g>
		</g>
		<g>
			<g>
				<line class="st4" x1="44.27" y1="319.44" x2="119.77" y2="292.75"/>
				<g>
					<polygon class="st0" points="119.84,294.05 121.46,292.15 119.01,291.69 					"/>
				</g>
			</g>
		</g>
		<g>
			<g>
				<line class="st4" x1="44.27" y1="249.43" x2="119.77" y2="276.12"/>
				<g>
					<polygon class="st0" points="119.01,277.18 121.46,276.72 119.84,274.83 					"/>
				</g>
			</g>
		</g>
		<g>
			<g>
				<line class="st4" x1="41.26" y1="176.22" x2="126.17" y2="266.29"/>
				<g>
					<polygon class="st0" points="125.01,266.88 127.4,267.6 126.83,265.17 					"/>
				</g>
			</g>
		</g>
		<g>
			<g>
				<line class="st4" x1="38.99" y1="390.98" x2="131" y2="228.31"/>
				<g>
					<polygon class="st0" points="131.91,229.24 131.88,226.75 129.74,228.01 					"/>
				</g>
			</g>
		</g>
		<g>
			<g>
				<line class="st4" x1="41.26" y1="314.82" x2="126.17" y2="224.75"/>
				<g>
					<polygon class="st0" points="126.83,225.87 127.4,223.44 125.01,224.16 					"/>
				</g>
			</g>
		</g>
		<g>
			<g>
				<line class="st4" x1="44.27" y1="241.61" x2="119.77" y2="214.92"/>
				<g>
					<polygon class="st0" points="119.84,216.22 121.46,214.32 119.01,213.86 					"/>
				</g>
			</g>
		</g>
		<g>
			<g>
				<line class="st4" x1="44.27" y1="171.6" x2="119.77" y2="198.29"/>
				<g>
					<polygon class="st0" points="119.01,199.35 121.46,198.89 119.84,197 					"/>
				</g>
			</g>
		</g>
		<g>
			<g>
				<line class="st4" x1="37.61" y1="390.31" x2="133.94" y2="151.89"/>
				<g>
					<polygon class="st0" points="134.95,152.7 134.61,150.23 132.64,151.77 					"/>
				</g>
			</g>
		</g>
		<g>
			<g>
				<line class="st4" x1="38.99" y1="313.15" x2="131" y2="150.48"/>
				<g>
					<polygon class="st0" points="131.91,151.41 131.88,148.92 129.74,150.18 					"/>
				</g>
			</g>
		</g>
		<g>
			<g>
				<line class="st4" x1="41.26" y1="236.99" x2="126.17" y2="146.92"/>
				<g>
					<polygon class="st0" points="126.83,148.04 127.4,145.61 125.01,146.33 					"/>
				</g>
			</g>
		</g>
		<g>
			<g>
				<line class="st4" x1="44.27" y1="163.78" x2="119.77" y2="137.09"/>
				<g>
					<polygon class="st0" points="119.84,138.38 121.46,136.49 119.01,136.03 					"/>
				</g>
			</g>
		</g>
		<g>
			<g>
				<line class="st4" x1="384.61" y1="341.41" x2="283.46" y2="187.05"/>
				<g>
					<polygon class="st0" points="385.46,340.42 385.6,342.91 383.37,341.79 					"/>
				</g>
			</g>
		</g>
		<g>
			<g>
				<line class="st4" x1="379.89" y1="345.43" x2="287.85" y2="261.15"/>
				<g>
					<polygon class="st0" points="380.46,344.26 381.21,346.64 378.78,346.1 					"/>
				</g>
			</g>
		</g>
		<g>
			<g>
				<line class="st4" x1="374.43" y1="354.99" x2="292.91" y2="330.11"/>
				<g>
					<polygon class="st0" points="374.45,353.69 376.15,355.51 373.72,356.07 					"/>
				</g>
			</g>
		</g>
		<g>
			<g>
				<line class="st4" x1="374.43" y1="369.55" x2="292.91" y2="394.43"/>
				<g>
					<polygon class="st0" points="373.72,368.46 376.15,369.02 374.45,370.84 					"/>
				</g>
			</g>
		</g>
		<g>
			<g>
				<line class="st4" x1="379.89" y1="379.11" x2="287.85" y2="463.38"/>
				<g>
					<polygon class="st0" points="378.78,378.43 381.21,377.89 380.46,380.27 					"/>
				</g>
			</g>
		</g>
		<g>
			<g>
				<line class="st4" x1="389.75" y1="416.67" x2="278.69" y2="111.61"/>
				<g>
					<polygon class="st0" points="390.8,415.9 390.36,418.35 388.45,416.75 					"/>
				</g>
			</g>
		</g>
		<g>
			<g>
				<line class="st4" x1="387.71" y1="417.51" x2="280.59" y2="188.65"/>
				<g>
					<polygon class="st0" points="388.68,416.65 388.47,419.14 386.43,417.71 					"/>
				</g>
			</g>
		</g>
		<g>
			<g>
				<line class="st4" x1="384.61" y1="419.24" x2="283.46" y2="264.88"/>
				<g>
					<polygon class="st0" points="385.46,418.25 385.6,420.74 383.37,419.62 					"/>
				</g>
			</g>
		</g>
		<g>
			<g>
				<line class="st4" x1="379.89" y1="423.26" x2="287.85" y2="338.98"/>
				<g>
					<polygon class="st0" points="380.46,422.09 381.21,424.47 378.78,423.93 					"/>
				</g>
			</g>
		</g>
		<g>
			<g>
				<line class="st4" x1="374.43" y1="432.82" x2="292.91" y2="407.94"/>
				<g>
					<polygon class="st0" points="374.45,431.52 376.15,433.34 373.72,433.9 					"/>
				</g>
			</g>
		</g>
		<g>
			<g>
				<line class="st4" x1="374.43" y1="447.38" x2="292.91" y2="472.26"/>
				<g>
					<polygon class="st0" points="373.72,446.29 376.15,446.85 374.45,448.67 					"/>
				</g>
			</g>
		</g>
		<g>
			<g>
				<line class="st4" x1="499.06" y1="235.69" x2="414.15" y2="145.61"/>
				<g>
					<polygon class="st0" points="499.72,234.56 500.29,236.99 497.91,236.28 					"/>
				</g>
			</g>
		</g>
		<g>
			<g>
				<line class="st4" x1="495.59" y1="241.01" x2="420.1" y2="214.32"/>
				<g>
					<polygon class="st0" points="495.66,239.72 497.28,241.61 494.83,242.07 					"/>
				</g>
			</g>
		</g>
		<g>
			<g>
				<line class="st4" x1="495.59" y1="250.03" x2="420.1" y2="276.72"/>
				<g>
					<polygon class="st0" points="494.83,248.97 497.28,249.43 495.66,251.32 					"/>
				</g>
			</g>
		</g>
		<g>
			<g>
				<line class="st4" x1="499.06" y1="255.36" x2="414.15" y2="345.43"/>
				<g>
					<polygon class="st0" points="497.91,254.77 500.29,254.05 499.72,256.48 					"/>
				</g>
			</g>
		</g>
		<g>
			<g>
				<line class="st4" x1="501.68" y1="257.29" x2="409.67" y2="419.95"/>
				<g>
					<polygon class="st0" points="500.42,256.99 502.56,255.72 502.59,258.22 					"/>
				</g>
			</g>
		</g>
		<g>
			<g>
				<line class="st4" x1="501.68" y1="311.59" x2="409.67" y2="148.92"/>
				<g>
					<polygon class="st0" points="502.59,310.65 502.56,313.15 500.42,311.88 					"/>
				</g>
			</g>
		</g>
		<g>
			<g>
				<line class="st4" x1="499.06" y1="313.52" x2="414.15" y2="223.44"/>
				<g>
					<polygon class="st0" points="499.72,312.4 500.29,314.82 497.91,314.11 					"/>
				</g>
			</g>
		</g>
		<g>
			<g>
				<line class="st4" x1="495.59" y1="318.85" x2="420.1" y2="292.15"/>
				<g>
					<polygon class="st0" points="495.66,317.55 497.28,319.44 494.83,319.9 					"/>
				</g>
			</g>
		</g>
		<g>
			<g>
				<line class="st4" x1="495.59" y1="327.86" x2="420.1" y2="354.55"/>
				<g>
					<polygon class="st0" points="494.83,326.8 497.28,327.26 495.66,329.15 					"/>
				</g>
			</g>
		</g>
		<g>
			<g>
				<line class="st4" x1="499.06" y1="333.19" x2="414.15" y2="423.26"/>
				<g>
					<polygon class="st0" points="497.91,332.6 500.29,331.88 499.72,334.31 					"/>
				</g>
			</g>
		</g>
		<g>
			<g>
				<line class="st4" x1="160.34" y1="222.23" x2="252.39" y2="306.51"/>
				<g>
					<polygon class="st0" points="251.28,307.18 253.71,307.72 252.96,305.35 					"/>
				</g>
			</g>
		</g>
	</g>
	<g>
		
			<ellipse transform="matrix(0.3673 -0.9301 0.9301 0.3673 -29.1196 214.7445)" class="st5" cx="143.28" cy="128.77" rx="23.14" ry="23.14"/>
		
			<ellipse transform="matrix(0.7071 -0.7071 0.7071 0.7071 -218.9135 118.198)" class="st6" cx="33.22" cy="323.35" rx="11.72" ry="11.72"/>
		<circle class="st7" cx="33.22" cy="245.52" r="11.72"/>
		<circle class="st8" cx="33.22" cy="167.69" r="11.72"/>
		
			<ellipse transform="matrix(0.7071 -0.7071 0.7071 0.7071 -79.7558 454.1544)" class="st9" cx="508.33" cy="323.35" rx="11.72" ry="11.72"/>
		
			<ellipse transform="matrix(0.4587 -0.8886 0.8886 0.4587 -106.0323 239.1508)" class="st10" cx="143.28" cy="206.61" rx="23.14" ry="23.14"/>
		
			<ellipse transform="matrix(0.1604 -0.987 0.987 0.1604 -237.283 445.5714)" class="st11" cx="143.28" cy="362.27" rx="23.14" ry="23.14"/>
		
			<ellipse transform="matrix(0.4587 -0.8886 0.8886 0.4587 -175.192 281.2809)" class="st12" cx="143.28" cy="284.44" rx="23.14" ry="23.14"/>
		
			<ellipse transform="matrix(0.1604 -0.987 0.987 0.1604 -314.1054 510.9162)" class="st13" cx="143.28" cy="440.1" rx="23.14" ry="23.14"/>
		<circle class="st11" cx="270.78" cy="167.69" r="23.14"/>
		
			<ellipse transform="matrix(0.4597 -0.8881 0.8881 0.4597 -71.742 373.1181)" class="st14" cx="270.78" cy="245.52" rx="23.14" ry="23.14"/>
		
			<ellipse transform="matrix(0.081 -0.9967 0.9967 0.081 -151.0095 638.5895)" class="st15" cx="270.78" cy="401.18" rx="23.14" ry="23.14"/>
		
			<ellipse transform="matrix(0.081 -0.9967 0.9967 0.081 -73.4346 567.0605)" class="st16" cx="270.78" cy="323.35" rx="23.14" ry="23.14"/>
		
			<ellipse transform="matrix(0.9363 -0.3512 0.3512 0.9363 -19.8549 148.0923)" class="st17" cx="398.28" cy="128.77" rx="23.14" ry="23.14"/>
		
			<ellipse transform="matrix(0.8932 -0.4497 0.4497 0.8932 -50.3661 201.1794)" class="st18" cx="398.28" cy="206.61" rx="23.14" ry="23.14"/>
		
			<ellipse transform="matrix(0.9875 -0.1574 0.1574 0.9875 -52.048 67.1926)" class="st11" cx="398.28" cy="362.27" rx="23.14" ry="23.14"/>
		
			<ellipse transform="matrix(0.8932 -0.4497 0.4497 0.8932 -85.3669 209.4935)" class="st19" cx="398.28" cy="284.44" rx="23.14" ry="23.14"/>
		
			<ellipse transform="matrix(0.9875 -0.1574 0.1574 0.9875 -64.2964 68.1624)" class="st20" cx="398.28" cy="440.1" rx="23.14" ry="23.14"/>
		<circle class="st21" cx="270.78" cy="89.86" r="23.14"/>
		
			<ellipse transform="matrix(0.081 -0.9967 0.9967 0.081 -228.5844 710.1187)" class="st22" cx="270.78" cy="479.01" rx="23.14" ry="23.14"/>
		<circle class="st23" cx="508.33" cy="245.52" r="11.72"/>
		
			<ellipse transform="matrix(0.7071 -0.7071 0.7071 0.7071 -273.9479 140.994)" class="st24" cx="33.22" cy="401.18" rx="11.72" ry="11.72"/>
	</g>
	<g>
		<text transform="matrix(1 0 0 1 27.2512 171.5983)" class="st25 st1 st2">.19</text>
		<text transform="matrix(1 0 0 1 27.2512 327.235)" class="st25 st1 st2">.76</text>
		<text transform="matrix(1 0 0 1 27.2512 405.0895)" class="st25 st1 st2">.07</text>
		<text transform="matrix(1 0 0 1 27.2512 249.4283)" class="st25 st1 st2">.41</text>
		<text transform="matrix(1 0 0 1 137.3059 132.6832)" class="st25 st1 st2">.56</text>
		<text transform="matrix(1 0 0 1 137.3059 288.319)" class="st25 st1 st2">.11</text>
		<text transform="matrix(1 0 0 1 137.3059 366.1744)" class="st25 st1 st2">.13</text>
		<text transform="matrix(1 0 0 1 137.3059 445.4088)" class="st25 st1 st2">.22</text>
		<text transform="matrix(1 0 0 1 137.3059 210.5133)" class="st25 st1 st2">.84</text>
		<text transform="matrix(1 0 0 1 264.8079 93.066)" class="st25 st1 st2">.63</text>
		<text transform="matrix(1 0 0 1 264.8079 248.7018)" class="st25 st1 st2">.92</text>
		<text transform="matrix(1 0 0 1 264.8079 326.5573)" class="st25 st1 st2">.03</text>
		<text transform="matrix(1 0 0 1 264.8079 405.7916)" class="st25 st1 st2">.20</text>
		<text transform="matrix(1 0 0 1 264.8079 483.524)" class="st25 st1 st2">.42</text>
		<text transform="matrix(1 0 0 1 264.8079 170.8971)" class="st25 st1 st2">.13</text>
		<text transform="matrix(1 0 0 1 502.3645 326.5084)" class="st25 st1 st2">.16</text>
		<text transform="matrix(1 0 0 1 502.3645 248.7018)" class="st25 st1 st2">.84</text>
		<text transform="matrix(1 0 0 1 392.3098 131.9567)" class="st25 st1 st2">.23</text>
		<text transform="matrix(1 0 0 1 392.3098 287.5924)" class="st25 st1 st2">.12</text>
		<text transform="matrix(1 0 0 1 392.3098 365.4479)" class="st25 st1 st2">.13</text>
		<text transform="matrix(1 0 0 1 392.3098 444.6823)" class="st25 st1 st2">.66</text>
		<text transform="matrix(1 0 0 1 392.3098 209.7867)" class="st25 st1 st2">.16</text>
	</g>
</g>
</svg>
