<?xml version="1.0" encoding="utf-8"?>
<!-- Generator: Adobe Illustrator 23.0.1, SVG Export Plug-In . SVG Version: 6.00 Build 0)  -->
<svg version="1.1" id="Layer_1" xmlns="http://www.w3.org/2000/svg" xmlns:xlink="http://www.w3.org/1999/xlink" x="0px" y="0px"
	 viewBox="0 0 1008 622" style="enable-background:new 0 0 1008 622;" xml:space="preserve">
<style type="text/css">
	.st0{fill:none;stroke:#E6E6E6;stroke-width:6;stroke-miterlimit:10;}
	.st1{fill:none;stroke:#E6E6E6;stroke-width:2;stroke-miterlimit:10;}
	.st2{fill:#E6E6E6;}
	.st3{fill:none;stroke:#E6E6E6;stroke-width:4;stroke-miterlimit:10;}
</style>
<g>
	<circle class="st0" cx="515.9" cy="318.89" r="85.3"/>
	<g>
		<g>
			<line class="st1" x1="395.63" y1="318.89" x2="157.88" y2="318.89"/>
			<g>
				<polygon class="st2" points="394.17,313.9 402.81,318.89 394.17,323.88 				"/>
			</g>
		</g>
	</g>
	<g>
		<g>
			<line class="st1" x1="428.35" y1="221.03" x2="247.42" y2="40.11"/>
			<g>
				<polygon class="st2" points="430.84,216.47 433.42,226.11 423.79,223.53 				"/>
			</g>
		</g>
	</g>
	<g>
		<g>
			<line class="st1" x1="434.8" y1="406.57" x2="269.1" y2="572.27"/>
			<g>
				<polygon class="st2" points="430.25,404.07 439.88,401.49 437.3,411.12 				"/>
			</g>
		</g>
	</g>
	<g>
		<g>
			<line class="st1" x1="401.08" y1="268.93" x2="186.22" y2="178.71"/>
			<g>
				<polygon class="st2" points="401.66,263.77 407.69,271.71 397.8,272.96 				"/>
			</g>
		</g>
	</g>
	<g>
		<g>
			<line class="st1" x1="407.25" y1="369.08" x2="196.36" y2="466.41"/>
			<g>
				<polygon class="st2" points="403.83,365.16 413.76,366.07 408.01,374.22 				"/>
			</g>
		</g>
	</g>
	<g>
		<g>
			<line class="st3" x1="839.23" y1="318.89" x2="608.65" y2="318.89"/>
			<g>
				<polygon class="st2" points="836.31,308.92 853.58,318.89 836.31,328.86 				"/>
			</g>
		</g>
	</g>
</g>
<g>
	<g>
		<g>
			<path class="st2" d="M113.46,179.99l-7.09-9.75h3.79l3.21,4.42c0.71,1.13,1.54,2.33,2.38,3.42h0.17
				c0.75-1.08,1.58-2.33,2.29-3.46l3-4.38h3.67l-7.17,10.05l7.75,10.21h-3.84l-3.5-4.67c-0.88-1.13-1.79-2.5-2.67-3.67h-0.17
				c-0.83,1.21-1.67,2.42-2.5,3.71l-3.33,4.63h-3.67L113.46,179.99z"/>
			<path class="st2" d="M132.18,187.62h7.67v-19.51h-5.96v-2.25c3.13-0.42,5.13-1.04,6.84-1.96h2.58v23.72h6.92v2.88h-18.05V187.62z
				"/>
		</g>
	</g>
	<g>
		<g>
			<path class="st2" d="M106.95,320.7l-7.09-9.75h3.79l3.21,4.42c0.71,1.13,1.54,2.33,2.38,3.42h0.17c0.75-1.08,1.58-2.33,2.29-3.46
				l3-4.38h3.67l-7.17,10.05l7.75,10.21h-3.84l-3.5-4.67c-0.88-1.13-1.79-2.5-2.67-3.67h-0.17c-0.83,1.21-1.67,2.42-2.5,3.71
				l-3.33,4.63h-3.67L106.95,320.7z"/>
			<path class="st2" d="M124.67,329.16c9-7.96,13.92-12.63,13.92-17.05c0-3.04-1.83-5.17-5.75-5.17c-2.5,0-4.67,1.42-6.38,3.17
				l-2-1.96c2.42-2.42,5.04-4.04,8.8-4.04c5.34,0,8.67,3.13,8.67,7.84c0,5-5,9.96-12.21,16.51c1.67-0.13,3.38-0.21,4.96-0.21h8.71
				v2.96h-18.72V329.16z"/>
		</g>
	</g>
	<g>
		<g>
			<path class="st2" d="M143.2,476.38l-7.09-9.75h3.79l3.21,4.42c0.71,1.13,1.54,2.33,2.38,3.42h0.17c0.75-1.08,1.58-2.33,2.29-3.46
				l3-4.38h3.67l-7.17,10.05l7.75,10.21h-3.84l-3.5-4.67c-0.88-1.13-1.79-2.5-2.67-3.67h-0.17c-0.83,1.21-1.67,2.42-2.5,3.71
				l-3.33,4.63h-3.67L143.2,476.38z"/>
			<path class="st2" d="M160.26,483.63l1.75-2.25c1.75,1.67,4.21,3.13,7.63,3.13c3.63,0,6.34-1.88,6.34-4.84
				c0-3.17-2.67-5.29-9.63-5.29v-2.63c6.29,0,8.71-2.17,8.71-4.96c0-2.54-2.21-4.17-5.42-4.17c-2.5,0-4.79,1.13-6.54,2.67
				l-1.83-2.17c2.21-1.92,5.09-3.33,8.5-3.33c5,0,8.8,2.46,8.8,6.75c0,3.21-2.38,5.25-5.67,6.34v0.17c3.54,0.75,6.59,3.08,6.59,6.75
				c0,4.71-4.34,7.59-9.63,7.59C165.26,487.38,162.22,485.59,160.26,483.63z"/>
		</g>
	</g>
	<g>
		<g>
			<path class="st2" d="M220.81,586.67l-7.09-9.75h3.79l3.21,4.42c0.71,1.13,1.54,2.33,2.38,3.42h0.17
				c0.75-1.08,1.58-2.33,2.29-3.46l3-4.38h3.67l-7.17,10.05l7.75,10.21h-3.84l-3.5-4.67c-0.88-1.13-1.79-2.5-2.67-3.67h-0.17
				c-0.83,1.21-1.67,2.42-2.5,3.71l-3.33,4.63h-3.67L220.81,586.67z"/>
			<path class="st2" d="M250.82,578.87c0.04-1.46,0.13-3.25,0.21-4.71h-0.21c-0.88,1.29-1.83,2.58-2.71,3.88l-7.17,9h17.26v2.79
				h-21.09v-2.29l13.26-16.97h3.71v26.6h-3.25V578.87z"/>
		</g>
	</g>
	<g>
		<g>
			<path class="st2" d="M267.07,185.87h3.42l2.42,11.76c0.38,1.92,0.67,3.67,0.92,5.59h0.17c0.25-1.92,0.71-3.71,1.17-5.59l2.5-10.5
				h3.42l2.42,10.5c0.46,1.92,1,3.67,1.25,5.59h0.17c0.33-1.92,0.54-3.67,0.92-5.59l2.42-11.76h3.17l-4.33,20.26h-4.42l-2.33-9.67
				c-0.33-1.42-0.67-3.42-1-6h-0.17c-0.33,2.58-0.67,4.59-1,6l-2.25,9.67h-4.42L267.07,185.87z"/>
			<path class="st2" d="M295.79,203.25h7.67v-19.51h-5.96v-2.25c3.13-0.42,5.13-1.04,6.84-1.96h2.58v23.72h6.92v2.88h-18.05V203.25z
				"/>
		</g>
	</g>
	<g>
		<g>
			<path class="st2" d="M244.16,289.24h3.42l2.42,11.76c0.38,1.92,0.67,3.67,0.92,5.59h0.17c0.25-1.92,0.71-3.71,1.17-5.59
				l2.5-10.51h3.42l2.42,10.51c0.46,1.92,1,3.67,1.25,5.59H262c0.33-1.92,0.54-3.67,0.92-5.59l2.42-11.76h3.17l-4.33,20.26h-4.42
				l-2.33-9.67c-0.33-1.42-0.67-3.42-1-6h-0.17c-0.33,2.58-0.67,4.58-1,6L253,309.5h-4.42L244.16,289.24z"/>
			<path class="st2" d="M271.88,307.46c9-7.96,13.92-12.63,13.92-17.05c0-3.04-1.83-5.17-5.75-5.17c-2.5,0-4.67,1.42-6.38,3.17
				l-2-1.96c2.42-2.42,5.04-4.04,8.8-4.04c5.34,0,8.67,3.13,8.67,7.84c0,5-5,9.96-12.21,16.51c1.67-0.13,3.38-0.21,4.96-0.21h8.71
				v2.96h-18.72V307.46z"/>
		</g>
	</g>
	<g>
		<g>
			<path class="st2" d="M255.66,390.52h3.42l2.42,11.76c0.38,1.92,0.67,3.67,0.92,5.59h0.17c0.25-1.92,0.71-3.71,1.17-5.59
				l2.5-10.51h3.42l2.42,10.51c0.46,1.92,1,3.67,1.25,5.59h0.17c0.33-1.92,0.54-3.67,0.92-5.59l2.42-11.76h3.17l-4.33,20.26h-4.42
				l-2.33-9.67c-0.33-1.42-0.67-3.42-1-6h-0.17c-0.33,2.58-0.67,4.58-1,6l-2.25,9.67h-4.42L255.66,390.52z"/>
			<path class="st2" d="M282.72,407.53l1.75-2.25c1.75,1.67,4.21,3.13,7.63,3.13c3.63,0,6.34-1.88,6.34-4.84
				c0-3.17-2.67-5.29-9.63-5.29v-2.63c6.29,0,8.71-2.17,8.71-4.96c0-2.54-2.21-4.17-5.42-4.17c-2.5,0-4.79,1.13-6.54,2.67
				l-1.83-2.17c2.21-1.92,5.09-3.33,8.5-3.33c5,0,8.8,2.46,8.8,6.75c0,3.21-2.38,5.25-5.67,6.34v0.17c3.54,0.75,6.59,3.08,6.59,6.75
				c0,4.71-4.33,7.59-9.63,7.59C287.72,411.28,284.68,409.49,282.72,407.53z"/>
		</g>
	</g>
	<g>
		<g>
			<path class="st2" d="M288.23,477.31h3.42l2.42,11.76c0.38,1.92,0.67,3.67,0.92,5.59h0.17c0.25-1.92,0.71-3.71,1.17-5.59l2.5-10.5
				h3.42l2.42,10.5c0.46,1.92,1,3.67,1.25,5.59h0.17c0.33-1.92,0.54-3.67,0.92-5.59l2.42-11.76h3.17l-4.33,20.26h-4.42l-2.33-9.67
				c-0.33-1.42-0.67-3.42-1-6h-0.17c-0.33,2.58-0.67,4.59-1,6l-2.25,9.67h-4.42L288.23,477.31z"/>
			<path class="st2" d="M328.25,479.27c0.04-1.46,0.13-3.25,0.21-4.71h-0.21c-0.88,1.29-1.83,2.58-2.71,3.88l-7.17,9h17.26v2.79
				h-21.09v-2.29l13.26-16.97h3.71v26.6h-3.25V479.27z"/>
		</g>
	</g>
	<g>
		<g>
			<path class="st2" d="M216.08,38.73h7.67V19.22h-5.96v-2.25c3.13-0.42,5.13-1.04,6.84-1.96h2.58v23.72h6.92v2.88h-18.05V38.73z"/>
		</g>
	</g>
	<g>
		<g>
			<path class="st2" d="M329.81,86.86h3.42l2.42,11.76c0.38,1.92,0.67,3.67,0.92,5.59h0.17c0.25-1.92,0.71-3.71,1.17-5.59l2.5-10.51
				h3.42l2.42,10.51c0.46,1.92,1,3.67,1.25,5.59h0.17c0.33-1.92,0.54-3.67,0.92-5.59l2.42-11.76h3.17l-4.34,20.26h-4.42l-2.33-9.67
				c-0.33-1.42-0.67-3.42-1-6h-0.17c-0.33,2.58-0.67,4.59-1,6l-2.25,9.67h-4.42L329.81,86.86z"/>
			<path class="st2" d="M357.45,93.73c0-8.92,3.63-13.72,9.55-13.72c5.92,0,9.55,4.79,9.55,13.72c0,8.84-3.63,13.88-9.55,13.88
				C361.08,107.62,357.45,102.57,357.45,93.73z M373.33,93.73c0-7.63-2.63-10.92-6.34-10.92s-6.34,3.29-6.34,10.92
				c0,7.63,2.63,11.09,6.34,11.09S373.33,101.36,373.33,93.73z M364.41,93.44c0-1.71,1.21-2.75,2.58-2.75
				c1.38,0,2.58,1.04,2.58,2.75c0,1.75-1.21,2.79-2.58,2.79C365.62,96.23,364.41,95.19,364.41,93.44z"/>
		</g>
	</g>
	<g>
		<g>
			<path class="st2" d="M885.78,334.29l0.71-2.75c0.54,0.17,1.21,0.29,1.83,0.29c2.83,0,4.54-1.79,5.54-4.29l0.58-1.5l-9.42-20.3
				h3.5l4.92,11.17c0.79,1.79,1.67,3.92,2.5,5.88h0.17c0.71-1.92,1.5-4.04,2.17-5.88l4.38-11.17H906l-8.96,21.93
				c-1.5,4-3.96,7.05-8.59,7.05C887.49,334.7,886.49,334.54,885.78,334.29z"/>
		</g>
	</g>
	<g>
		<g>
			<g>
				<path class="st2" d="M455.05,313.04l5.11-0.18h10.25v2.43h-15.36V313.04z M460.08,311.37c0-4.27,2.25-7.14,7.1-7.14
					c1.74,0,3.41,0.33,5.07,1.01l-0.69,2.25c-1.45-0.62-2.57-0.83-4.09-0.83c-3.15,0-4.42,1.78-4.42,4.6v19.2h-2.97V311.37z"/>
				<path class="st2" d="M480.59,320.39c0-6.99,3.08-12.53,8.11-16.45l1.67,1.52c-4.85,4.09-7.1,8.84-7.1,14.92
					s2.25,10.83,7.1,14.92l-1.67,1.52C483.67,332.92,480.59,327.38,480.59,320.39z"/>
				<path class="st2" d="M503.78,321.33l-6.16-8.48h3.3l2.79,3.84c0.62,0.98,1.34,2.03,2.06,2.97h0.15
					c0.65-0.94,1.38-2.03,1.99-3.01l2.61-3.8h3.19l-6.23,8.73l6.74,8.88h-3.33l-3.04-4.06c-0.76-0.98-1.56-2.17-2.32-3.19h-0.15
					c-0.72,1.05-1.45,2.1-2.17,3.22l-2.9,4.02h-3.19L503.78,321.33z"/>
				<path class="st2" d="M538.56,312.85h2.97l2.1,10.22c0.33,1.67,0.58,3.19,0.8,4.85h0.14c0.22-1.67,0.62-3.22,1.01-4.85l2.17-9.13
					h2.97l2.1,9.13c0.4,1.67,0.87,3.19,1.09,4.85h0.15c0.29-1.67,0.47-3.19,0.8-4.85l2.1-10.22h2.75l-3.77,17.61h-3.84l-2.03-8.4
					c-0.29-1.23-0.58-2.97-0.87-5.22h-0.14c-0.29,2.25-0.58,3.98-0.87,5.22l-1.96,8.4h-3.84L538.56,312.85z"/>
				<path class="st2" d="M564.42,335.31c4.85-4.09,7.1-8.84,7.1-14.92s-2.25-10.83-7.1-14.92l1.67-1.52
					c5.04,3.91,8.11,9.46,8.11,16.45s-3.08,12.53-8.11,16.45L564.42,335.31z"/>
			</g>
		</g>
		<circle class="st2" cx="526.12" cy="321.97" r="3.96"/>
	</g>
</g>
</svg>
